G04*
G04 #@! TF.GenerationSoftware,Altium Limited,Altium Designer,23.6.0 (18)*
G04*
G04 Layer_Color=65535*
%FSLAX25Y25*%
%MOIN*%
G70*
G04*
G04 #@! TF.SameCoordinates,6FA12667-0DF0-4BCD-80CE-5BD958C659C7*
G04*
G04*
G04 #@! TF.FilePolarity,Positive*
G04*
G01*
G75*
%ADD10C,0.00984*%
%ADD11C,0.00787*%
G36*
X36039Y101315D02*
X36085Y101305D01*
X36136Y101292D01*
X36192Y101273D01*
X36243Y101245D01*
X36294Y101208D01*
X36298Y101203D01*
X36312Y101189D01*
X36336Y101162D01*
X36359Y101129D01*
X36377Y101087D01*
X36400Y101041D01*
X36415Y100985D01*
X36419Y100920D01*
Y100911D01*
Y100892D01*
X36415Y100860D01*
X36405Y100818D01*
X36387Y100772D01*
X36368Y100725D01*
X36336Y100679D01*
X36294Y100633D01*
X36289Y100628D01*
X36271Y100614D01*
X36243Y100596D01*
X36206Y100577D01*
X36159Y100558D01*
X36104Y100540D01*
X36039Y100526D01*
X35969Y100521D01*
X35936D01*
X35899Y100526D01*
X35858Y100535D01*
X35807Y100549D01*
X35751Y100572D01*
X35700Y100600D01*
X35649Y100637D01*
X35644Y100642D01*
X35630Y100661D01*
X35607Y100684D01*
X35588Y100716D01*
X35565Y100758D01*
X35542Y100804D01*
X35528Y100860D01*
X35524Y100920D01*
Y100930D01*
Y100948D01*
X35528Y100981D01*
X35537Y101023D01*
X35556Y101069D01*
X35575Y101115D01*
X35607Y101162D01*
X35649Y101208D01*
X35653Y101213D01*
X35672Y101227D01*
X35700Y101245D01*
X35737Y101264D01*
X35783Y101282D01*
X35839Y101301D01*
X35899Y101315D01*
X35969Y101319D01*
X36002D01*
X36039Y101315D01*
D02*
G37*
G36*
X21947D02*
X21993Y101305D01*
X22044Y101292D01*
X22100Y101273D01*
X22151Y101245D01*
X22202Y101208D01*
X22207Y101203D01*
X22221Y101189D01*
X22244Y101162D01*
X22267Y101129D01*
X22286Y101087D01*
X22309Y101041D01*
X22323Y100985D01*
X22327Y100920D01*
Y100911D01*
Y100892D01*
X22323Y100860D01*
X22313Y100818D01*
X22295Y100772D01*
X22276Y100725D01*
X22244Y100679D01*
X22202Y100633D01*
X22197Y100628D01*
X22179Y100614D01*
X22151Y100596D01*
X22114Y100577D01*
X22068Y100558D01*
X22012Y100540D01*
X21947Y100526D01*
X21877Y100521D01*
X21845D01*
X21808Y100526D01*
X21766Y100535D01*
X21715Y100549D01*
X21659Y100572D01*
X21608Y100600D01*
X21557Y100637D01*
X21553Y100642D01*
X21539Y100661D01*
X21515Y100684D01*
X21497Y100716D01*
X21474Y100758D01*
X21451Y100804D01*
X21437Y100860D01*
X21432Y100920D01*
Y100930D01*
Y100948D01*
X21437Y100981D01*
X21446Y101023D01*
X21464Y101069D01*
X21483Y101115D01*
X21515Y101162D01*
X21557Y101208D01*
X21562Y101213D01*
X21580Y101227D01*
X21608Y101245D01*
X21645Y101264D01*
X21692Y101282D01*
X21747Y101301D01*
X21808Y101315D01*
X21877Y101319D01*
X21910D01*
X21947Y101315D01*
D02*
G37*
G36*
X4760Y101185D02*
X4811D01*
X4872Y101180D01*
X4932Y101171D01*
X5067Y101157D01*
X5215Y101134D01*
X5359Y101101D01*
X5498Y101055D01*
Y100294D01*
X5494Y100299D01*
X5484Y100303D01*
X5461Y100312D01*
X5438Y100326D01*
X5401Y100345D01*
X5364Y100364D01*
X5317Y100382D01*
X5266Y100401D01*
X5210Y100419D01*
X5145Y100438D01*
X5011Y100475D01*
X4858Y100498D01*
X4774Y100507D01*
X4644D01*
X4607Y100503D01*
X4566Y100498D01*
X4519Y100489D01*
X4463Y100480D01*
X4408Y100470D01*
X4278Y100428D01*
X4213Y100405D01*
X4148Y100373D01*
X4078Y100340D01*
X4013Y100294D01*
X3953Y100248D01*
X3893Y100192D01*
X3888Y100187D01*
X3879Y100178D01*
X3865Y100159D01*
X3846Y100136D01*
X3823Y100104D01*
X3795Y100067D01*
X3767Y100020D01*
X3740Y99969D01*
X3712Y99914D01*
X3684Y99849D01*
X3656Y99779D01*
X3633Y99705D01*
X3614Y99626D01*
X3600Y99538D01*
X3591Y99445D01*
X3587Y99347D01*
Y99343D01*
Y99324D01*
Y99296D01*
X3591Y99264D01*
X3596Y99222D01*
X3600Y99171D01*
X3610Y99115D01*
X3624Y99055D01*
X3656Y98925D01*
X3679Y98856D01*
X3707Y98791D01*
X3740Y98721D01*
X3781Y98656D01*
X3823Y98596D01*
X3874Y98535D01*
X3879Y98531D01*
X3888Y98522D01*
X3902Y98508D01*
X3925Y98489D01*
X3958Y98466D01*
X3990Y98438D01*
X4032Y98415D01*
X4078Y98387D01*
X4134Y98354D01*
X4190Y98331D01*
X4255Y98303D01*
X4324Y98280D01*
X4399Y98262D01*
X4477Y98248D01*
X4561Y98238D01*
X4649Y98234D01*
X4695D01*
X4728Y98238D01*
X4770D01*
X4816Y98248D01*
X4872Y98252D01*
X4927Y98262D01*
X5062Y98290D01*
X5201Y98327D01*
X5350Y98382D01*
X5424Y98419D01*
X5498Y98457D01*
Y97733D01*
X5494D01*
X5480Y97723D01*
X5456Y97714D01*
X5429Y97705D01*
X5391Y97691D01*
X5345Y97677D01*
X5289Y97658D01*
X5229Y97645D01*
X5159Y97626D01*
X5085Y97607D01*
X5002Y97593D01*
X4909Y97580D01*
X4816Y97570D01*
X4714Y97561D01*
X4607Y97552D01*
X4454D01*
X4412Y97556D01*
X4357Y97561D01*
X4292Y97566D01*
X4213Y97575D01*
X4125Y97593D01*
X4032Y97612D01*
X3930Y97635D01*
X3828Y97668D01*
X3721Y97705D01*
X3614Y97751D01*
X3508Y97807D01*
X3410Y97867D01*
X3313Y97941D01*
X3220Y98025D01*
X3215Y98030D01*
X3201Y98048D01*
X3178Y98076D01*
X3146Y98113D01*
X3113Y98160D01*
X3071Y98215D01*
X3030Y98285D01*
X2988Y98359D01*
X2946Y98447D01*
X2904Y98545D01*
X2863Y98647D01*
X2830Y98758D01*
X2798Y98879D01*
X2774Y99009D01*
X2761Y99148D01*
X2756Y99292D01*
Y99296D01*
Y99301D01*
Y99329D01*
X2761Y99375D01*
X2765Y99431D01*
X2770Y99505D01*
X2784Y99589D01*
X2798Y99682D01*
X2821Y99779D01*
X2849Y99886D01*
X2881Y99997D01*
X2923Y100113D01*
X2974Y100224D01*
X3034Y100340D01*
X3104Y100452D01*
X3183Y100558D01*
X3276Y100661D01*
X3280Y100665D01*
X3299Y100684D01*
X3331Y100712D01*
X3368Y100744D01*
X3424Y100781D01*
X3484Y100828D01*
X3559Y100874D01*
X3642Y100925D01*
X3735Y100976D01*
X3837Y101023D01*
X3948Y101069D01*
X4064Y101106D01*
X4194Y101143D01*
X4333Y101166D01*
X4477Y101185D01*
X4631Y101189D01*
X4719D01*
X4760Y101185D01*
D02*
G37*
G36*
X15381Y100178D02*
X15423Y100173D01*
X15470Y100164D01*
X15525Y100155D01*
X15581Y100141D01*
X15637Y100122D01*
X15701Y100099D01*
X15762Y100076D01*
X15827Y100043D01*
X15887Y100002D01*
X15947Y99960D01*
X16003Y99909D01*
X16054Y99849D01*
X16059Y99844D01*
X16068Y99835D01*
X16077Y99816D01*
X16096Y99788D01*
X16115Y99756D01*
X16138Y99714D01*
X16165Y99663D01*
X16189Y99612D01*
X16212Y99547D01*
X16240Y99482D01*
X16263Y99403D01*
X16282Y99324D01*
X16300Y99236D01*
X16314Y99143D01*
X16319Y99046D01*
X16323Y98939D01*
Y98930D01*
Y98911D01*
Y98879D01*
X16319Y98837D01*
X16314Y98781D01*
X16305Y98721D01*
X16295Y98651D01*
X16286Y98577D01*
X16249Y98415D01*
X16221Y98331D01*
X16193Y98248D01*
X16156Y98164D01*
X16115Y98081D01*
X16068Y98002D01*
X16012Y97928D01*
X16008Y97923D01*
X15999Y97914D01*
X15980Y97895D01*
X15957Y97867D01*
X15924Y97839D01*
X15887Y97807D01*
X15841Y97774D01*
X15794Y97742D01*
X15739Y97705D01*
X15674Y97672D01*
X15609Y97640D01*
X15534Y97612D01*
X15456Y97589D01*
X15372Y97570D01*
X15279Y97556D01*
X15187Y97552D01*
X15168D01*
X15145Y97556D01*
X15112D01*
X15075Y97561D01*
X15029Y97570D01*
X14982Y97580D01*
X14931Y97593D01*
X14876Y97612D01*
X14820Y97635D01*
X14760Y97663D01*
X14704Y97700D01*
X14648Y97737D01*
X14593Y97784D01*
X14541Y97839D01*
X14495Y97900D01*
X14486D01*
Y96457D01*
X13711D01*
Y100122D01*
X14486D01*
Y99747D01*
X14495D01*
X14500Y99751D01*
X14509Y99765D01*
X14523Y99788D01*
X14546Y99816D01*
X14579Y99849D01*
X14616Y99886D01*
X14658Y99923D01*
X14704Y99964D01*
X14760Y100006D01*
X14820Y100043D01*
X14885Y100081D01*
X14959Y100113D01*
X15033Y100141D01*
X15117Y100164D01*
X15210Y100178D01*
X15303Y100183D01*
X15349D01*
X15381Y100178D01*
D02*
G37*
G36*
X12351D02*
X12407Y100169D01*
X12467Y100150D01*
X12537Y100132D01*
X12611Y100099D01*
X12690Y100057D01*
X12764Y100002D01*
X12839Y99937D01*
X12908Y99853D01*
X12968Y99756D01*
X12996Y99700D01*
X13024Y99640D01*
X13043Y99575D01*
X13061Y99505D01*
X13080Y99431D01*
X13089Y99347D01*
X13099Y99264D01*
Y99171D01*
Y97612D01*
X12324D01*
Y99041D01*
Y99046D01*
Y99064D01*
X12319Y99092D01*
Y99125D01*
X12310Y99166D01*
X12300Y99213D01*
X12291Y99264D01*
X12273Y99315D01*
X12254Y99366D01*
X12226Y99417D01*
X12194Y99463D01*
X12152Y99505D01*
X12105Y99538D01*
X12054Y99566D01*
X11989Y99584D01*
X11920Y99589D01*
X11911D01*
X11887Y99584D01*
X11855Y99579D01*
X11808Y99570D01*
X11762Y99547D01*
X11706Y99519D01*
X11655Y99477D01*
X11609Y99422D01*
X11604Y99412D01*
X11591Y99394D01*
X11572Y99357D01*
X11549Y99310D01*
X11525Y99250D01*
X11507Y99185D01*
X11493Y99106D01*
X11488Y99018D01*
Y97612D01*
X10713D01*
Y99060D01*
Y99064D01*
Y99083D01*
X10709Y99111D01*
Y99143D01*
X10700Y99180D01*
X10695Y99227D01*
X10662Y99324D01*
X10644Y99375D01*
X10616Y99422D01*
X10584Y99468D01*
X10547Y99505D01*
X10500Y99542D01*
X10449Y99566D01*
X10389Y99584D01*
X10319Y99589D01*
X10287D01*
X10249Y99579D01*
X10203Y99570D01*
X10152Y99552D01*
X10101Y99524D01*
X10045Y99482D01*
X9999Y99431D01*
X9994Y99422D01*
X9980Y99403D01*
X9962Y99366D01*
X9943Y99320D01*
X9920Y99259D01*
X9901Y99185D01*
X9888Y99102D01*
X9883Y99004D01*
Y97612D01*
X9108D01*
Y100122D01*
X9883D01*
Y99728D01*
X9892D01*
Y99733D01*
X9897Y99737D01*
X9915Y99760D01*
X9943Y99797D01*
X9980Y99844D01*
X10027Y99900D01*
X10087Y99955D01*
X10152Y100006D01*
X10231Y100057D01*
X10236D01*
X10240Y100062D01*
X10268Y100076D01*
X10315Y100099D01*
X10370Y100122D01*
X10444Y100141D01*
X10523Y100164D01*
X10611Y100178D01*
X10704Y100183D01*
X10727D01*
X10755Y100178D01*
X10792Y100173D01*
X10834Y100169D01*
X10885Y100159D01*
X10936Y100145D01*
X10997Y100122D01*
X11057Y100099D01*
X11117Y100067D01*
X11178Y100030D01*
X11238Y99983D01*
X11293Y99932D01*
X11344Y99867D01*
X11391Y99797D01*
X11433Y99714D01*
X11437Y99719D01*
X11447Y99733D01*
X11465Y99756D01*
X11488Y99788D01*
X11516Y99821D01*
X11553Y99862D01*
X11595Y99904D01*
X11646Y99951D01*
X11702Y99992D01*
X11767Y100034D01*
X11836Y100076D01*
X11911Y100108D01*
X11994Y100141D01*
X12082Y100164D01*
X12175Y100178D01*
X12277Y100183D01*
X12314D01*
X12351Y100178D01*
D02*
G37*
G36*
X42414Y100145D02*
X42460Y100136D01*
X42511Y100122D01*
X42567Y100099D01*
X42618Y100071D01*
X42669Y100034D01*
X42674Y100030D01*
X42688Y100016D01*
X42711Y99988D01*
X42734Y99955D01*
X42753Y99918D01*
X42776Y99867D01*
X42790Y99811D01*
X42794Y99751D01*
Y99742D01*
Y99723D01*
X42790Y99686D01*
X42781Y99644D01*
X42762Y99598D01*
X42739Y99552D01*
X42706Y99501D01*
X42665Y99454D01*
X42660Y99449D01*
X42641Y99436D01*
X42614Y99417D01*
X42576Y99398D01*
X42530Y99380D01*
X42470Y99361D01*
X42405Y99347D01*
X42331Y99343D01*
X42298D01*
X42265Y99347D01*
X42219Y99357D01*
X42168Y99371D01*
X42117Y99394D01*
X42061Y99422D01*
X42010Y99459D01*
X42006Y99463D01*
X41992Y99482D01*
X41969Y99505D01*
X41950Y99542D01*
X41927Y99584D01*
X41904Y99635D01*
X41890Y99691D01*
X41885Y99751D01*
Y99760D01*
Y99779D01*
X41894Y99811D01*
X41904Y99853D01*
X41917Y99900D01*
X41941Y99946D01*
X41973Y99992D01*
X42015Y100039D01*
X42020Y100043D01*
X42038Y100057D01*
X42066Y100076D01*
X42108Y100094D01*
X42154Y100113D01*
X42210Y100132D01*
X42275Y100145D01*
X42344Y100150D01*
X42377D01*
X42414Y100145D01*
D02*
G37*
G36*
X34484Y97612D02*
X33668D01*
X33301Y99083D01*
Y99088D01*
X33296Y99111D01*
X33287Y99139D01*
X33283Y99180D01*
X33273Y99227D01*
X33268Y99282D01*
X33264Y99338D01*
X33259Y99403D01*
X33241D01*
Y99394D01*
X33236Y99371D01*
Y99338D01*
X33231Y99292D01*
X33222Y99245D01*
X33217Y99190D01*
X33204Y99139D01*
X33194Y99092D01*
X32795Y97612D01*
X31993D01*
X31283Y100122D01*
X32071D01*
X32419Y98484D01*
Y98480D01*
X32424Y98466D01*
X32429Y98438D01*
X32433Y98405D01*
X32438Y98364D01*
X32447Y98317D01*
X32452Y98262D01*
X32456Y98201D01*
X32471D01*
Y98211D01*
X32475Y98229D01*
Y98262D01*
X32480Y98303D01*
X32489Y98350D01*
X32494Y98396D01*
X32503Y98447D01*
X32512Y98494D01*
X32948Y100122D01*
X33686D01*
X34071Y98484D01*
Y98480D01*
X34076Y98470D01*
Y98452D01*
X34080Y98424D01*
X34085Y98387D01*
X34095Y98336D01*
X34099Y98276D01*
X34108Y98197D01*
X34122D01*
Y98201D01*
X34127Y98220D01*
Y98248D01*
X34132Y98285D01*
X34141Y98331D01*
X34146Y98378D01*
X34164Y98484D01*
X34489Y100122D01*
X35208D01*
X34484Y97612D01*
D02*
G37*
G36*
X39737Y99751D02*
X39746D01*
X39751Y99756D01*
X39760Y99770D01*
X39774Y99793D01*
X39797Y99821D01*
X39825Y99853D01*
X39862Y99886D01*
X39904Y99927D01*
X39950Y99969D01*
X40001Y100006D01*
X40062Y100048D01*
X40122Y100081D01*
X40191Y100118D01*
X40266Y100141D01*
X40345Y100164D01*
X40433Y100178D01*
X40521Y100183D01*
X40558D01*
X40600Y100178D01*
X40655Y100169D01*
X40720Y100150D01*
X40790Y100127D01*
X40869Y100094D01*
X40948Y100053D01*
X41027Y100002D01*
X41105Y99932D01*
X41175Y99849D01*
X41240Y99747D01*
X41268Y99691D01*
X41296Y99630D01*
X41319Y99566D01*
X41337Y99491D01*
X41351Y99417D01*
X41365Y99334D01*
X41375Y99245D01*
Y99152D01*
Y97612D01*
X40600D01*
Y99037D01*
Y99041D01*
Y99060D01*
X40595Y99088D01*
Y99125D01*
X40586Y99166D01*
X40576Y99213D01*
X40567Y99259D01*
X40549Y99315D01*
X40530Y99366D01*
X40502Y99412D01*
X40470Y99459D01*
X40428Y99501D01*
X40382Y99538D01*
X40331Y99566D01*
X40266Y99584D01*
X40196Y99589D01*
X40164D01*
X40126Y99579D01*
X40080Y99570D01*
X40024Y99552D01*
X39969Y99524D01*
X39913Y99487D01*
X39862Y99436D01*
X39857Y99431D01*
X39843Y99408D01*
X39820Y99375D01*
X39802Y99329D01*
X39779Y99273D01*
X39755Y99204D01*
X39741Y99129D01*
X39737Y99041D01*
Y97612D01*
X38962D01*
Y101329D01*
X39737D01*
Y99751D01*
D02*
G37*
G36*
X36354Y97612D02*
X35579D01*
Y100122D01*
X36354D01*
Y97612D01*
D02*
G37*
G36*
X26810D02*
X26035D01*
Y101329D01*
X26810D01*
Y97612D01*
D02*
G37*
G36*
X22263D02*
X21488D01*
Y100122D01*
X22263D01*
Y97612D01*
D02*
G37*
G36*
X17915Y100178D02*
X17943D01*
X18012Y100164D01*
X18096Y100150D01*
X18184Y100127D01*
X18281Y100094D01*
X18383Y100048D01*
X18481Y99992D01*
X18578Y99923D01*
X18666Y99835D01*
X18708Y99784D01*
X18750Y99733D01*
X18787Y99672D01*
X18820Y99607D01*
X18847Y99538D01*
X18871Y99463D01*
X18889Y99384D01*
X18903Y99301D01*
X18912Y99208D01*
X18917Y99111D01*
Y97612D01*
X18184D01*
Y97969D01*
X18175D01*
X18170Y97965D01*
X18165Y97951D01*
X18147Y97932D01*
X18128Y97904D01*
X18100Y97872D01*
X18068Y97839D01*
X18031Y97798D01*
X17989Y97760D01*
X17938Y97723D01*
X17882Y97686D01*
X17822Y97649D01*
X17752Y97617D01*
X17683Y97589D01*
X17604Y97570D01*
X17516Y97556D01*
X17428Y97552D01*
X17391D01*
X17367Y97556D01*
X17335D01*
X17302Y97561D01*
X17219Y97580D01*
X17126Y97603D01*
X17029Y97640D01*
X16936Y97691D01*
X16894Y97719D01*
X16852Y97756D01*
Y97760D01*
X16843Y97765D01*
X16834Y97779D01*
X16820Y97793D01*
X16787Y97839D01*
X16750Y97904D01*
X16708Y97983D01*
X16676Y98076D01*
X16653Y98187D01*
X16648Y98248D01*
X16643Y98308D01*
Y98317D01*
Y98340D01*
X16648Y98378D01*
X16657Y98424D01*
X16671Y98480D01*
X16690Y98545D01*
X16718Y98614D01*
X16750Y98689D01*
X16796Y98763D01*
X16852Y98837D01*
X16922Y98907D01*
X17010Y98972D01*
X17107Y99032D01*
X17223Y99083D01*
X17284Y99106D01*
X17353Y99125D01*
X17428Y99139D01*
X17506Y99152D01*
X18189Y99245D01*
Y99250D01*
Y99264D01*
X18184Y99282D01*
Y99310D01*
X18175Y99343D01*
X18165Y99375D01*
X18151Y99412D01*
X18133Y99454D01*
X18110Y99491D01*
X18082Y99528D01*
X18045Y99561D01*
X18003Y99593D01*
X17952Y99621D01*
X17892Y99640D01*
X17822Y99654D01*
X17743Y99658D01*
X17701D01*
X17669Y99654D01*
X17627Y99649D01*
X17581Y99644D01*
X17525Y99635D01*
X17469Y99626D01*
X17404Y99612D01*
X17335Y99593D01*
X17265Y99570D01*
X17191Y99547D01*
X17117Y99514D01*
X17042Y99477D01*
X16964Y99436D01*
X16889Y99389D01*
Y99974D01*
X16899Y99978D01*
X16917Y99988D01*
X16954Y100002D01*
X17005Y100025D01*
X17070Y100048D01*
X17145Y100071D01*
X17233Y100094D01*
X17330Y100118D01*
X17335D01*
X17344Y100122D01*
X17358D01*
X17377Y100127D01*
X17404Y100132D01*
X17432Y100136D01*
X17502Y100150D01*
X17581Y100164D01*
X17669Y100173D01*
X17757Y100178D01*
X17845Y100183D01*
X17892D01*
X17915Y100178D01*
D02*
G37*
G36*
X42414Y98354D02*
X42460Y98345D01*
X42511Y98331D01*
X42567Y98308D01*
X42618Y98280D01*
X42669Y98243D01*
X42674Y98238D01*
X42688Y98225D01*
X42711Y98197D01*
X42734Y98164D01*
X42753Y98123D01*
X42776Y98076D01*
X42790Y98020D01*
X42794Y97955D01*
Y97946D01*
Y97928D01*
X42790Y97890D01*
X42781Y97853D01*
X42762Y97807D01*
X42739Y97756D01*
X42706Y97710D01*
X42665Y97663D01*
X42660Y97658D01*
X42641Y97645D01*
X42614Y97626D01*
X42576Y97607D01*
X42530Y97589D01*
X42470Y97570D01*
X42405Y97556D01*
X42331Y97552D01*
X42298D01*
X42265Y97556D01*
X42219Y97566D01*
X42168Y97580D01*
X42117Y97603D01*
X42061Y97631D01*
X42010Y97668D01*
X42006Y97672D01*
X41992Y97691D01*
X41969Y97714D01*
X41950Y97747D01*
X41927Y97788D01*
X41904Y97839D01*
X41890Y97895D01*
X41885Y97955D01*
Y97965D01*
Y97983D01*
X41894Y98016D01*
X41904Y98058D01*
X41917Y98104D01*
X41941Y98150D01*
X41973Y98197D01*
X42015Y98243D01*
X42020Y98248D01*
X42038Y98262D01*
X42066Y98280D01*
X42108Y98303D01*
X42154Y98322D01*
X42210Y98340D01*
X42275Y98354D01*
X42344Y98359D01*
X42377D01*
X42414Y98354D01*
D02*
G37*
G36*
X37964Y100122D02*
X38526D01*
Y99552D01*
X37964D01*
Y98535D01*
Y98531D01*
Y98517D01*
Y98498D01*
X37969Y98475D01*
X37983Y98410D01*
X38001Y98340D01*
X38039Y98266D01*
X38066Y98234D01*
X38094Y98201D01*
X38131Y98178D01*
X38173Y98160D01*
X38219Y98146D01*
X38275Y98141D01*
X38298D01*
X38322Y98146D01*
X38354Y98150D01*
X38391Y98160D01*
X38433Y98173D01*
X38479Y98192D01*
X38526Y98215D01*
Y97640D01*
X38516Y97635D01*
X38493Y97626D01*
X38451Y97612D01*
X38396Y97598D01*
X38326Y97580D01*
X38238Y97566D01*
X38131Y97556D01*
X38011Y97552D01*
X37973D01*
X37936Y97556D01*
X37881Y97566D01*
X37820Y97580D01*
X37751Y97598D01*
X37677Y97621D01*
X37602Y97658D01*
X37523Y97705D01*
X37449Y97760D01*
X37380Y97825D01*
X37319Y97909D01*
X37264Y98006D01*
X37227Y98123D01*
X37208Y98183D01*
X37199Y98252D01*
X37194Y98322D01*
X37189Y98401D01*
Y99552D01*
X36781D01*
Y100122D01*
X37189D01*
Y100665D01*
X37964Y100883D01*
Y100122D01*
D02*
G37*
G36*
X28661Y100178D02*
X28707Y100173D01*
X28758Y100164D01*
X28819Y100155D01*
X28884Y100141D01*
X28949Y100127D01*
X29018Y100104D01*
X29088Y100076D01*
X29158Y100048D01*
X29227Y100006D01*
X29297Y99964D01*
X29357Y99914D01*
X29417Y99858D01*
X29422Y99853D01*
X29431Y99844D01*
X29445Y99825D01*
X29464Y99797D01*
X29487Y99765D01*
X29515Y99728D01*
X29538Y99677D01*
X29570Y99626D01*
X29598Y99566D01*
X29621Y99501D01*
X29649Y99426D01*
X29673Y99347D01*
X29691Y99264D01*
X29705Y99171D01*
X29714Y99074D01*
X29719Y98972D01*
Y98647D01*
X28081D01*
Y98642D01*
X28086Y98624D01*
X28090Y98596D01*
X28100Y98563D01*
X28109Y98522D01*
X28127Y98475D01*
X28151Y98424D01*
X28183Y98373D01*
X28220Y98322D01*
X28267Y98271D01*
X28322Y98225D01*
X28392Y98183D01*
X28466Y98150D01*
X28554Y98123D01*
X28656Y98104D01*
X28772Y98099D01*
X28814D01*
X28842Y98104D01*
X28879D01*
X28921Y98109D01*
X28967Y98118D01*
X29018Y98123D01*
X29130Y98146D01*
X29255Y98183D01*
X29380Y98229D01*
X29501Y98294D01*
Y97733D01*
X29496D01*
X29487Y97723D01*
X29464Y97714D01*
X29436Y97705D01*
X29403Y97691D01*
X29362Y97677D01*
X29311Y97658D01*
X29260Y97645D01*
X29195Y97626D01*
X29125Y97607D01*
X29051Y97593D01*
X28972Y97580D01*
X28888Y97570D01*
X28796Y97561D01*
X28698Y97552D01*
X28568D01*
X28536Y97556D01*
X28494D01*
X28443Y97561D01*
X28383Y97570D01*
X28318Y97580D01*
X28248Y97593D01*
X28174Y97612D01*
X28095Y97635D01*
X28016Y97658D01*
X27937Y97691D01*
X27863Y97733D01*
X27784Y97774D01*
X27714Y97825D01*
X27650Y97886D01*
X27645Y97890D01*
X27636Y97900D01*
X27617Y97923D01*
X27599Y97946D01*
X27571Y97983D01*
X27543Y98025D01*
X27515Y98076D01*
X27483Y98132D01*
X27450Y98192D01*
X27422Y98266D01*
X27394Y98340D01*
X27367Y98424D01*
X27348Y98517D01*
X27329Y98614D01*
X27320Y98716D01*
X27315Y98828D01*
Y98837D01*
Y98856D01*
X27320Y98888D01*
Y98930D01*
X27325Y98985D01*
X27334Y99046D01*
X27348Y99111D01*
X27362Y99185D01*
X27380Y99264D01*
X27404Y99343D01*
X27431Y99426D01*
X27468Y99510D01*
X27510Y99589D01*
X27557Y99668D01*
X27612Y99747D01*
X27677Y99816D01*
X27682Y99821D01*
X27696Y99830D01*
X27714Y99849D01*
X27742Y99872D01*
X27779Y99900D01*
X27821Y99932D01*
X27868Y99964D01*
X27923Y100002D01*
X27988Y100034D01*
X28053Y100067D01*
X28127Y100099D01*
X28206Y100127D01*
X28290Y100150D01*
X28378Y100169D01*
X28471Y100178D01*
X28568Y100183D01*
X28619D01*
X28661Y100178D01*
D02*
G37*
G36*
X23692Y99747D02*
X23701D01*
X23706Y99751D01*
X23715Y99765D01*
X23733Y99788D01*
X23756Y99816D01*
X23784Y99849D01*
X23821Y99886D01*
X23863Y99923D01*
X23910Y99964D01*
X23965Y100006D01*
X24026Y100043D01*
X24095Y100081D01*
X24165Y100113D01*
X24244Y100141D01*
X24332Y100164D01*
X24420Y100178D01*
X24518Y100183D01*
X24564D01*
X24596Y100178D01*
X24638Y100173D01*
X24685Y100164D01*
X24736Y100155D01*
X24796Y100141D01*
X24852Y100122D01*
X24912Y100099D01*
X24977Y100076D01*
X25037Y100043D01*
X25098Y100002D01*
X25158Y99960D01*
X25214Y99909D01*
X25264Y99849D01*
X25269Y99844D01*
X25274Y99835D01*
X25288Y99816D01*
X25306Y99788D01*
X25325Y99756D01*
X25348Y99714D01*
X25371Y99663D01*
X25399Y99612D01*
X25422Y99547D01*
X25446Y99482D01*
X25469Y99403D01*
X25487Y99324D01*
X25506Y99236D01*
X25520Y99143D01*
X25524Y99046D01*
X25529Y98939D01*
Y98930D01*
Y98911D01*
Y98879D01*
X25524Y98837D01*
X25520Y98781D01*
X25515Y98721D01*
X25506Y98651D01*
X25492Y98577D01*
X25455Y98415D01*
X25432Y98331D01*
X25399Y98248D01*
X25367Y98164D01*
X25325Y98081D01*
X25278Y98002D01*
X25223Y97928D01*
X25218Y97923D01*
X25209Y97914D01*
X25190Y97895D01*
X25167Y97867D01*
X25135Y97839D01*
X25098Y97807D01*
X25056Y97774D01*
X25005Y97742D01*
X24949Y97705D01*
X24889Y97672D01*
X24819Y97640D01*
X24749Y97612D01*
X24671Y97589D01*
X24587Y97570D01*
X24494Y97556D01*
X24401Y97552D01*
X24383D01*
X24355Y97556D01*
X24327D01*
X24285Y97561D01*
X24244Y97570D01*
X24193Y97580D01*
X24142Y97593D01*
X24086Y97612D01*
X24026Y97635D01*
X23970Y97663D01*
X23910Y97700D01*
X23854Y97737D01*
X23798Y97784D01*
X23747Y97839D01*
X23701Y97900D01*
X23692D01*
Y97612D01*
X22917D01*
Y101329D01*
X23692D01*
Y99747D01*
D02*
G37*
G36*
X20490Y100122D02*
X21051D01*
Y99552D01*
X20490D01*
Y98535D01*
Y98531D01*
Y98517D01*
Y98498D01*
X20495Y98475D01*
X20508Y98410D01*
X20527Y98340D01*
X20564Y98266D01*
X20592Y98234D01*
X20620Y98201D01*
X20657Y98178D01*
X20699Y98160D01*
X20745Y98146D01*
X20801Y98141D01*
X20824D01*
X20847Y98146D01*
X20880Y98150D01*
X20917Y98160D01*
X20959Y98173D01*
X21005Y98192D01*
X21051Y98215D01*
Y97640D01*
X21042Y97635D01*
X21019Y97626D01*
X20977Y97612D01*
X20922Y97598D01*
X20852Y97580D01*
X20764Y97566D01*
X20657Y97556D01*
X20536Y97552D01*
X20499D01*
X20462Y97556D01*
X20406Y97566D01*
X20346Y97580D01*
X20277Y97598D01*
X20202Y97621D01*
X20128Y97658D01*
X20049Y97705D01*
X19975Y97760D01*
X19905Y97825D01*
X19845Y97909D01*
X19789Y98006D01*
X19752Y98123D01*
X19734Y98183D01*
X19724Y98252D01*
X19720Y98322D01*
X19715Y98401D01*
Y99552D01*
X19307D01*
Y100122D01*
X19715D01*
Y100665D01*
X20490Y100883D01*
Y100122D01*
D02*
G37*
G36*
X7368Y100178D02*
X7424Y100173D01*
X7484Y100164D01*
X7549Y100155D01*
X7623Y100141D01*
X7702Y100122D01*
X7781Y100094D01*
X7864Y100067D01*
X7943Y100034D01*
X8027Y99992D01*
X8106Y99946D01*
X8180Y99890D01*
X8250Y99830D01*
X8254Y99825D01*
X8264Y99816D01*
X8282Y99793D01*
X8305Y99765D01*
X8333Y99733D01*
X8361Y99686D01*
X8394Y99640D01*
X8431Y99584D01*
X8463Y99519D01*
X8496Y99449D01*
X8523Y99371D01*
X8551Y99292D01*
X8574Y99204D01*
X8593Y99106D01*
X8602Y99009D01*
X8607Y98902D01*
Y98893D01*
Y98874D01*
Y98842D01*
X8602Y98800D01*
X8598Y98744D01*
X8588Y98684D01*
X8574Y98619D01*
X8561Y98545D01*
X8542Y98466D01*
X8519Y98387D01*
X8486Y98303D01*
X8449Y98220D01*
X8407Y98141D01*
X8356Y98062D01*
X8301Y97983D01*
X8236Y97914D01*
X8231Y97909D01*
X8217Y97900D01*
X8199Y97881D01*
X8171Y97858D01*
X8134Y97830D01*
X8087Y97798D01*
X8032Y97765D01*
X7971Y97733D01*
X7906Y97700D01*
X7832Y97668D01*
X7749Y97635D01*
X7660Y97607D01*
X7563Y97584D01*
X7461Y97566D01*
X7350Y97556D01*
X7233Y97552D01*
X7206D01*
X7173Y97556D01*
X7131D01*
X7076Y97561D01*
X7015Y97570D01*
X6950Y97580D01*
X6876Y97593D01*
X6797Y97612D01*
X6718Y97635D01*
X6635Y97663D01*
X6551Y97700D01*
X6472Y97737D01*
X6394Y97784D01*
X6315Y97839D01*
X6245Y97900D01*
X6241Y97904D01*
X6231Y97918D01*
X6213Y97937D01*
X6190Y97965D01*
X6162Y98002D01*
X6134Y98044D01*
X6101Y98095D01*
X6069Y98150D01*
X6032Y98215D01*
X5999Y98290D01*
X5971Y98368D01*
X5944Y98452D01*
X5920Y98545D01*
X5902Y98642D01*
X5892Y98744D01*
X5888Y98856D01*
Y98865D01*
Y98883D01*
X5892Y98916D01*
Y98958D01*
X5897Y99009D01*
X5906Y99069D01*
X5920Y99139D01*
X5934Y99213D01*
X5953Y99287D01*
X5981Y99366D01*
X6009Y99449D01*
X6046Y99528D01*
X6087Y99607D01*
X6138Y99686D01*
X6194Y99760D01*
X6259Y99830D01*
X6264Y99835D01*
X6278Y99844D01*
X6296Y99862D01*
X6329Y99886D01*
X6366Y99914D01*
X6412Y99941D01*
X6463Y99974D01*
X6524Y100006D01*
X6593Y100039D01*
X6667Y100071D01*
X6751Y100099D01*
X6839Y100127D01*
X6937Y100150D01*
X7039Y100169D01*
X7150Y100178D01*
X7266Y100183D01*
X7326D01*
X7368Y100178D01*
D02*
G37*
G36*
X6083Y88822D02*
X6129Y88812D01*
X6180Y88798D01*
X6236Y88780D01*
X6287Y88752D01*
X6338Y88715D01*
X6343Y88710D01*
X6357Y88696D01*
X6380Y88669D01*
X6403Y88636D01*
X6421Y88594D01*
X6445Y88548D01*
X6459Y88492D01*
X6463Y88427D01*
Y88418D01*
Y88399D01*
X6459Y88367D01*
X6449Y88325D01*
X6431Y88279D01*
X6412Y88232D01*
X6380Y88186D01*
X6338Y88140D01*
X6333Y88135D01*
X6315Y88121D01*
X6287Y88103D01*
X6250Y88084D01*
X6203Y88065D01*
X6148Y88047D01*
X6083Y88033D01*
X6013Y88028D01*
X5981D01*
X5944Y88033D01*
X5902Y88042D01*
X5851Y88056D01*
X5795Y88079D01*
X5744Y88107D01*
X5693Y88144D01*
X5688Y88149D01*
X5675Y88167D01*
X5651Y88191D01*
X5633Y88223D01*
X5610Y88265D01*
X5586Y88311D01*
X5572Y88367D01*
X5568Y88427D01*
Y88437D01*
Y88455D01*
X5572Y88488D01*
X5582Y88529D01*
X5600Y88576D01*
X5619Y88622D01*
X5651Y88669D01*
X5693Y88715D01*
X5698Y88720D01*
X5716Y88734D01*
X5744Y88752D01*
X5781Y88771D01*
X5828Y88789D01*
X5883Y88808D01*
X5944Y88822D01*
X6013Y88826D01*
X6046D01*
X6083Y88822D01*
D02*
G37*
G36*
X33361Y85119D02*
X32563D01*
X31111Y87328D01*
X31106Y87337D01*
X31092Y87360D01*
X31069Y87393D01*
X31041Y87439D01*
X30986Y87532D01*
X30958Y87578D01*
X30935Y87620D01*
X30925D01*
Y87611D01*
X30930Y87583D01*
X30935Y87541D01*
X30939Y87481D01*
Y87397D01*
X30944Y87300D01*
X30949Y87184D01*
Y87119D01*
Y87049D01*
Y85119D01*
X30197D01*
Y88636D01*
X31051D01*
X32447Y86492D01*
X32452Y86488D01*
X32466Y86469D01*
X32484Y86441D01*
X32508Y86404D01*
X32535Y86358D01*
X32563Y86311D01*
X32624Y86205D01*
X32633D01*
Y86209D01*
X32628Y86228D01*
Y86265D01*
X32624Y86311D01*
X32619Y86376D01*
Y86418D01*
Y86460D01*
X32614Y86511D01*
Y86562D01*
Y86622D01*
Y86687D01*
Y88636D01*
X33361D01*
Y85119D01*
D02*
G37*
G36*
X38809Y86186D02*
X37468D01*
Y86729D01*
X38809D01*
Y86186D01*
D02*
G37*
G36*
X12226D02*
X10885D01*
Y86729D01*
X12226D01*
Y86186D01*
D02*
G37*
G36*
X27807Y85119D02*
X27028D01*
Y87221D01*
Y87226D01*
Y87235D01*
Y87253D01*
Y87281D01*
Y87314D01*
Y87351D01*
X27032Y87397D01*
Y87444D01*
Y87499D01*
Y87555D01*
X27042Y87685D01*
X27046Y87824D01*
X27056Y87977D01*
X27037D01*
Y87973D01*
X27032Y87963D01*
Y87945D01*
X27028Y87926D01*
X27023Y87898D01*
X27014Y87866D01*
X27000Y87796D01*
X26981Y87722D01*
X26963Y87643D01*
X26944Y87569D01*
X26926Y87509D01*
X26100Y85119D01*
X25455D01*
X24615Y87485D01*
Y87490D01*
X24610Y87509D01*
X24601Y87536D01*
X24592Y87555D01*
X24587Y87583D01*
X24578Y87611D01*
X24573Y87648D01*
X24564Y87685D01*
X24555Y87731D01*
X24541Y87782D01*
X24531Y87843D01*
X24518Y87908D01*
X24504Y87977D01*
X24480D01*
Y87973D01*
Y87954D01*
X24485Y87926D01*
Y87889D01*
X24490Y87843D01*
Y87792D01*
X24494Y87731D01*
X24499Y87666D01*
X24504Y87523D01*
X24508Y87369D01*
X24513Y87216D01*
Y87063D01*
Y85119D01*
X23798D01*
Y88636D01*
X24958D01*
X25677Y86548D01*
Y86543D01*
X25682Y86539D01*
X25687Y86525D01*
X25691Y86506D01*
X25705Y86455D01*
X25729Y86390D01*
X25747Y86316D01*
X25766Y86233D01*
X25789Y86140D01*
X25803Y86047D01*
X25817D01*
Y86052D01*
X25821Y86061D01*
X25826Y86075D01*
X25831Y86098D01*
X25835Y86121D01*
X25844Y86149D01*
X25863Y86219D01*
X25882Y86298D01*
X25905Y86386D01*
X25933Y86469D01*
X25961Y86553D01*
X26680Y88636D01*
X27807D01*
Y85119D01*
D02*
G37*
G36*
X22425D02*
X21548D01*
X20963Y87374D01*
Y87383D01*
X20954Y87406D01*
X20949Y87444D01*
X20940Y87490D01*
X20931Y87546D01*
X20922Y87615D01*
X20912Y87690D01*
X20908Y87768D01*
X20894D01*
Y87764D01*
Y87759D01*
Y87745D01*
X20889Y87727D01*
X20884Y87685D01*
X20880Y87629D01*
X20870Y87564D01*
X20861Y87499D01*
X20847Y87434D01*
X20833Y87374D01*
X20235Y85119D01*
X19316D01*
X18393Y88636D01*
X19260D01*
X19757Y86293D01*
Y86288D01*
X19761Y86265D01*
X19766Y86233D01*
X19775Y86186D01*
X19780Y86130D01*
X19789Y86061D01*
X19794Y85982D01*
X19803Y85889D01*
X19817D01*
Y85899D01*
X19822Y85922D01*
Y85963D01*
X19831Y86014D01*
X19840Y86075D01*
X19850Y86144D01*
X19868Y86219D01*
X19887Y86302D01*
X20527Y88636D01*
X21376D01*
X21952Y86274D01*
Y86270D01*
X21956Y86251D01*
X21966Y86219D01*
X21970Y86177D01*
X21979Y86126D01*
X21989Y86061D01*
X21998Y85982D01*
X22007Y85894D01*
X22017D01*
Y85903D01*
Y85926D01*
X22021Y85968D01*
X22026Y86014D01*
X22035Y86075D01*
X22044Y86144D01*
X22054Y86214D01*
X22068Y86288D01*
X22555Y88636D01*
X23353D01*
X22425Y85119D01*
D02*
G37*
G36*
X41268D02*
X40372D01*
X39175Y88636D01*
X40029D01*
X40762Y86186D01*
X40767Y86177D01*
X40771Y86154D01*
X40781Y86116D01*
X40795Y86066D01*
X40804Y86014D01*
X40818Y85954D01*
X40827Y85894D01*
X40832Y85834D01*
X40846D01*
Y85843D01*
X40850Y85861D01*
X40855Y85899D01*
X40864Y85940D01*
X40874Y85996D01*
X40887Y86056D01*
X40906Y86126D01*
X40925Y86195D01*
X41653Y88636D01*
X42484D01*
X41268Y85119D01*
D02*
G37*
G36*
X35886D02*
X34990D01*
X33793Y88636D01*
X34647D01*
X35380Y86186D01*
X35384Y86177D01*
X35389Y86154D01*
X35398Y86116D01*
X35412Y86066D01*
X35421Y86014D01*
X35435Y85954D01*
X35445Y85894D01*
X35449Y85834D01*
X35463D01*
Y85843D01*
X35468Y85861D01*
X35473Y85899D01*
X35482Y85940D01*
X35491Y85996D01*
X35505Y86056D01*
X35524Y86126D01*
X35542Y86195D01*
X36271Y88636D01*
X37101D01*
X35886Y85119D01*
D02*
G37*
G36*
X44896Y88000D02*
X43625D01*
X43579Y87300D01*
X43588D01*
X43611Y87304D01*
X43644D01*
X43690Y87309D01*
X43741D01*
X43792Y87314D01*
X43955D01*
X43992Y87309D01*
X44038Y87304D01*
X44094Y87300D01*
X44149Y87291D01*
X44214Y87277D01*
X44349Y87244D01*
X44418Y87221D01*
X44493Y87193D01*
X44562Y87161D01*
X44627Y87119D01*
X44692Y87077D01*
X44753Y87026D01*
X44757Y87021D01*
X44767Y87012D01*
X44780Y86998D01*
X44799Y86975D01*
X44822Y86947D01*
X44850Y86910D01*
X44878Y86873D01*
X44906Y86826D01*
X44934Y86771D01*
X44961Y86715D01*
X44989Y86650D01*
X45012Y86585D01*
X45031Y86511D01*
X45045Y86432D01*
X45054Y86349D01*
X45059Y86260D01*
Y86256D01*
Y86237D01*
Y86209D01*
X45054Y86172D01*
X45050Y86126D01*
X45040Y86075D01*
X45026Y86019D01*
X45012Y85954D01*
X44994Y85885D01*
X44971Y85815D01*
X44938Y85745D01*
X44906Y85671D01*
X44864Y85597D01*
X44813Y85527D01*
X44757Y85458D01*
X44692Y85393D01*
X44688Y85388D01*
X44674Y85379D01*
X44655Y85360D01*
X44627Y85342D01*
X44590Y85314D01*
X44544Y85286D01*
X44493Y85258D01*
X44432Y85226D01*
X44363Y85193D01*
X44289Y85165D01*
X44210Y85137D01*
X44122Y85110D01*
X44024Y85091D01*
X43927Y85073D01*
X43820Y85063D01*
X43704Y85059D01*
X43653D01*
X43620Y85063D01*
X43574D01*
X43523Y85068D01*
X43467Y85073D01*
X43407Y85077D01*
X43272Y85096D01*
X43129Y85124D01*
X42985Y85156D01*
X42850Y85207D01*
Y85871D01*
X42855Y85866D01*
X42869Y85861D01*
X42887Y85852D01*
X42911Y85838D01*
X42948Y85820D01*
X42985Y85801D01*
X43031Y85782D01*
X43082Y85759D01*
X43133Y85741D01*
X43194Y85717D01*
X43323Y85685D01*
X43467Y85657D01*
X43541Y85653D01*
X43616Y85648D01*
X43644D01*
X43667Y85653D01*
X43723Y85657D01*
X43792Y85667D01*
X43866Y85685D01*
X43945Y85708D01*
X44024Y85745D01*
X44094Y85792D01*
X44103Y85801D01*
X44122Y85820D01*
X44149Y85852D01*
X44182Y85899D01*
X44214Y85954D01*
X44242Y86024D01*
X44261Y86103D01*
X44270Y86191D01*
Y86195D01*
Y86214D01*
X44265Y86237D01*
X44261Y86274D01*
X44247Y86311D01*
X44233Y86358D01*
X44210Y86404D01*
X44177Y86455D01*
X44140Y86502D01*
X44089Y86548D01*
X44029Y86594D01*
X43959Y86632D01*
X43876Y86669D01*
X43778Y86692D01*
X43662Y86711D01*
X43532Y86715D01*
X43426D01*
X43393Y86711D01*
X43351D01*
X43259Y86706D01*
X43152Y86697D01*
X43031Y86687D01*
X42901Y86673D01*
X43036Y88636D01*
X44896D01*
Y88000D01*
D02*
G37*
G36*
X29399Y85119D02*
X28605D01*
Y88636D01*
X29399D01*
Y85119D01*
D02*
G37*
G36*
X16964Y88692D02*
X17029Y88687D01*
X17103Y88678D01*
X17182Y88664D01*
X17265Y88645D01*
X17344Y88622D01*
X17349D01*
X17353Y88617D01*
X17381Y88608D01*
X17418Y88594D01*
X17469Y88571D01*
X17525Y88543D01*
X17585Y88511D01*
X17646Y88469D01*
X17706Y88423D01*
X17711Y88418D01*
X17729Y88399D01*
X17757Y88372D01*
X17789Y88335D01*
X17827Y88288D01*
X17864Y88237D01*
X17896Y88172D01*
X17929Y88107D01*
X17933Y88098D01*
X17943Y88075D01*
X17952Y88038D01*
X17970Y87986D01*
X17984Y87926D01*
X17994Y87857D01*
X18003Y87778D01*
X18008Y87694D01*
Y87690D01*
Y87685D01*
Y87671D01*
Y87652D01*
X18003Y87606D01*
X17998Y87550D01*
X17989Y87481D01*
X17975Y87411D01*
X17956Y87337D01*
X17933Y87263D01*
X17929Y87253D01*
X17919Y87230D01*
X17906Y87193D01*
X17882Y87147D01*
X17854Y87096D01*
X17817Y87040D01*
X17780Y86980D01*
X17734Y86919D01*
X17729Y86915D01*
X17711Y86891D01*
X17687Y86864D01*
X17650Y86826D01*
X17608Y86785D01*
X17558Y86734D01*
X17506Y86687D01*
X17446Y86636D01*
X17437Y86632D01*
X17418Y86613D01*
X17386Y86590D01*
X17344Y86557D01*
X17293Y86520D01*
X17237Y86474D01*
X17112Y86386D01*
X17107Y86381D01*
X17094Y86372D01*
X17070Y86353D01*
X17042Y86335D01*
X17005Y86307D01*
X16968Y86279D01*
X16885Y86219D01*
X16880Y86214D01*
X16866Y86205D01*
X16843Y86191D01*
X16820Y86168D01*
X16755Y86121D01*
X16690Y86061D01*
X16685Y86056D01*
X16676Y86047D01*
X16662Y86033D01*
X16643Y86010D01*
X16602Y85963D01*
X16560Y85903D01*
Y85899D01*
X16551Y85889D01*
X16546Y85875D01*
X16537Y85857D01*
X16518Y85810D01*
X16513Y85787D01*
X16509Y85759D01*
X18003D01*
Y85119D01*
X15660D01*
Y85383D01*
Y85388D01*
Y85397D01*
Y85411D01*
Y85430D01*
X15664Y85481D01*
X15674Y85546D01*
X15683Y85620D01*
X15697Y85699D01*
X15720Y85782D01*
X15753Y85866D01*
Y85871D01*
X15757Y85875D01*
X15771Y85903D01*
X15790Y85945D01*
X15818Y85996D01*
X15850Y86056D01*
X15887Y86116D01*
X15934Y86186D01*
X15980Y86251D01*
X15984Y86260D01*
X16003Y86279D01*
X16031Y86311D01*
X16068Y86353D01*
X16115Y86400D01*
X16165Y86451D01*
X16221Y86502D01*
X16282Y86553D01*
X16291Y86557D01*
X16309Y86576D01*
X16342Y86599D01*
X16384Y86632D01*
X16430Y86669D01*
X16481Y86706D01*
X16592Y86789D01*
X16597Y86794D01*
X16620Y86808D01*
X16648Y86831D01*
X16685Y86859D01*
X16727Y86891D01*
X16769Y86924D01*
X16861Y86998D01*
X16866Y87003D01*
X16880Y87017D01*
X16903Y87035D01*
X16931Y87063D01*
X16991Y87123D01*
X17056Y87198D01*
X17061Y87202D01*
X17070Y87216D01*
X17084Y87235D01*
X17103Y87263D01*
X17121Y87291D01*
X17145Y87328D01*
X17177Y87402D01*
Y87406D01*
X17182Y87420D01*
X17191Y87439D01*
X17200Y87467D01*
X17205Y87499D01*
X17214Y87536D01*
X17219Y87620D01*
Y87625D01*
Y87629D01*
Y87657D01*
X17214Y87699D01*
X17205Y87750D01*
X17186Y87801D01*
X17163Y87861D01*
X17131Y87912D01*
X17089Y87959D01*
X17084Y87963D01*
X17066Y87977D01*
X17033Y87996D01*
X16991Y88019D01*
X16940Y88038D01*
X16871Y88056D01*
X16792Y88070D01*
X16699Y88075D01*
X16653D01*
X16620Y88070D01*
X16583Y88065D01*
X16532Y88056D01*
X16481Y88047D01*
X16421Y88028D01*
X16356Y88010D01*
X16286Y87986D01*
X16217Y87959D01*
X16142Y87926D01*
X16063Y87884D01*
X15989Y87833D01*
X15910Y87782D01*
X15831Y87717D01*
Y88399D01*
X15836Y88404D01*
X15855Y88413D01*
X15878Y88427D01*
X15910Y88446D01*
X15957Y88469D01*
X16008Y88492D01*
X16068Y88520D01*
X16133Y88548D01*
X16207Y88576D01*
X16286Y88604D01*
X16370Y88627D01*
X16463Y88650D01*
X16555Y88669D01*
X16657Y88683D01*
X16759Y88692D01*
X16866Y88696D01*
X16913D01*
X16964Y88692D01*
D02*
G37*
G36*
X14606Y85119D02*
X13836D01*
Y87838D01*
X13832Y87833D01*
X13827Y87829D01*
X13813Y87819D01*
X13794Y87805D01*
X13743Y87768D01*
X13683Y87731D01*
X13679D01*
X13669Y87722D01*
X13651Y87713D01*
X13627Y87703D01*
X13600Y87690D01*
X13572Y87676D01*
X13498Y87643D01*
X13493D01*
X13479Y87638D01*
X13460Y87629D01*
X13437Y87620D01*
X13405Y87606D01*
X13372Y87597D01*
X13293Y87573D01*
X13289D01*
X13275Y87569D01*
X13256Y87564D01*
X13228Y87560D01*
X13201Y87550D01*
X13163Y87546D01*
X13089Y87532D01*
Y88186D01*
X13094D01*
X13103Y88191D01*
X13117Y88195D01*
X13140Y88200D01*
X13168Y88209D01*
X13201Y88223D01*
X13275Y88246D01*
X13358Y88279D01*
X13456Y88316D01*
X13553Y88362D01*
X13655Y88409D01*
X13660D01*
X13669Y88413D01*
X13683Y88423D01*
X13702Y88432D01*
X13753Y88460D01*
X13818Y88502D01*
X13892Y88543D01*
X13971Y88599D01*
X14054Y88655D01*
X14138Y88715D01*
X14606D01*
Y85119D01*
D02*
G37*
G36*
X6398D02*
X5623D01*
Y87629D01*
X6398D01*
Y85119D01*
D02*
G37*
G36*
X4101Y87685D02*
X4148Y87680D01*
X4199Y87671D01*
X4259Y87662D01*
X4324Y87648D01*
X4389Y87634D01*
X4459Y87611D01*
X4528Y87583D01*
X4598Y87555D01*
X4668Y87513D01*
X4737Y87471D01*
X4797Y87420D01*
X4858Y87365D01*
X4862Y87360D01*
X4872Y87351D01*
X4886Y87332D01*
X4904Y87304D01*
X4927Y87272D01*
X4955Y87235D01*
X4978Y87184D01*
X5011Y87133D01*
X5039Y87072D01*
X5062Y87007D01*
X5090Y86933D01*
X5113Y86854D01*
X5132Y86771D01*
X5145Y86678D01*
X5155Y86581D01*
X5159Y86479D01*
Y86154D01*
X3522D01*
Y86149D01*
X3526Y86130D01*
X3531Y86103D01*
X3540Y86070D01*
X3549Y86028D01*
X3568Y85982D01*
X3591Y85931D01*
X3624Y85880D01*
X3661Y85829D01*
X3707Y85778D01*
X3763Y85731D01*
X3832Y85690D01*
X3907Y85657D01*
X3995Y85629D01*
X4097Y85611D01*
X4213Y85606D01*
X4255D01*
X4282Y85611D01*
X4320D01*
X4361Y85615D01*
X4408Y85625D01*
X4459Y85629D01*
X4570Y85653D01*
X4695Y85690D01*
X4821Y85736D01*
X4941Y85801D01*
Y85240D01*
X4937D01*
X4927Y85230D01*
X4904Y85221D01*
X4876Y85212D01*
X4844Y85198D01*
X4802Y85184D01*
X4751Y85165D01*
X4700Y85151D01*
X4635Y85133D01*
X4566Y85114D01*
X4491Y85100D01*
X4412Y85087D01*
X4329Y85077D01*
X4236Y85068D01*
X4139Y85059D01*
X4009D01*
X3976Y85063D01*
X3934D01*
X3883Y85068D01*
X3823Y85077D01*
X3758Y85087D01*
X3689Y85100D01*
X3614Y85119D01*
X3535Y85142D01*
X3457Y85165D01*
X3378Y85198D01*
X3303Y85240D01*
X3224Y85281D01*
X3155Y85332D01*
X3090Y85393D01*
X3085Y85397D01*
X3076Y85407D01*
X3057Y85430D01*
X3039Y85453D01*
X3011Y85490D01*
X2983Y85532D01*
X2955Y85583D01*
X2923Y85639D01*
X2891Y85699D01*
X2863Y85773D01*
X2835Y85847D01*
X2807Y85931D01*
X2788Y86024D01*
X2770Y86121D01*
X2761Y86223D01*
X2756Y86335D01*
Y86344D01*
Y86362D01*
X2761Y86395D01*
Y86437D01*
X2765Y86492D01*
X2774Y86553D01*
X2788Y86618D01*
X2802Y86692D01*
X2821Y86771D01*
X2844Y86850D01*
X2872Y86933D01*
X2909Y87017D01*
X2951Y87096D01*
X2997Y87174D01*
X3053Y87253D01*
X3118Y87323D01*
X3122Y87328D01*
X3136Y87337D01*
X3155Y87355D01*
X3183Y87379D01*
X3220Y87406D01*
X3262Y87439D01*
X3308Y87471D01*
X3364Y87509D01*
X3429Y87541D01*
X3494Y87573D01*
X3568Y87606D01*
X3647Y87634D01*
X3730Y87657D01*
X3819Y87676D01*
X3911Y87685D01*
X4009Y87690D01*
X4060D01*
X4101Y87685D01*
D02*
G37*
G36*
X8746Y88692D02*
X8797Y88687D01*
X8862Y88683D01*
X8936Y88669D01*
X9015Y88655D01*
X9108Y88636D01*
X9201Y88608D01*
X9298Y88576D01*
X9400Y88534D01*
X9503Y88488D01*
X9605Y88432D01*
X9702Y88362D01*
X9799Y88288D01*
X9888Y88200D01*
X9892Y88195D01*
X9906Y88177D01*
X9929Y88149D01*
X9962Y88112D01*
X9994Y88061D01*
X10036Y88000D01*
X10078Y87931D01*
X10124Y87852D01*
X10166Y87764D01*
X10208Y87666D01*
X10249Y87560D01*
X10282Y87444D01*
X10315Y87318D01*
X10338Y87188D01*
X10352Y87049D01*
X10356Y86901D01*
Y86891D01*
Y86864D01*
X10352Y86822D01*
X10347Y86766D01*
X10342Y86692D01*
X10328Y86613D01*
X10315Y86520D01*
X10296Y86423D01*
X10268Y86321D01*
X10236Y86209D01*
X10199Y86103D01*
X10152Y85987D01*
X10096Y85875D01*
X10031Y85769D01*
X9957Y85662D01*
X9869Y85564D01*
Y85560D01*
X9860Y85555D01*
X9837Y85527D01*
X9827Y85518D01*
X9809Y85499D01*
X10700Y84646D01*
X9591D01*
X9122Y85119D01*
X9117D01*
X9113Y85114D01*
X9099D01*
X9080Y85110D01*
X9034Y85100D01*
X8974Y85091D01*
X8895Y85077D01*
X8811Y85068D01*
X8718Y85063D01*
X8616Y85059D01*
X8584D01*
X8542Y85063D01*
X8491Y85068D01*
X8426Y85073D01*
X8352Y85087D01*
X8268Y85100D01*
X8180Y85119D01*
X8083Y85147D01*
X7981Y85179D01*
X7879Y85216D01*
X7776Y85263D01*
X7674Y85318D01*
X7572Y85383D01*
X7475Y85462D01*
X7382Y85546D01*
X7377Y85550D01*
X7363Y85569D01*
X7340Y85597D01*
X7308Y85634D01*
X7271Y85685D01*
X7233Y85745D01*
X7192Y85815D01*
X7145Y85894D01*
X7104Y85982D01*
X7057Y86079D01*
X7020Y86181D01*
X6983Y86298D01*
X6950Y86418D01*
X6927Y86548D01*
X6913Y86687D01*
X6909Y86831D01*
Y86836D01*
Y86840D01*
Y86868D01*
X6913Y86910D01*
X6918Y86970D01*
X6923Y87040D01*
X6937Y87123D01*
X6950Y87212D01*
X6969Y87309D01*
X6997Y87416D01*
X7025Y87523D01*
X7067Y87638D01*
X7113Y87750D01*
X7169Y87861D01*
X7233Y87973D01*
X7308Y88075D01*
X7391Y88177D01*
X7396Y88181D01*
X7414Y88200D01*
X7442Y88223D01*
X7479Y88260D01*
X7526Y88297D01*
X7586Y88339D01*
X7651Y88390D01*
X7730Y88437D01*
X7818Y88483D01*
X7916Y88534D01*
X8018Y88576D01*
X8134Y88617D01*
X8254Y88650D01*
X8389Y88673D01*
X8523Y88692D01*
X8672Y88696D01*
X8704D01*
X8746Y88692D01*
D02*
G37*
G36*
X6083Y94727D02*
X6129Y94718D01*
X6180Y94704D01*
X6236Y94685D01*
X6287Y94658D01*
X6338Y94621D01*
X6343Y94616D01*
X6357Y94602D01*
X6380Y94574D01*
X6403Y94542D01*
X6421Y94500D01*
X6445Y94453D01*
X6459Y94398D01*
X6463Y94333D01*
Y94323D01*
Y94305D01*
X6459Y94273D01*
X6449Y94231D01*
X6431Y94184D01*
X6412Y94138D01*
X6380Y94091D01*
X6338Y94045D01*
X6333Y94041D01*
X6315Y94026D01*
X6287Y94008D01*
X6250Y93989D01*
X6203Y93971D01*
X6148Y93952D01*
X6083Y93938D01*
X6013Y93934D01*
X5981D01*
X5944Y93938D01*
X5902Y93948D01*
X5851Y93962D01*
X5795Y93985D01*
X5744Y94013D01*
X5693Y94050D01*
X5688Y94054D01*
X5675Y94073D01*
X5651Y94096D01*
X5633Y94129D01*
X5610Y94170D01*
X5586Y94217D01*
X5572Y94273D01*
X5568Y94333D01*
Y94342D01*
Y94361D01*
X5572Y94393D01*
X5582Y94435D01*
X5600Y94481D01*
X5619Y94528D01*
X5651Y94574D01*
X5693Y94621D01*
X5698Y94625D01*
X5716Y94639D01*
X5744Y94658D01*
X5781Y94676D01*
X5828Y94695D01*
X5883Y94713D01*
X5944Y94727D01*
X6013Y94732D01*
X6046D01*
X6083Y94727D01*
D02*
G37*
G36*
X30471Y91025D02*
X29673D01*
X28220Y93233D01*
X28216Y93242D01*
X28202Y93266D01*
X28179Y93298D01*
X28151Y93344D01*
X28095Y93437D01*
X28067Y93484D01*
X28044Y93525D01*
X28035D01*
Y93516D01*
X28039Y93488D01*
X28044Y93446D01*
X28049Y93386D01*
Y93303D01*
X28053Y93205D01*
X28058Y93089D01*
Y93024D01*
Y92955D01*
Y91025D01*
X27306D01*
Y94542D01*
X28160D01*
X29557Y92398D01*
X29561Y92393D01*
X29575Y92375D01*
X29594Y92347D01*
X29617Y92310D01*
X29645Y92263D01*
X29673Y92217D01*
X29733Y92110D01*
X29742D01*
Y92115D01*
X29737Y92133D01*
Y92171D01*
X29733Y92217D01*
X29728Y92282D01*
Y92324D01*
Y92365D01*
X29724Y92417D01*
Y92467D01*
Y92528D01*
Y92593D01*
Y94542D01*
X30471D01*
Y91025D01*
D02*
G37*
G36*
X35918Y92092D02*
X34577D01*
Y92634D01*
X35918D01*
Y92092D01*
D02*
G37*
G36*
X12226D02*
X10885D01*
Y92634D01*
X12226D01*
Y92092D01*
D02*
G37*
G36*
X24917Y91025D02*
X24137D01*
Y93126D01*
Y93131D01*
Y93140D01*
Y93159D01*
Y93187D01*
Y93219D01*
Y93256D01*
X24142Y93303D01*
Y93349D01*
Y93405D01*
Y93461D01*
X24151Y93590D01*
X24156Y93730D01*
X24165Y93883D01*
X24146D01*
Y93878D01*
X24142Y93869D01*
Y93850D01*
X24137Y93832D01*
X24132Y93804D01*
X24123Y93771D01*
X24109Y93702D01*
X24091Y93628D01*
X24072Y93549D01*
X24054Y93474D01*
X24035Y93414D01*
X23209Y91025D01*
X22564D01*
X21724Y93391D01*
Y93396D01*
X21720Y93414D01*
X21710Y93442D01*
X21701Y93461D01*
X21696Y93488D01*
X21687Y93516D01*
X21682Y93553D01*
X21673Y93590D01*
X21664Y93637D01*
X21650Y93688D01*
X21641Y93748D01*
X21627Y93813D01*
X21613Y93883D01*
X21590D01*
Y93878D01*
Y93859D01*
X21594Y93832D01*
Y93795D01*
X21599Y93748D01*
Y93697D01*
X21604Y93637D01*
X21608Y93572D01*
X21613Y93428D01*
X21618Y93275D01*
X21622Y93122D01*
Y92969D01*
Y91025D01*
X20908D01*
Y94542D01*
X22068D01*
X22787Y92454D01*
Y92449D01*
X22791Y92444D01*
X22796Y92430D01*
X22801Y92412D01*
X22815Y92361D01*
X22838Y92296D01*
X22856Y92222D01*
X22875Y92138D01*
X22898Y92045D01*
X22912Y91953D01*
X22926D01*
Y91957D01*
X22931Y91966D01*
X22935Y91980D01*
X22940Y92004D01*
X22945Y92027D01*
X22954Y92054D01*
X22972Y92124D01*
X22991Y92203D01*
X23014Y92291D01*
X23042Y92375D01*
X23070Y92458D01*
X23789Y94542D01*
X24917D01*
Y91025D01*
D02*
G37*
G36*
X19534D02*
X18657D01*
X18073Y93279D01*
Y93289D01*
X18063Y93312D01*
X18059Y93349D01*
X18049Y93396D01*
X18040Y93451D01*
X18031Y93521D01*
X18022Y93595D01*
X18017Y93674D01*
X18003D01*
Y93669D01*
Y93665D01*
Y93651D01*
X17998Y93632D01*
X17994Y93590D01*
X17989Y93535D01*
X17980Y93470D01*
X17970Y93405D01*
X17956Y93340D01*
X17943Y93279D01*
X17344Y91025D01*
X16425D01*
X15502Y94542D01*
X16370D01*
X16866Y92198D01*
Y92194D01*
X16871Y92171D01*
X16875Y92138D01*
X16885Y92092D01*
X16889Y92036D01*
X16899Y91966D01*
X16903Y91887D01*
X16913Y91795D01*
X16927D01*
Y91804D01*
X16931Y91827D01*
Y91869D01*
X16940Y91920D01*
X16950Y91980D01*
X16959Y92050D01*
X16977Y92124D01*
X16996Y92208D01*
X17636Y94542D01*
X18485D01*
X19061Y92180D01*
Y92175D01*
X19065Y92157D01*
X19075Y92124D01*
X19079Y92082D01*
X19089Y92031D01*
X19098Y91966D01*
X19107Y91887D01*
X19117Y91799D01*
X19126D01*
Y91809D01*
Y91832D01*
X19130Y91874D01*
X19135Y91920D01*
X19144Y91980D01*
X19154Y92050D01*
X19163Y92119D01*
X19177Y92194D01*
X19664Y94542D01*
X20462D01*
X19534Y91025D01*
D02*
G37*
G36*
X38377D02*
X37482D01*
X36285Y94542D01*
X37138D01*
X37871Y92092D01*
X37876Y92082D01*
X37881Y92059D01*
X37890Y92022D01*
X37904Y91971D01*
X37913Y91920D01*
X37927Y91860D01*
X37936Y91799D01*
X37941Y91739D01*
X37955D01*
Y91748D01*
X37960Y91767D01*
X37964Y91804D01*
X37973Y91846D01*
X37983Y91901D01*
X37997Y91962D01*
X38015Y92031D01*
X38034Y92101D01*
X38762Y94542D01*
X39593D01*
X38377Y91025D01*
D02*
G37*
G36*
X32995D02*
X32099D01*
X30902Y94542D01*
X31756D01*
X32489Y92092D01*
X32494Y92082D01*
X32498Y92059D01*
X32508Y92022D01*
X32522Y91971D01*
X32531Y91920D01*
X32545Y91860D01*
X32554Y91799D01*
X32559Y91739D01*
X32573D01*
Y91748D01*
X32577Y91767D01*
X32582Y91804D01*
X32591Y91846D01*
X32600Y91901D01*
X32614Y91962D01*
X32633Y92031D01*
X32651Y92101D01*
X33380Y94542D01*
X34211D01*
X32995Y91025D01*
D02*
G37*
G36*
X42006Y93906D02*
X40734D01*
X40688Y93205D01*
X40697D01*
X40720Y93210D01*
X40753D01*
X40799Y93214D01*
X40850D01*
X40901Y93219D01*
X41064D01*
X41101Y93214D01*
X41147Y93210D01*
X41203Y93205D01*
X41259Y93196D01*
X41324Y93182D01*
X41458Y93150D01*
X41528Y93126D01*
X41602Y93098D01*
X41672Y93066D01*
X41737Y93024D01*
X41802Y92983D01*
X41862Y92931D01*
X41866Y92927D01*
X41876Y92918D01*
X41890Y92904D01*
X41908Y92880D01*
X41931Y92853D01*
X41959Y92816D01*
X41987Y92778D01*
X42015Y92732D01*
X42043Y92676D01*
X42071Y92621D01*
X42099Y92556D01*
X42122Y92491D01*
X42140Y92417D01*
X42154Y92338D01*
X42163Y92254D01*
X42168Y92166D01*
Y92161D01*
Y92143D01*
Y92115D01*
X42163Y92078D01*
X42159Y92031D01*
X42149Y91980D01*
X42136Y91925D01*
X42122Y91860D01*
X42103Y91790D01*
X42080Y91720D01*
X42047Y91651D01*
X42015Y91577D01*
X41973Y91502D01*
X41922Y91433D01*
X41866Y91363D01*
X41802Y91298D01*
X41797Y91294D01*
X41783Y91284D01*
X41764Y91266D01*
X41737Y91247D01*
X41699Y91219D01*
X41653Y91192D01*
X41602Y91164D01*
X41542Y91131D01*
X41472Y91099D01*
X41398Y91071D01*
X41319Y91043D01*
X41231Y91015D01*
X41133Y90997D01*
X41036Y90978D01*
X40929Y90969D01*
X40813Y90964D01*
X40762D01*
X40730Y90969D01*
X40683D01*
X40632Y90973D01*
X40576Y90978D01*
X40516Y90983D01*
X40382Y91001D01*
X40238Y91029D01*
X40094Y91062D01*
X39959Y91113D01*
Y91776D01*
X39964Y91772D01*
X39978Y91767D01*
X39997Y91758D01*
X40020Y91744D01*
X40057Y91725D01*
X40094Y91707D01*
X40140Y91688D01*
X40191Y91665D01*
X40242Y91646D01*
X40303Y91623D01*
X40433Y91590D01*
X40576Y91563D01*
X40651Y91558D01*
X40725Y91553D01*
X40753D01*
X40776Y91558D01*
X40832Y91563D01*
X40901Y91572D01*
X40976Y91590D01*
X41054Y91614D01*
X41133Y91651D01*
X41203Y91697D01*
X41212Y91707D01*
X41231Y91725D01*
X41259Y91758D01*
X41291Y91804D01*
X41324Y91860D01*
X41351Y91929D01*
X41370Y92008D01*
X41379Y92096D01*
Y92101D01*
Y92119D01*
X41375Y92143D01*
X41370Y92180D01*
X41356Y92217D01*
X41342Y92263D01*
X41319Y92310D01*
X41287Y92361D01*
X41249Y92407D01*
X41198Y92454D01*
X41138Y92500D01*
X41068Y92537D01*
X40985Y92574D01*
X40887Y92597D01*
X40771Y92616D01*
X40641Y92621D01*
X40535D01*
X40502Y92616D01*
X40461D01*
X40368Y92611D01*
X40261Y92602D01*
X40140Y92593D01*
X40010Y92579D01*
X40145Y94542D01*
X42006D01*
Y93906D01*
D02*
G37*
G36*
X14073Y94597D02*
X14101D01*
X14170Y94588D01*
X14249Y94574D01*
X14337Y94551D01*
X14425Y94523D01*
X14514Y94486D01*
X14518D01*
X14523Y94481D01*
X14551Y94467D01*
X14597Y94440D01*
X14648Y94402D01*
X14713Y94356D01*
X14778Y94300D01*
X14843Y94235D01*
X14903Y94161D01*
X14913Y94152D01*
X14931Y94124D01*
X14959Y94078D01*
X14996Y94017D01*
X15033Y93943D01*
X15075Y93855D01*
X15117Y93757D01*
X15149Y93646D01*
Y93641D01*
X15154Y93632D01*
X15159Y93614D01*
X15163Y93590D01*
X15168Y93563D01*
X15177Y93530D01*
X15182Y93488D01*
X15191Y93446D01*
X15205Y93340D01*
X15219Y93224D01*
X15228Y93094D01*
X15233Y92950D01*
Y92945D01*
Y92931D01*
Y92904D01*
Y92871D01*
X15228Y92829D01*
Y92783D01*
X15224Y92727D01*
X15219Y92672D01*
X15210Y92537D01*
X15191Y92398D01*
X15163Y92254D01*
X15131Y92110D01*
Y92106D01*
X15126Y92096D01*
X15122Y92073D01*
X15112Y92050D01*
X15103Y92017D01*
X15089Y91980D01*
X15056Y91897D01*
X15010Y91799D01*
X14959Y91693D01*
X14899Y91590D01*
X14829Y91488D01*
Y91484D01*
X14820Y91479D01*
X14811Y91465D01*
X14797Y91447D01*
X14750Y91400D01*
X14695Y91345D01*
X14625Y91280D01*
X14541Y91215D01*
X14449Y91154D01*
X14347Y91099D01*
X14342D01*
X14333Y91094D01*
X14319Y91085D01*
X14296Y91080D01*
X14272Y91066D01*
X14240Y91057D01*
X14203Y91043D01*
X14161Y91034D01*
X14064Y91006D01*
X13957Y90987D01*
X13832Y90969D01*
X13702Y90964D01*
X13627D01*
X13590Y90969D01*
X13549Y90973D01*
X13502D01*
X13446Y90983D01*
X13330Y90997D01*
X13205Y91020D01*
X13080Y91052D01*
X12959Y91099D01*
Y91734D01*
X12964D01*
X12973Y91725D01*
X12987Y91716D01*
X13010Y91707D01*
X13038Y91693D01*
X13066Y91679D01*
X13103Y91660D01*
X13149Y91646D01*
X13247Y91609D01*
X13358Y91581D01*
X13488Y91563D01*
X13627Y91553D01*
X13665D01*
X13692Y91558D01*
X13725Y91563D01*
X13767Y91567D01*
X13855Y91586D01*
X13957Y91618D01*
X14008Y91642D01*
X14059Y91669D01*
X14110Y91702D01*
X14156Y91739D01*
X14207Y91781D01*
X14249Y91827D01*
X14254Y91832D01*
X14258Y91841D01*
X14272Y91855D01*
X14286Y91878D01*
X14300Y91906D01*
X14323Y91943D01*
X14342Y91980D01*
X14365Y92027D01*
X14384Y92082D01*
X14407Y92138D01*
X14425Y92203D01*
X14444Y92277D01*
X14458Y92352D01*
X14472Y92435D01*
X14477Y92523D01*
X14481Y92616D01*
X14467Y92621D01*
X14463Y92616D01*
X14458Y92607D01*
X14444Y92588D01*
X14425Y92565D01*
X14398Y92542D01*
X14370Y92509D01*
X14333Y92481D01*
X14291Y92449D01*
X14245Y92417D01*
X14194Y92384D01*
X14133Y92352D01*
X14068Y92328D01*
X13999Y92305D01*
X13924Y92286D01*
X13846Y92277D01*
X13757Y92273D01*
X13720D01*
X13679Y92277D01*
X13627Y92282D01*
X13563Y92291D01*
X13498Y92305D01*
X13428Y92324D01*
X13358Y92352D01*
X13349Y92356D01*
X13326Y92365D01*
X13293Y92384D01*
X13252Y92412D01*
X13201Y92444D01*
X13149Y92481D01*
X13094Y92528D01*
X13043Y92579D01*
X13038Y92584D01*
X13020Y92607D01*
X12996Y92634D01*
X12968Y92676D01*
X12931Y92727D01*
X12899Y92783D01*
X12867Y92853D01*
X12834Y92922D01*
Y92927D01*
X12829Y92931D01*
X12825Y92959D01*
X12811Y92997D01*
X12797Y93052D01*
X12783Y93117D01*
X12774Y93191D01*
X12764Y93270D01*
X12760Y93358D01*
Y93363D01*
Y93372D01*
Y93386D01*
Y93405D01*
X12764Y93461D01*
X12769Y93525D01*
X12783Y93604D01*
X12797Y93688D01*
X12820Y93776D01*
X12848Y93864D01*
Y93869D01*
X12853Y93873D01*
X12867Y93901D01*
X12885Y93943D01*
X12913Y93999D01*
X12950Y94059D01*
X12996Y94124D01*
X13047Y94189D01*
X13103Y94254D01*
X13112Y94263D01*
X13131Y94282D01*
X13168Y94310D01*
X13215Y94347D01*
X13270Y94389D01*
X13335Y94430D01*
X13409Y94472D01*
X13493Y94509D01*
X13498D01*
X13502Y94514D01*
X13516Y94518D01*
X13535Y94523D01*
X13581Y94537D01*
X13641Y94555D01*
X13720Y94574D01*
X13804Y94588D01*
X13896Y94597D01*
X13999Y94602D01*
X14045D01*
X14073Y94597D01*
D02*
G37*
G36*
X26508Y91025D02*
X25715D01*
Y94542D01*
X26508D01*
Y91025D01*
D02*
G37*
G36*
X6398D02*
X5623D01*
Y93535D01*
X6398D01*
Y91025D01*
D02*
G37*
G36*
X4101Y93590D02*
X4148Y93586D01*
X4199Y93577D01*
X4259Y93567D01*
X4324Y93553D01*
X4389Y93539D01*
X4459Y93516D01*
X4528Y93488D01*
X4598Y93461D01*
X4668Y93419D01*
X4737Y93377D01*
X4797Y93326D01*
X4858Y93270D01*
X4862Y93266D01*
X4872Y93256D01*
X4886Y93238D01*
X4904Y93210D01*
X4927Y93177D01*
X4955Y93140D01*
X4978Y93089D01*
X5011Y93038D01*
X5039Y92978D01*
X5062Y92913D01*
X5090Y92839D01*
X5113Y92760D01*
X5132Y92676D01*
X5145Y92584D01*
X5155Y92486D01*
X5159Y92384D01*
Y92059D01*
X3522D01*
Y92054D01*
X3526Y92036D01*
X3531Y92008D01*
X3540Y91976D01*
X3549Y91934D01*
X3568Y91887D01*
X3591Y91837D01*
X3624Y91785D01*
X3661Y91734D01*
X3707Y91683D01*
X3763Y91637D01*
X3832Y91595D01*
X3907Y91563D01*
X3995Y91535D01*
X4097Y91516D01*
X4213Y91512D01*
X4255D01*
X4282Y91516D01*
X4320D01*
X4361Y91521D01*
X4408Y91530D01*
X4459Y91535D01*
X4570Y91558D01*
X4695Y91595D01*
X4821Y91642D01*
X4941Y91707D01*
Y91145D01*
X4937D01*
X4927Y91136D01*
X4904Y91127D01*
X4876Y91117D01*
X4844Y91103D01*
X4802Y91089D01*
X4751Y91071D01*
X4700Y91057D01*
X4635Y91038D01*
X4566Y91020D01*
X4491Y91006D01*
X4412Y90992D01*
X4329Y90983D01*
X4236Y90973D01*
X4139Y90964D01*
X4009D01*
X3976Y90969D01*
X3934D01*
X3883Y90973D01*
X3823Y90983D01*
X3758Y90992D01*
X3689Y91006D01*
X3614Y91025D01*
X3535Y91048D01*
X3457Y91071D01*
X3378Y91103D01*
X3303Y91145D01*
X3224Y91187D01*
X3155Y91238D01*
X3090Y91298D01*
X3085Y91303D01*
X3076Y91312D01*
X3057Y91335D01*
X3039Y91359D01*
X3011Y91396D01*
X2983Y91437D01*
X2955Y91488D01*
X2923Y91544D01*
X2891Y91605D01*
X2863Y91679D01*
X2835Y91753D01*
X2807Y91837D01*
X2788Y91929D01*
X2770Y92027D01*
X2761Y92129D01*
X2756Y92240D01*
Y92249D01*
Y92268D01*
X2761Y92300D01*
Y92342D01*
X2765Y92398D01*
X2774Y92458D01*
X2788Y92523D01*
X2802Y92597D01*
X2821Y92676D01*
X2844Y92755D01*
X2872Y92839D01*
X2909Y92922D01*
X2951Y93001D01*
X2997Y93080D01*
X3053Y93159D01*
X3118Y93229D01*
X3122Y93233D01*
X3136Y93242D01*
X3155Y93261D01*
X3183Y93284D01*
X3220Y93312D01*
X3262Y93344D01*
X3308Y93377D01*
X3364Y93414D01*
X3429Y93446D01*
X3494Y93479D01*
X3568Y93511D01*
X3647Y93539D01*
X3730Y93563D01*
X3819Y93581D01*
X3911Y93590D01*
X4009Y93595D01*
X4060D01*
X4101Y93590D01*
D02*
G37*
G36*
X8746Y94597D02*
X8797Y94593D01*
X8862Y94588D01*
X8936Y94574D01*
X9015Y94560D01*
X9108Y94542D01*
X9201Y94514D01*
X9298Y94481D01*
X9400Y94440D01*
X9503Y94393D01*
X9605Y94337D01*
X9702Y94268D01*
X9799Y94194D01*
X9888Y94105D01*
X9892Y94101D01*
X9906Y94082D01*
X9929Y94054D01*
X9962Y94017D01*
X9994Y93966D01*
X10036Y93906D01*
X10078Y93836D01*
X10124Y93757D01*
X10166Y93669D01*
X10208Y93572D01*
X10249Y93465D01*
X10282Y93349D01*
X10315Y93224D01*
X10338Y93094D01*
X10352Y92955D01*
X10356Y92806D01*
Y92797D01*
Y92769D01*
X10352Y92727D01*
X10347Y92672D01*
X10342Y92597D01*
X10328Y92519D01*
X10315Y92426D01*
X10296Y92328D01*
X10268Y92226D01*
X10236Y92115D01*
X10199Y92008D01*
X10152Y91892D01*
X10096Y91781D01*
X10031Y91674D01*
X9957Y91567D01*
X9869Y91470D01*
Y91465D01*
X9860Y91461D01*
X9837Y91433D01*
X9827Y91423D01*
X9809Y91405D01*
X10700Y90551D01*
X9591D01*
X9122Y91025D01*
X9117D01*
X9113Y91020D01*
X9099D01*
X9080Y91015D01*
X9034Y91006D01*
X8974Y90997D01*
X8895Y90983D01*
X8811Y90973D01*
X8718Y90969D01*
X8616Y90964D01*
X8584D01*
X8542Y90969D01*
X8491Y90973D01*
X8426Y90978D01*
X8352Y90992D01*
X8268Y91006D01*
X8180Y91025D01*
X8083Y91052D01*
X7981Y91085D01*
X7879Y91122D01*
X7776Y91168D01*
X7674Y91224D01*
X7572Y91289D01*
X7475Y91368D01*
X7382Y91451D01*
X7377Y91456D01*
X7363Y91474D01*
X7340Y91502D01*
X7308Y91540D01*
X7271Y91590D01*
X7233Y91651D01*
X7192Y91720D01*
X7145Y91799D01*
X7104Y91887D01*
X7057Y91985D01*
X7020Y92087D01*
X6983Y92203D01*
X6950Y92324D01*
X6927Y92454D01*
X6913Y92593D01*
X6909Y92737D01*
Y92741D01*
Y92746D01*
Y92774D01*
X6913Y92816D01*
X6918Y92876D01*
X6923Y92945D01*
X6937Y93029D01*
X6950Y93117D01*
X6969Y93214D01*
X6997Y93321D01*
X7025Y93428D01*
X7067Y93544D01*
X7113Y93655D01*
X7169Y93767D01*
X7233Y93878D01*
X7308Y93980D01*
X7391Y94082D01*
X7396Y94087D01*
X7414Y94105D01*
X7442Y94129D01*
X7479Y94166D01*
X7526Y94203D01*
X7586Y94245D01*
X7651Y94296D01*
X7730Y94342D01*
X7818Y94389D01*
X7916Y94440D01*
X8018Y94481D01*
X8134Y94523D01*
X8254Y94555D01*
X8389Y94579D01*
X8523Y94597D01*
X8672Y94602D01*
X8704D01*
X8746Y94597D01*
D02*
G37*
G36*
X92606Y111310D02*
X92672D01*
X92743Y111299D01*
X92819Y111288D01*
X92901Y111278D01*
X92972Y111256D01*
Y110546D01*
X92967Y110551D01*
X92945Y110557D01*
X92907Y110568D01*
X92863Y110584D01*
X92814Y110595D01*
X92754Y110606D01*
X92694Y110611D01*
X92634Y110617D01*
X92617D01*
X92595Y110611D01*
X92568D01*
X92497Y110590D01*
X92453Y110579D01*
X92415Y110557D01*
X92377Y110535D01*
X92333Y110502D01*
X92300Y110464D01*
X92268Y110415D01*
X92235Y110360D01*
X92213Y110300D01*
X92202Y110224D01*
X92197Y110142D01*
Y109825D01*
X92874D01*
Y109154D01*
X92197D01*
Y106871D01*
X91285D01*
Y109154D01*
X90788D01*
Y109825D01*
X91285D01*
Y110191D01*
Y110196D01*
Y110213D01*
Y110240D01*
X91290Y110273D01*
X91296Y110317D01*
X91301Y110366D01*
X91312Y110426D01*
X91329Y110486D01*
X91367Y110611D01*
X91394Y110682D01*
X91421Y110748D01*
X91460Y110813D01*
X91503Y110884D01*
X91553Y110944D01*
X91612Y111005D01*
X91618Y111010D01*
X91629Y111015D01*
X91645Y111032D01*
X91673Y111054D01*
X91705Y111075D01*
X91749Y111103D01*
X91793Y111130D01*
X91847Y111163D01*
X91913Y111190D01*
X91978Y111217D01*
X92049Y111245D01*
X92131Y111267D01*
X92219Y111288D01*
X92306Y111305D01*
X92404Y111310D01*
X92508Y111316D01*
X92557D01*
X92606Y111310D01*
D02*
G37*
G36*
X93851Y111228D02*
X93906Y111217D01*
X93966Y111201D01*
X94031Y111179D01*
X94091Y111146D01*
X94151Y111103D01*
X94157Y111097D01*
X94173Y111081D01*
X94201Y111048D01*
X94228Y111010D01*
X94250Y110961D01*
X94277Y110906D01*
X94293Y110841D01*
X94299Y110764D01*
Y110753D01*
Y110732D01*
X94293Y110693D01*
X94283Y110644D01*
X94261Y110590D01*
X94239Y110535D01*
X94201Y110480D01*
X94151Y110426D01*
X94146Y110420D01*
X94124Y110404D01*
X94091Y110382D01*
X94048Y110360D01*
X93993Y110338D01*
X93928Y110317D01*
X93851Y110300D01*
X93769Y110295D01*
X93731D01*
X93687Y110300D01*
X93638Y110311D01*
X93578Y110327D01*
X93513Y110355D01*
X93453Y110388D01*
X93392Y110431D01*
X93387Y110437D01*
X93371Y110459D01*
X93343Y110486D01*
X93322Y110524D01*
X93294Y110573D01*
X93267Y110628D01*
X93251Y110693D01*
X93245Y110764D01*
Y110775D01*
Y110797D01*
X93251Y110835D01*
X93261Y110884D01*
X93283Y110939D01*
X93305Y110994D01*
X93343Y111048D01*
X93392Y111103D01*
X93398Y111108D01*
X93420Y111125D01*
X93453Y111146D01*
X93496Y111168D01*
X93551Y111190D01*
X93616Y111212D01*
X93687Y111228D01*
X93769Y111234D01*
X93807D01*
X93851Y111228D01*
D02*
G37*
G36*
X89903D02*
X89958Y111217D01*
X90018Y111201D01*
X90084Y111179D01*
X90144Y111146D01*
X90204Y111103D01*
X90209Y111097D01*
X90226Y111081D01*
X90253Y111048D01*
X90280Y111010D01*
X90302Y110961D01*
X90329Y110906D01*
X90346Y110841D01*
X90351Y110764D01*
Y110753D01*
Y110732D01*
X90346Y110693D01*
X90335Y110644D01*
X90313Y110590D01*
X90291Y110535D01*
X90253Y110480D01*
X90204Y110426D01*
X90198Y110420D01*
X90176Y110404D01*
X90144Y110382D01*
X90100Y110360D01*
X90045Y110338D01*
X89980Y110317D01*
X89903Y110300D01*
X89822Y110295D01*
X89783D01*
X89740Y110300D01*
X89691Y110311D01*
X89631Y110327D01*
X89565Y110355D01*
X89505Y110388D01*
X89445Y110431D01*
X89439Y110437D01*
X89423Y110459D01*
X89396Y110486D01*
X89374Y110524D01*
X89347Y110573D01*
X89319Y110628D01*
X89303Y110693D01*
X89297Y110764D01*
Y110775D01*
Y110797D01*
X89303Y110835D01*
X89314Y110884D01*
X89336Y110939D01*
X89358Y110994D01*
X89396Y111048D01*
X89445Y111103D01*
X89450Y111108D01*
X89472Y111125D01*
X89505Y111146D01*
X89549Y111168D01*
X89603Y111190D01*
X89669Y111212D01*
X89740Y111228D01*
X89822Y111234D01*
X89860D01*
X89903Y111228D01*
D02*
G37*
G36*
X78350D02*
X78405Y111217D01*
X78465Y111201D01*
X78530Y111179D01*
X78590Y111146D01*
X78650Y111103D01*
X78656Y111097D01*
X78672Y111081D01*
X78700Y111048D01*
X78727Y111010D01*
X78749Y110961D01*
X78776Y110906D01*
X78792Y110841D01*
X78798Y110764D01*
Y110753D01*
Y110732D01*
X78792Y110693D01*
X78781Y110644D01*
X78760Y110590D01*
X78738Y110535D01*
X78700Y110480D01*
X78650Y110426D01*
X78645Y110420D01*
X78623Y110404D01*
X78590Y110382D01*
X78547Y110360D01*
X78492Y110338D01*
X78427Y110317D01*
X78350Y110300D01*
X78268Y110295D01*
X78230D01*
X78186Y110300D01*
X78137Y110311D01*
X78077Y110327D01*
X78012Y110355D01*
X77952Y110388D01*
X77891Y110431D01*
X77886Y110437D01*
X77870Y110459D01*
X77842Y110486D01*
X77821Y110524D01*
X77793Y110573D01*
X77766Y110628D01*
X77750Y110693D01*
X77744Y110764D01*
Y110775D01*
Y110797D01*
X77750Y110835D01*
X77760Y110884D01*
X77782Y110939D01*
X77804Y110994D01*
X77842Y111048D01*
X77891Y111103D01*
X77897Y111108D01*
X77919Y111125D01*
X77952Y111146D01*
X77995Y111168D01*
X78050Y111190D01*
X78115Y111212D01*
X78186Y111228D01*
X78268Y111234D01*
X78307D01*
X78350Y111228D01*
D02*
G37*
G36*
X66371D02*
X66426Y111217D01*
X66486Y111201D01*
X66551Y111179D01*
X66611Y111146D01*
X66671Y111103D01*
X66677Y111097D01*
X66693Y111081D01*
X66720Y111048D01*
X66748Y111010D01*
X66769Y110961D01*
X66797Y110906D01*
X66813Y110841D01*
X66819Y110764D01*
Y110753D01*
Y110732D01*
X66813Y110693D01*
X66802Y110644D01*
X66780Y110590D01*
X66759Y110535D01*
X66720Y110480D01*
X66671Y110426D01*
X66666Y110420D01*
X66644Y110404D01*
X66611Y110382D01*
X66567Y110360D01*
X66513Y110338D01*
X66447Y110317D01*
X66371Y110300D01*
X66289Y110295D01*
X66251D01*
X66207Y110300D01*
X66158Y110311D01*
X66098Y110327D01*
X66032Y110355D01*
X65972Y110388D01*
X65912Y110431D01*
X65907Y110437D01*
X65891Y110459D01*
X65863Y110486D01*
X65841Y110524D01*
X65814Y110573D01*
X65787Y110628D01*
X65770Y110693D01*
X65765Y110764D01*
Y110775D01*
Y110797D01*
X65770Y110835D01*
X65781Y110884D01*
X65803Y110939D01*
X65825Y110994D01*
X65863Y111048D01*
X65912Y111103D01*
X65918Y111108D01*
X65940Y111125D01*
X65972Y111146D01*
X66016Y111168D01*
X66071Y111190D01*
X66136Y111212D01*
X66207Y111228D01*
X66289Y111234D01*
X66327D01*
X66371Y111228D01*
D02*
G37*
G36*
X61113D02*
X61168Y111217D01*
X61228Y111201D01*
X61293Y111179D01*
X61353Y111146D01*
X61413Y111103D01*
X61419Y111097D01*
X61435Y111081D01*
X61462Y111048D01*
X61490Y111010D01*
X61511Y110961D01*
X61539Y110906D01*
X61555Y110841D01*
X61561Y110764D01*
Y110753D01*
Y110732D01*
X61555Y110693D01*
X61544Y110644D01*
X61523Y110590D01*
X61501Y110535D01*
X61462Y110480D01*
X61413Y110426D01*
X61408Y110420D01*
X61386Y110404D01*
X61353Y110382D01*
X61309Y110360D01*
X61255Y110338D01*
X61189Y110317D01*
X61113Y110300D01*
X61031Y110295D01*
X60993D01*
X60949Y110300D01*
X60900Y110311D01*
X60840Y110327D01*
X60774Y110355D01*
X60714Y110388D01*
X60654Y110431D01*
X60649Y110437D01*
X60632Y110459D01*
X60605Y110486D01*
X60583Y110524D01*
X60556Y110573D01*
X60529Y110628D01*
X60512Y110693D01*
X60507Y110764D01*
Y110775D01*
Y110797D01*
X60512Y110835D01*
X60523Y110884D01*
X60545Y110939D01*
X60567Y110994D01*
X60605Y111048D01*
X60654Y111103D01*
X60660Y111108D01*
X60682Y111125D01*
X60714Y111146D01*
X60758Y111168D01*
X60813Y111190D01*
X60878Y111212D01*
X60949Y111228D01*
X61031Y111234D01*
X61069D01*
X61113Y111228D01*
D02*
G37*
G36*
X47660D02*
X47714Y111217D01*
X47774Y111201D01*
X47840Y111179D01*
X47900Y111146D01*
X47960Y111103D01*
X47965Y111097D01*
X47982Y111081D01*
X48009Y111048D01*
X48036Y111010D01*
X48058Y110961D01*
X48085Y110906D01*
X48102Y110841D01*
X48107Y110764D01*
Y110753D01*
Y110732D01*
X48102Y110693D01*
X48091Y110644D01*
X48069Y110590D01*
X48047Y110535D01*
X48009Y110480D01*
X47960Y110426D01*
X47954Y110420D01*
X47932Y110404D01*
X47900Y110382D01*
X47856Y110360D01*
X47802Y110338D01*
X47736Y110317D01*
X47660Y110300D01*
X47578Y110295D01*
X47539D01*
X47496Y110300D01*
X47447Y110311D01*
X47387Y110327D01*
X47321Y110355D01*
X47261Y110388D01*
X47201Y110431D01*
X47195Y110437D01*
X47179Y110459D01*
X47152Y110486D01*
X47130Y110524D01*
X47103Y110573D01*
X47075Y110628D01*
X47059Y110693D01*
X47054Y110764D01*
Y110775D01*
Y110797D01*
X47059Y110835D01*
X47070Y110884D01*
X47092Y110939D01*
X47113Y110994D01*
X47152Y111048D01*
X47201Y111103D01*
X47206Y111108D01*
X47228Y111125D01*
X47261Y111146D01*
X47305Y111168D01*
X47359Y111190D01*
X47425Y111212D01*
X47496Y111228D01*
X47578Y111234D01*
X47616D01*
X47660Y111228D01*
D02*
G37*
G36*
X70843Y111075D02*
X70935Y111070D01*
X71028Y111065D01*
X71127Y111054D01*
X71225Y111037D01*
X71236D01*
X71269Y111032D01*
X71318Y111021D01*
X71378Y111010D01*
X71449Y110994D01*
X71525Y110972D01*
X71684Y110917D01*
Y110055D01*
X71678Y110060D01*
X71667Y110065D01*
X71645Y110082D01*
X71618Y110098D01*
X71580Y110120D01*
X71542Y110142D01*
X71454Y110186D01*
X71449D01*
X71432Y110196D01*
X71411Y110207D01*
X71378Y110218D01*
X71339Y110229D01*
X71296Y110246D01*
X71203Y110273D01*
X71198D01*
X71181Y110278D01*
X71154Y110284D01*
X71127Y110295D01*
X71083Y110306D01*
X71045Y110311D01*
X70946Y110327D01*
X70941D01*
X70925Y110333D01*
X70903D01*
X70870Y110338D01*
X70832D01*
X70788Y110344D01*
X70646D01*
X70608Y110338D01*
X70559D01*
X70510Y110333D01*
X70411Y110311D01*
X70406D01*
X70389Y110306D01*
X70368Y110300D01*
X70335Y110289D01*
X70264Y110267D01*
X70193Y110229D01*
X70187D01*
X70177Y110218D01*
X70144Y110191D01*
X70100Y110153D01*
X70056Y110098D01*
Y110093D01*
X70051Y110087D01*
X70040Y110071D01*
X70035Y110049D01*
X70013Y109994D01*
X70007Y109929D01*
Y109924D01*
Y109913D01*
X70013Y109891D01*
Y109863D01*
X70029Y109803D01*
X70062Y109738D01*
Y109732D01*
X70073Y109722D01*
X70084Y109711D01*
X70100Y109689D01*
X70149Y109634D01*
X70215Y109580D01*
X70220Y109574D01*
X70231Y109569D01*
X70253Y109552D01*
X70286Y109536D01*
X70319Y109514D01*
X70362Y109492D01*
X70460Y109438D01*
X70466Y109432D01*
X70488Y109427D01*
X70515Y109410D01*
X70559Y109394D01*
X70608Y109372D01*
X70662Y109350D01*
X70723Y109323D01*
X70788Y109296D01*
X70794D01*
X70799Y109290D01*
X70832Y109279D01*
X70876Y109257D01*
X70941Y109230D01*
X71007Y109197D01*
X71083Y109159D01*
X71236Y109072D01*
X71247Y109066D01*
X71269Y109050D01*
X71307Y109028D01*
X71351Y108995D01*
X71405Y108957D01*
X71460Y108913D01*
X71574Y108810D01*
X71580Y108804D01*
X71596Y108782D01*
X71623Y108755D01*
X71656Y108711D01*
X71689Y108662D01*
X71727Y108602D01*
X71760Y108542D01*
X71793Y108471D01*
X71798Y108460D01*
X71804Y108438D01*
X71815Y108400D01*
X71831Y108346D01*
X71847Y108285D01*
X71858Y108209D01*
X71864Y108127D01*
X71869Y108034D01*
Y108029D01*
Y108018D01*
Y108002D01*
Y107974D01*
X71864Y107947D01*
Y107914D01*
X71853Y107832D01*
X71836Y107739D01*
X71809Y107641D01*
X71776Y107543D01*
X71733Y107450D01*
X71727Y107439D01*
X71711Y107412D01*
X71678Y107368D01*
X71640Y107314D01*
X71591Y107254D01*
X71525Y107188D01*
X71460Y107128D01*
X71378Y107068D01*
X71367Y107062D01*
X71339Y107046D01*
X71290Y107019D01*
X71230Y106992D01*
X71154Y106959D01*
X71061Y106921D01*
X70963Y106893D01*
X70854Y106866D01*
X70843D01*
X70826Y106860D01*
X70805Y106855D01*
X70739Y106844D01*
X70662Y106833D01*
X70570Y106822D01*
X70460Y106811D01*
X70346Y106806D01*
X70226Y106800D01*
X70138D01*
X70100Y106806D01*
X70018D01*
X69915Y106811D01*
X69805Y106822D01*
X69576Y106855D01*
X69570D01*
X69565Y106860D01*
X69549D01*
X69527Y106866D01*
X69467Y106877D01*
X69396Y106899D01*
X69308Y106921D01*
X69221Y106953D01*
X69128Y106986D01*
X69041Y107030D01*
Y107952D01*
X69046D01*
X69052Y107941D01*
X69085Y107920D01*
X69134Y107881D01*
X69205Y107832D01*
X69287Y107783D01*
X69379Y107729D01*
X69478Y107679D01*
X69587Y107636D01*
X69592D01*
X69598Y107630D01*
X69614Y107625D01*
X69636Y107619D01*
X69696Y107603D01*
X69772Y107587D01*
X69860Y107565D01*
X69964Y107548D01*
X70073Y107537D01*
X70182Y107532D01*
X70242D01*
X70286Y107537D01*
X70335D01*
X70384Y107543D01*
X70488Y107559D01*
X70493D01*
X70510Y107565D01*
X70537Y107570D01*
X70570Y107581D01*
X70641Y107608D01*
X70712Y107647D01*
X70717Y107652D01*
X70728Y107658D01*
X70761Y107685D01*
X70805Y107729D01*
X70843Y107783D01*
Y107789D01*
X70848Y107794D01*
X70859Y107810D01*
X70864Y107832D01*
X70881Y107887D01*
X70886Y107947D01*
Y107952D01*
Y107969D01*
X70881Y107991D01*
X70876Y108018D01*
X70859Y108089D01*
X70837Y108122D01*
X70815Y108160D01*
X70810Y108165D01*
X70805Y108176D01*
X70788Y108198D01*
X70766Y108220D01*
X70739Y108247D01*
X70706Y108280D01*
X70624Y108340D01*
X70619Y108346D01*
X70602Y108356D01*
X70575Y108373D01*
X70542Y108389D01*
X70504Y108416D01*
X70455Y108444D01*
X70400Y108471D01*
X70340Y108498D01*
X70335Y108504D01*
X70313Y108509D01*
X70280Y108526D01*
X70237Y108548D01*
X70182Y108569D01*
X70122Y108597D01*
X70056Y108624D01*
X69986Y108651D01*
X69980D01*
X69964Y108662D01*
X69942Y108673D01*
X69904Y108689D01*
X69865Y108706D01*
X69822Y108733D01*
X69713Y108788D01*
X69592Y108859D01*
X69472Y108946D01*
X69358Y109039D01*
X69308Y109088D01*
X69259Y109143D01*
Y109148D01*
X69248Y109154D01*
X69238Y109176D01*
X69221Y109197D01*
X69205Y109225D01*
X69183Y109257D01*
X69145Y109339D01*
X69101Y109443D01*
X69063Y109563D01*
X69035Y109700D01*
X69030Y109771D01*
X69024Y109847D01*
Y109853D01*
Y109863D01*
Y109880D01*
Y109902D01*
X69030Y109962D01*
X69041Y110038D01*
X69057Y110126D01*
X69079Y110218D01*
X69112Y110311D01*
X69156Y110404D01*
Y110409D01*
X69161Y110415D01*
X69177Y110442D01*
X69210Y110486D01*
X69248Y110540D01*
X69297Y110600D01*
X69363Y110666D01*
X69428Y110726D01*
X69511Y110786D01*
X69521Y110792D01*
X69549Y110813D01*
X69598Y110841D01*
X69658Y110873D01*
X69734Y110906D01*
X69822Y110944D01*
X69920Y110983D01*
X70029Y111010D01*
X70035D01*
X70040Y111015D01*
X70056D01*
X70078Y111021D01*
X70138Y111032D01*
X70220Y111048D01*
X70313Y111059D01*
X70417Y111070D01*
X70531Y111075D01*
X70652Y111081D01*
X70766D01*
X70843Y111075D01*
D02*
G37*
G36*
X7905D02*
X7998Y111070D01*
X8091Y111065D01*
X8189Y111054D01*
X8287Y111037D01*
X8298D01*
X8331Y111032D01*
X8380Y111021D01*
X8440Y111010D01*
X8511Y110994D01*
X8588Y110972D01*
X8746Y110917D01*
Y110055D01*
X8741Y110060D01*
X8730Y110065D01*
X8708Y110082D01*
X8681Y110098D01*
X8642Y110120D01*
X8604Y110142D01*
X8517Y110186D01*
X8511D01*
X8495Y110196D01*
X8473Y110207D01*
X8440Y110218D01*
X8402Y110229D01*
X8359Y110246D01*
X8266Y110273D01*
X8260D01*
X8244Y110278D01*
X8217Y110284D01*
X8189Y110295D01*
X8145Y110306D01*
X8107Y110311D01*
X8009Y110327D01*
X8004D01*
X7987Y110333D01*
X7965D01*
X7933Y110338D01*
X7894D01*
X7851Y110344D01*
X7709D01*
X7671Y110338D01*
X7621D01*
X7572Y110333D01*
X7474Y110311D01*
X7468D01*
X7452Y110306D01*
X7430Y110300D01*
X7397Y110289D01*
X7327Y110267D01*
X7255Y110229D01*
X7250D01*
X7239Y110218D01*
X7206Y110191D01*
X7163Y110153D01*
X7119Y110098D01*
Y110093D01*
X7114Y110087D01*
X7103Y110071D01*
X7097Y110049D01*
X7075Y109994D01*
X7070Y109929D01*
Y109924D01*
Y109913D01*
X7075Y109891D01*
Y109863D01*
X7092Y109803D01*
X7124Y109738D01*
Y109732D01*
X7135Y109722D01*
X7146Y109711D01*
X7163Y109689D01*
X7212Y109634D01*
X7277Y109580D01*
X7283Y109574D01*
X7294Y109569D01*
X7316Y109552D01*
X7348Y109536D01*
X7381Y109514D01*
X7425Y109492D01*
X7523Y109438D01*
X7529Y109432D01*
X7550Y109427D01*
X7578Y109410D01*
X7621Y109394D01*
X7671Y109372D01*
X7725Y109350D01*
X7785Y109323D01*
X7851Y109296D01*
X7856D01*
X7862Y109290D01*
X7894Y109279D01*
X7938Y109257D01*
X8004Y109230D01*
X8069Y109197D01*
X8145Y109159D01*
X8298Y109072D01*
X8309Y109066D01*
X8331Y109050D01*
X8369Y109028D01*
X8413Y108995D01*
X8468Y108957D01*
X8522Y108913D01*
X8637Y108810D01*
X8642Y108804D01*
X8659Y108782D01*
X8686Y108755D01*
X8719Y108711D01*
X8752Y108662D01*
X8790Y108602D01*
X8822Y108542D01*
X8855Y108471D01*
X8861Y108460D01*
X8866Y108438D01*
X8877Y108400D01*
X8894Y108346D01*
X8910Y108285D01*
X8921Y108209D01*
X8926Y108127D01*
X8932Y108034D01*
Y108029D01*
Y108018D01*
Y108002D01*
Y107974D01*
X8926Y107947D01*
Y107914D01*
X8915Y107832D01*
X8899Y107739D01*
X8872Y107641D01*
X8839Y107543D01*
X8795Y107450D01*
X8790Y107439D01*
X8773Y107412D01*
X8741Y107368D01*
X8702Y107314D01*
X8653Y107254D01*
X8588Y107188D01*
X8522Y107128D01*
X8440Y107068D01*
X8429Y107062D01*
X8402Y107046D01*
X8353Y107019D01*
X8293Y106992D01*
X8217Y106959D01*
X8124Y106921D01*
X8025Y106893D01*
X7916Y106866D01*
X7905D01*
X7889Y106860D01*
X7867Y106855D01*
X7801Y106844D01*
X7725Y106833D01*
X7632Y106822D01*
X7523Y106811D01*
X7408Y106806D01*
X7288Y106800D01*
X7201D01*
X7163Y106806D01*
X7081D01*
X6977Y106811D01*
X6868Y106822D01*
X6639Y106855D01*
X6633D01*
X6628Y106860D01*
X6611D01*
X6589Y106866D01*
X6529Y106877D01*
X6458Y106899D01*
X6371Y106921D01*
X6284Y106953D01*
X6191Y106986D01*
X6103Y107030D01*
Y107952D01*
X6109D01*
X6114Y107941D01*
X6147Y107920D01*
X6196Y107881D01*
X6267Y107832D01*
X6349Y107783D01*
X6442Y107729D01*
X6540Y107679D01*
X6650Y107636D01*
X6655D01*
X6660Y107630D01*
X6677Y107625D01*
X6699Y107619D01*
X6759Y107603D01*
X6835Y107587D01*
X6922Y107565D01*
X7026Y107548D01*
X7135Y107537D01*
X7245Y107532D01*
X7305D01*
X7348Y107537D01*
X7397D01*
X7447Y107543D01*
X7550Y107559D01*
X7556D01*
X7572Y107565D01*
X7599Y107570D01*
X7632Y107581D01*
X7703Y107608D01*
X7774Y107647D01*
X7780Y107652D01*
X7791Y107658D01*
X7823Y107685D01*
X7867Y107729D01*
X7905Y107783D01*
Y107789D01*
X7911Y107794D01*
X7922Y107810D01*
X7927Y107832D01*
X7943Y107887D01*
X7949Y107947D01*
Y107952D01*
Y107969D01*
X7943Y107991D01*
X7938Y108018D01*
X7922Y108089D01*
X7900Y108122D01*
X7878Y108160D01*
X7873Y108165D01*
X7867Y108176D01*
X7851Y108198D01*
X7829Y108220D01*
X7801Y108247D01*
X7769Y108280D01*
X7687Y108340D01*
X7681Y108346D01*
X7665Y108356D01*
X7638Y108373D01*
X7605Y108389D01*
X7567Y108416D01*
X7518Y108444D01*
X7463Y108471D01*
X7403Y108498D01*
X7397Y108504D01*
X7376Y108509D01*
X7343Y108526D01*
X7299Y108548D01*
X7245Y108569D01*
X7185Y108597D01*
X7119Y108624D01*
X7048Y108651D01*
X7043D01*
X7026Y108662D01*
X7004Y108673D01*
X6966Y108689D01*
X6928Y108706D01*
X6884Y108733D01*
X6775Y108788D01*
X6655Y108859D01*
X6535Y108946D01*
X6420Y109039D01*
X6371Y109088D01*
X6322Y109143D01*
Y109148D01*
X6311Y109154D01*
X6300Y109176D01*
X6284Y109197D01*
X6267Y109225D01*
X6245Y109257D01*
X6207Y109339D01*
X6163Y109443D01*
X6125Y109563D01*
X6098Y109700D01*
X6092Y109771D01*
X6087Y109847D01*
Y109853D01*
Y109863D01*
Y109880D01*
Y109902D01*
X6092Y109962D01*
X6103Y110038D01*
X6120Y110126D01*
X6142Y110218D01*
X6174Y110311D01*
X6218Y110404D01*
Y110409D01*
X6224Y110415D01*
X6240Y110442D01*
X6273Y110486D01*
X6311Y110540D01*
X6360Y110600D01*
X6426Y110666D01*
X6491Y110726D01*
X6573Y110786D01*
X6584Y110792D01*
X6611Y110813D01*
X6660Y110841D01*
X6720Y110873D01*
X6797Y110906D01*
X6884Y110944D01*
X6983Y110983D01*
X7092Y111010D01*
X7097D01*
X7103Y111015D01*
X7119D01*
X7141Y111021D01*
X7201Y111032D01*
X7283Y111048D01*
X7376Y111059D01*
X7479Y111070D01*
X7594Y111075D01*
X7714Y111081D01*
X7829D01*
X7905Y111075D01*
D02*
G37*
G36*
X108790Y106871D02*
X107878D01*
Y107275D01*
X107861D01*
X107856Y107270D01*
X107845Y107254D01*
X107829Y107232D01*
X107801Y107199D01*
X107769Y107166D01*
X107730Y107128D01*
X107687Y107084D01*
X107632Y107041D01*
X107572Y106992D01*
X107501Y106953D01*
X107430Y106910D01*
X107348Y106877D01*
X107255Y106844D01*
X107163Y106822D01*
X107059Y106806D01*
X106950Y106800D01*
X106895D01*
X106857Y106806D01*
X106808Y106811D01*
X106753Y106822D01*
X106693Y106833D01*
X106628Y106850D01*
X106556Y106871D01*
X106486Y106893D01*
X106415Y106926D01*
X106338Y106964D01*
X106262Y107008D01*
X106191Y107062D01*
X106120Y107123D01*
X106054Y107188D01*
X106049Y107194D01*
X106038Y107204D01*
X106021Y107232D01*
X106005Y107259D01*
X105978Y107303D01*
X105950Y107352D01*
X105918Y107406D01*
X105890Y107472D01*
X105858Y107548D01*
X105825Y107630D01*
X105798Y107718D01*
X105776Y107816D01*
X105754Y107920D01*
X105738Y108034D01*
X105727Y108154D01*
X105721Y108280D01*
Y108291D01*
Y108313D01*
Y108351D01*
X105727Y108400D01*
X105732Y108466D01*
X105743Y108537D01*
X105754Y108613D01*
X105770Y108701D01*
X105814Y108886D01*
X105841Y108984D01*
X105879Y109083D01*
X105923Y109181D01*
X105972Y109279D01*
X106027Y109367D01*
X106093Y109454D01*
X106098Y109459D01*
X106109Y109476D01*
X106131Y109498D01*
X106158Y109525D01*
X106196Y109558D01*
X106240Y109596D01*
X106295Y109634D01*
X106354Y109678D01*
X106420Y109716D01*
X106497Y109754D01*
X106573Y109792D01*
X106660Y109825D01*
X106753Y109858D01*
X106851Y109880D01*
X106961Y109891D01*
X107070Y109896D01*
X107124D01*
X107163Y109891D01*
X107206Y109885D01*
X107261Y109874D01*
X107381Y109847D01*
X107447Y109825D01*
X107512Y109798D01*
X107578Y109765D01*
X107643Y109722D01*
X107703Y109678D01*
X107763Y109623D01*
X107818Y109558D01*
X107861Y109487D01*
X107878D01*
Y111245D01*
X108790D01*
Y106871D01*
D02*
G37*
G36*
X74424Y109891D02*
X74474Y109885D01*
X74528Y109874D01*
X74594Y109863D01*
X74659Y109847D01*
X74725Y109825D01*
X74801Y109798D01*
X74872Y109771D01*
X74949Y109732D01*
X75020Y109683D01*
X75091Y109634D01*
X75156Y109574D01*
X75216Y109503D01*
X75222Y109498D01*
X75232Y109487D01*
X75243Y109465D01*
X75265Y109432D01*
X75287Y109394D01*
X75314Y109345D01*
X75347Y109285D01*
X75375Y109225D01*
X75402Y109148D01*
X75435Y109072D01*
X75462Y108979D01*
X75484Y108886D01*
X75506Y108782D01*
X75522Y108673D01*
X75527Y108558D01*
X75533Y108433D01*
Y108422D01*
Y108400D01*
Y108362D01*
X75527Y108313D01*
X75522Y108247D01*
X75511Y108176D01*
X75500Y108094D01*
X75489Y108007D01*
X75445Y107816D01*
X75413Y107718D01*
X75380Y107619D01*
X75336Y107521D01*
X75287Y107423D01*
X75232Y107330D01*
X75167Y107243D01*
X75161Y107237D01*
X75151Y107226D01*
X75129Y107204D01*
X75102Y107172D01*
X75063Y107139D01*
X75020Y107101D01*
X74965Y107062D01*
X74910Y107024D01*
X74845Y106981D01*
X74768Y106942D01*
X74692Y106904D01*
X74605Y106871D01*
X74512Y106844D01*
X74414Y106822D01*
X74304Y106806D01*
X74195Y106800D01*
X74173D01*
X74146Y106806D01*
X74108D01*
X74064Y106811D01*
X74010Y106822D01*
X73955Y106833D01*
X73895Y106850D01*
X73829Y106871D01*
X73764Y106899D01*
X73693Y106931D01*
X73627Y106975D01*
X73562Y107019D01*
X73496Y107073D01*
X73436Y107139D01*
X73382Y107210D01*
X73371D01*
Y105512D01*
X72459D01*
Y109825D01*
X73371D01*
Y109383D01*
X73382D01*
X73387Y109388D01*
X73398Y109405D01*
X73414Y109432D01*
X73442Y109465D01*
X73480Y109503D01*
X73524Y109547D01*
X73573Y109590D01*
X73627Y109640D01*
X73693Y109689D01*
X73764Y109732D01*
X73840Y109776D01*
X73928Y109814D01*
X74015Y109847D01*
X74113Y109874D01*
X74222Y109891D01*
X74332Y109896D01*
X74386D01*
X74424Y109891D01*
D02*
G37*
G36*
X64220D02*
X64280Y109880D01*
X64356Y109858D01*
X64438Y109831D01*
X64526Y109792D01*
X64618Y109743D01*
X64711Y109678D01*
X64798Y109601D01*
X64880Y109503D01*
X64957Y109383D01*
X64990Y109317D01*
X65017Y109241D01*
X65044Y109165D01*
X65066Y109083D01*
X65088Y108990D01*
X65099Y108892D01*
X65110Y108788D01*
Y108679D01*
Y106871D01*
X64198D01*
Y108509D01*
Y108515D01*
Y108537D01*
X64192Y108575D01*
Y108619D01*
X64182Y108668D01*
X64171Y108728D01*
X64154Y108788D01*
X64138Y108853D01*
X64110Y108919D01*
X64078Y108979D01*
X64039Y109039D01*
X63990Y109088D01*
X63936Y109132D01*
X63870Y109170D01*
X63794Y109192D01*
X63706Y109197D01*
X63668D01*
X63625Y109186D01*
X63570Y109176D01*
X63510Y109154D01*
X63444Y109121D01*
X63379Y109077D01*
X63319Y109017D01*
X63313Y109012D01*
X63297Y108984D01*
X63270Y108946D01*
X63242Y108892D01*
X63215Y108826D01*
X63188Y108744D01*
X63171Y108657D01*
X63166Y108553D01*
Y106871D01*
X62254D01*
Y109825D01*
X63166D01*
Y109356D01*
X63177D01*
X63182Y109361D01*
X63193Y109378D01*
X63210Y109405D01*
X63237Y109443D01*
X63270Y109481D01*
X63313Y109525D01*
X63362Y109574D01*
X63417Y109629D01*
X63483Y109678D01*
X63554Y109727D01*
X63630Y109771D01*
X63717Y109814D01*
X63810Y109847D01*
X63908Y109874D01*
X64012Y109891D01*
X64127Y109896D01*
X64171D01*
X64220Y109891D01*
D02*
G37*
G36*
X16821Y106871D02*
X15888D01*
Y108553D01*
X14173D01*
Y106871D01*
X13240D01*
Y111010D01*
X14173D01*
Y109356D01*
X15888D01*
Y111010D01*
X16821D01*
Y106871D01*
D02*
G37*
G36*
X25115Y109891D02*
X25181Y109880D01*
X25252Y109858D01*
X25334Y109836D01*
X25421Y109798D01*
X25514Y109749D01*
X25601Y109683D01*
X25688Y109607D01*
X25770Y109509D01*
X25841Y109394D01*
X25874Y109328D01*
X25907Y109257D01*
X25929Y109181D01*
X25951Y109099D01*
X25972Y109012D01*
X25983Y108913D01*
X25994Y108815D01*
Y108706D01*
Y106871D01*
X25082D01*
Y108553D01*
Y108558D01*
Y108580D01*
X25077Y108613D01*
Y108651D01*
X25066Y108701D01*
X25055Y108755D01*
X25044Y108815D01*
X25022Y108875D01*
X25001Y108935D01*
X24968Y108995D01*
X24930Y109050D01*
X24880Y109099D01*
X24826Y109137D01*
X24766Y109170D01*
X24689Y109192D01*
X24607Y109197D01*
X24597D01*
X24569Y109192D01*
X24531Y109186D01*
X24476Y109176D01*
X24422Y109148D01*
X24356Y109115D01*
X24296Y109066D01*
X24242Y109001D01*
X24236Y108990D01*
X24220Y108968D01*
X24198Y108924D01*
X24171Y108870D01*
X24143Y108799D01*
X24122Y108722D01*
X24105Y108630D01*
X24100Y108526D01*
Y106871D01*
X23188D01*
Y108575D01*
Y108580D01*
Y108602D01*
X23182Y108635D01*
Y108673D01*
X23171Y108717D01*
X23166Y108771D01*
X23128Y108886D01*
X23106Y108946D01*
X23073Y109001D01*
X23035Y109055D01*
X22991Y109099D01*
X22937Y109143D01*
X22877Y109170D01*
X22806Y109192D01*
X22724Y109197D01*
X22685D01*
X22642Y109186D01*
X22587Y109176D01*
X22527Y109154D01*
X22467Y109121D01*
X22402Y109072D01*
X22347Y109012D01*
X22342Y109001D01*
X22325Y108979D01*
X22303Y108935D01*
X22282Y108881D01*
X22254Y108810D01*
X22232Y108722D01*
X22216Y108624D01*
X22210Y108509D01*
Y106871D01*
X21299D01*
Y109825D01*
X22210D01*
Y109361D01*
X22221D01*
Y109367D01*
X22227Y109372D01*
X22249Y109399D01*
X22282Y109443D01*
X22325Y109498D01*
X22380Y109563D01*
X22451Y109629D01*
X22527Y109689D01*
X22620Y109749D01*
X22625D01*
X22631Y109754D01*
X22664Y109771D01*
X22718Y109798D01*
X22784Y109825D01*
X22871Y109847D01*
X22964Y109874D01*
X23068Y109891D01*
X23177Y109896D01*
X23204D01*
X23237Y109891D01*
X23281Y109885D01*
X23330Y109880D01*
X23390Y109869D01*
X23450Y109853D01*
X23521Y109825D01*
X23592Y109798D01*
X23663Y109760D01*
X23734Y109716D01*
X23805Y109661D01*
X23870Y109601D01*
X23930Y109525D01*
X23985Y109443D01*
X24034Y109345D01*
X24040Y109350D01*
X24050Y109367D01*
X24072Y109394D01*
X24100Y109432D01*
X24132Y109470D01*
X24176Y109520D01*
X24225Y109569D01*
X24285Y109623D01*
X24351Y109672D01*
X24427Y109722D01*
X24509Y109771D01*
X24597Y109809D01*
X24695Y109847D01*
X24799Y109874D01*
X24908Y109891D01*
X25028Y109896D01*
X25071D01*
X25115Y109891D01*
D02*
G37*
G36*
X46551Y109874D02*
X46622Y109863D01*
X46660Y109853D01*
X46693Y109842D01*
Y109001D01*
X46688Y109006D01*
X46666Y109017D01*
X46628Y109028D01*
X46584Y109050D01*
X46529Y109066D01*
X46464Y109077D01*
X46393Y109088D01*
X46311Y109094D01*
X46284D01*
X46262Y109088D01*
X46207Y109083D01*
X46142Y109066D01*
X46065Y109039D01*
X45989Y109001D01*
X45912Y108946D01*
X45841Y108875D01*
X45836Y108864D01*
X45814Y108837D01*
X45792Y108788D01*
X45759Y108717D01*
X45732Y108635D01*
X45705Y108531D01*
X45683Y108416D01*
X45678Y108280D01*
Y106871D01*
X44766D01*
Y109825D01*
X45678D01*
Y109279D01*
X45689D01*
X45694Y109285D01*
X45699Y109307D01*
X45710Y109334D01*
X45732Y109372D01*
X45754Y109421D01*
X45787Y109470D01*
X45825Y109525D01*
X45869Y109580D01*
X45918Y109634D01*
X45978Y109689D01*
X46038Y109743D01*
X46109Y109787D01*
X46191Y109825D01*
X46273Y109853D01*
X46365Y109874D01*
X46469Y109880D01*
X46518D01*
X46551Y109874D01*
D02*
G37*
G36*
X41239Y109891D02*
X41288D01*
X41402Y109880D01*
X41522Y109863D01*
X41648Y109836D01*
X41768Y109803D01*
X41817Y109782D01*
X41866Y109760D01*
Y108984D01*
X41861D01*
X41855Y108995D01*
X41839Y109006D01*
X41817Y109017D01*
X41757Y109050D01*
X41681Y109094D01*
X41588Y109132D01*
X41479Y109165D01*
X41359Y109186D01*
X41228Y109197D01*
X41189D01*
X41162Y109192D01*
X41129D01*
X41091Y109186D01*
X41004Y109170D01*
X40905Y109143D01*
X40802Y109099D01*
X40698Y109044D01*
X40605Y108968D01*
X40594Y108957D01*
X40567Y108924D01*
X40534Y108875D01*
X40491Y108804D01*
X40447Y108711D01*
X40414Y108602D01*
X40387Y108477D01*
X40376Y108335D01*
Y108329D01*
Y108318D01*
Y108296D01*
X40381Y108269D01*
Y108236D01*
X40387Y108198D01*
X40403Y108111D01*
X40431Y108012D01*
X40469Y107909D01*
X40523Y107810D01*
X40594Y107718D01*
X40605Y107707D01*
X40638Y107685D01*
X40687Y107647D01*
X40753Y107608D01*
X40840Y107565D01*
X40944Y107527D01*
X41064Y107505D01*
X41200Y107494D01*
X41233D01*
X41260Y107499D01*
X41288D01*
X41326Y107505D01*
X41413Y107521D01*
X41512Y107548D01*
X41626Y107581D01*
X41746Y107636D01*
X41866Y107707D01*
Y106975D01*
X41861D01*
X41850Y106970D01*
X41834Y106959D01*
X41812Y106948D01*
X41779Y106937D01*
X41741Y106921D01*
X41692Y106904D01*
X41643Y106888D01*
X41583Y106871D01*
X41517Y106855D01*
X41441Y106839D01*
X41364Y106828D01*
X41277Y106817D01*
X41184Y106806D01*
X41080Y106800D01*
X40949D01*
X40911Y106806D01*
X40862D01*
X40807Y106811D01*
X40736Y106822D01*
X40665Y106833D01*
X40583Y106850D01*
X40496Y106871D01*
X40409Y106899D01*
X40316Y106931D01*
X40223Y106975D01*
X40130Y107019D01*
X40043Y107073D01*
X39955Y107139D01*
X39874Y107210D01*
X39868Y107215D01*
X39857Y107232D01*
X39835Y107254D01*
X39808Y107286D01*
X39775Y107325D01*
X39742Y107374D01*
X39704Y107434D01*
X39666Y107499D01*
X39622Y107570D01*
X39584Y107652D01*
X39551Y107739D01*
X39519Y107832D01*
X39491Y107936D01*
X39470Y108040D01*
X39459Y108154D01*
X39453Y108275D01*
Y108285D01*
Y108307D01*
X39459Y108346D01*
Y108400D01*
X39470Y108460D01*
X39475Y108537D01*
X39491Y108619D01*
X39508Y108706D01*
X39535Y108799D01*
X39562Y108897D01*
X39601Y108995D01*
X39644Y109094D01*
X39693Y109192D01*
X39753Y109285D01*
X39824Y109378D01*
X39901Y109459D01*
X39906Y109465D01*
X39923Y109476D01*
X39950Y109498D01*
X39983Y109530D01*
X40032Y109563D01*
X40086Y109596D01*
X40147Y109640D01*
X40223Y109678D01*
X40305Y109716D01*
X40398Y109760D01*
X40496Y109792D01*
X40605Y109831D01*
X40720Y109858D01*
X40845Y109880D01*
X40977Y109891D01*
X41113Y109896D01*
X41200D01*
X41239Y109891D01*
D02*
G37*
G36*
X101430Y106871D02*
X100512D01*
Y109345D01*
Y109350D01*
Y109361D01*
Y109383D01*
Y109416D01*
Y109454D01*
Y109498D01*
X100518Y109552D01*
Y109607D01*
Y109672D01*
Y109738D01*
X100529Y109891D01*
X100534Y110055D01*
X100545Y110235D01*
X100523D01*
Y110229D01*
X100518Y110218D01*
Y110196D01*
X100512Y110175D01*
X100507Y110142D01*
X100496Y110104D01*
X100480Y110022D01*
X100458Y109934D01*
X100436Y109842D01*
X100414Y109754D01*
X100392Y109683D01*
X99420Y106871D01*
X98661D01*
X97673Y109656D01*
Y109661D01*
X97668Y109683D01*
X97657Y109716D01*
X97646Y109738D01*
X97640Y109771D01*
X97629Y109803D01*
X97624Y109847D01*
X97613Y109891D01*
X97602Y109945D01*
X97586Y110005D01*
X97575Y110076D01*
X97558Y110153D01*
X97542Y110235D01*
X97515D01*
Y110229D01*
Y110207D01*
X97520Y110175D01*
Y110131D01*
X97526Y110076D01*
Y110016D01*
X97531Y109945D01*
X97537Y109869D01*
X97542Y109700D01*
X97548Y109520D01*
X97553Y109339D01*
Y109159D01*
Y106871D01*
X96712D01*
Y111010D01*
X98077D01*
X98923Y108553D01*
Y108548D01*
X98929Y108542D01*
X98934Y108526D01*
X98940Y108504D01*
X98956Y108444D01*
X98984Y108367D01*
X99005Y108280D01*
X99027Y108182D01*
X99054Y108073D01*
X99071Y107963D01*
X99087D01*
Y107969D01*
X99093Y107980D01*
X99098Y107996D01*
X99104Y108023D01*
X99109Y108051D01*
X99120Y108083D01*
X99142Y108165D01*
X99164Y108258D01*
X99191Y108362D01*
X99224Y108460D01*
X99256Y108558D01*
X100103Y111010D01*
X101430D01*
Y106871D01*
D02*
G37*
G36*
X59721D02*
X58803D01*
Y109345D01*
Y109350D01*
Y109361D01*
Y109383D01*
Y109416D01*
Y109454D01*
Y109498D01*
X58809Y109552D01*
Y109607D01*
Y109672D01*
Y109738D01*
X58820Y109891D01*
X58825Y110055D01*
X58836Y110235D01*
X58814D01*
Y110229D01*
X58809Y110218D01*
Y110196D01*
X58803Y110175D01*
X58798Y110142D01*
X58787Y110104D01*
X58771Y110022D01*
X58749Y109934D01*
X58727Y109842D01*
X58705Y109754D01*
X58683Y109683D01*
X57711Y106871D01*
X56952D01*
X55964Y109656D01*
Y109661D01*
X55959Y109683D01*
X55948Y109716D01*
X55937Y109738D01*
X55931Y109771D01*
X55920Y109803D01*
X55915Y109847D01*
X55904Y109891D01*
X55893Y109945D01*
X55877Y110005D01*
X55866Y110076D01*
X55849Y110153D01*
X55833Y110235D01*
X55806D01*
Y110229D01*
Y110207D01*
X55811Y110175D01*
Y110131D01*
X55817Y110076D01*
Y110016D01*
X55822Y109945D01*
X55828Y109869D01*
X55833Y109700D01*
X55839Y109520D01*
X55844Y109339D01*
Y109159D01*
Y106871D01*
X55003D01*
Y111010D01*
X56368D01*
X57214Y108553D01*
Y108548D01*
X57220Y108542D01*
X57226Y108526D01*
X57231Y108504D01*
X57247Y108444D01*
X57275Y108367D01*
X57296Y108280D01*
X57318Y108182D01*
X57346Y108073D01*
X57362Y107963D01*
X57378D01*
Y107969D01*
X57384Y107980D01*
X57389Y107996D01*
X57395Y108023D01*
X57400Y108051D01*
X57411Y108083D01*
X57433Y108165D01*
X57455Y108258D01*
X57482Y108362D01*
X57515Y108460D01*
X57548Y108558D01*
X58394Y111010D01*
X59721D01*
Y106871D01*
D02*
G37*
G36*
X87834D02*
X86802D01*
X86114Y109525D01*
Y109536D01*
X86103Y109563D01*
X86098Y109607D01*
X86087Y109661D01*
X86076Y109727D01*
X86065Y109809D01*
X86054Y109896D01*
X86049Y109989D01*
X86032D01*
Y109984D01*
Y109978D01*
Y109962D01*
X86027Y109940D01*
X86022Y109891D01*
X86016Y109825D01*
X86005Y109749D01*
X85994Y109672D01*
X85978Y109596D01*
X85961Y109525D01*
X85257Y106871D01*
X84176D01*
X83090Y111010D01*
X84110D01*
X84695Y108253D01*
Y108247D01*
X84700Y108220D01*
X84706Y108182D01*
X84716Y108127D01*
X84722Y108062D01*
X84733Y107980D01*
X84738Y107887D01*
X84749Y107778D01*
X84766D01*
Y107789D01*
X84771Y107816D01*
Y107865D01*
X84782Y107925D01*
X84793Y107996D01*
X84804Y108078D01*
X84826Y108165D01*
X84848Y108264D01*
X85601Y111010D01*
X86600D01*
X87277Y108231D01*
Y108225D01*
X87283Y108204D01*
X87294Y108165D01*
X87299Y108116D01*
X87310Y108056D01*
X87321Y107980D01*
X87332Y107887D01*
X87343Y107783D01*
X87354D01*
Y107794D01*
Y107821D01*
X87359Y107870D01*
X87365Y107925D01*
X87376Y107996D01*
X87387Y108078D01*
X87397Y108160D01*
X87414Y108247D01*
X87987Y111010D01*
X88926D01*
X87834Y106871D01*
D02*
G37*
G36*
X112366D02*
X111460D01*
Y107319D01*
X111443D01*
X111438Y107314D01*
X111427Y107297D01*
X111410Y107270D01*
X111383Y107237D01*
X111350Y107199D01*
X111307Y107155D01*
X111258Y107106D01*
X111203Y107062D01*
X111143Y107013D01*
X111077Y106964D01*
X111001Y106921D01*
X110919Y106882D01*
X110837Y106850D01*
X110744Y106822D01*
X110646Y106806D01*
X110542Y106800D01*
X110499D01*
X110450Y106811D01*
X110384Y106822D01*
X110302Y106839D01*
X110215Y106866D01*
X110122Y106904D01*
X110029Y106953D01*
X109931Y107019D01*
X109838Y107101D01*
X109751Y107204D01*
X109674Y107325D01*
X109636Y107390D01*
X109603Y107466D01*
X109576Y107543D01*
X109554Y107630D01*
X109538Y107723D01*
X109521Y107821D01*
X109516Y107925D01*
X109510Y108040D01*
Y109825D01*
X110422D01*
Y108122D01*
Y108116D01*
Y108094D01*
X110428Y108062D01*
Y108023D01*
X110439Y107974D01*
X110450Y107925D01*
X110466Y107865D01*
X110482Y107810D01*
X110510Y107750D01*
X110542Y107690D01*
X110586Y107641D01*
X110630Y107592D01*
X110690Y107554D01*
X110755Y107521D01*
X110832Y107499D01*
X110919Y107494D01*
X110930D01*
X110957Y107499D01*
X111006Y107505D01*
X111061Y107516D01*
X111121Y107537D01*
X111187Y107565D01*
X111252Y107608D01*
X111312Y107663D01*
X111318Y107674D01*
X111334Y107696D01*
X111361Y107734D01*
X111389Y107789D01*
X111410Y107854D01*
X111438Y107936D01*
X111454Y108029D01*
X111460Y108133D01*
Y109825D01*
X112366D01*
Y106871D01*
D02*
G37*
G36*
X114048D02*
X113136D01*
Y111245D01*
X114048D01*
Y106871D01*
D02*
G37*
G36*
X94222D02*
X93311D01*
Y109825D01*
X94222D01*
Y106871D01*
D02*
G37*
G36*
X90275D02*
X89363D01*
Y109825D01*
X90275D01*
Y106871D01*
D02*
G37*
G36*
X78721D02*
X77810D01*
Y109825D01*
X78721D01*
Y106871D01*
D02*
G37*
G36*
X77040D02*
X76128D01*
Y111245D01*
X77040D01*
Y106871D01*
D02*
G37*
G36*
X66742D02*
X65830D01*
Y109825D01*
X66742D01*
Y106871D01*
D02*
G37*
G36*
X61484D02*
X60572D01*
Y109825D01*
X61484D01*
Y106871D01*
D02*
G37*
G36*
X48031D02*
X47119D01*
Y109825D01*
X48031D01*
Y106871D01*
D02*
G37*
G36*
X35658D02*
X34747D01*
Y111245D01*
X35658D01*
Y106871D01*
D02*
G37*
G36*
X11176Y111005D02*
X11214Y110999D01*
X11263Y110994D01*
X11318Y110988D01*
X11432Y110972D01*
X11569Y110939D01*
X11705Y110901D01*
X11853Y110846D01*
X12000Y110775D01*
X12142Y110688D01*
X12273Y110579D01*
X12333Y110519D01*
X12388Y110453D01*
X12443Y110382D01*
X12492Y110300D01*
X12530Y110218D01*
X12568Y110126D01*
X12595Y110027D01*
X12617Y109924D01*
X12628Y109809D01*
X12634Y109689D01*
Y109683D01*
Y109661D01*
X12628Y109629D01*
Y109585D01*
X12623Y109530D01*
X12612Y109470D01*
X12595Y109405D01*
X12579Y109328D01*
X12552Y109252D01*
X12524Y109170D01*
X12486Y109083D01*
X12443Y109001D01*
X12393Y108913D01*
X12333Y108832D01*
X12262Y108755D01*
X12186Y108679D01*
X12180Y108673D01*
X12164Y108662D01*
X12142Y108646D01*
X12104Y108619D01*
X12060Y108591D01*
X12006Y108558D01*
X11940Y108526D01*
X11869Y108487D01*
X11787Y108455D01*
X11694Y108416D01*
X11596Y108384D01*
X11492Y108356D01*
X11378Y108329D01*
X11252Y108313D01*
X11121Y108302D01*
X10985Y108296D01*
X10542D01*
Y106871D01*
X9609D01*
Y111010D01*
X11138D01*
X11176Y111005D01*
D02*
G37*
G36*
X5541Y110251D02*
X4083D01*
Y109328D01*
X5437D01*
Y108575D01*
X4083D01*
Y107625D01*
X5634D01*
Y106871D01*
X3150D01*
Y111010D01*
X5541D01*
Y110251D01*
D02*
G37*
G36*
X116226Y109891D02*
X116281Y109885D01*
X116341Y109874D01*
X116412Y109863D01*
X116488Y109847D01*
X116565Y109831D01*
X116647Y109803D01*
X116728Y109771D01*
X116810Y109738D01*
X116892Y109689D01*
X116974Y109640D01*
X117045Y109580D01*
X117116Y109514D01*
X117122Y109509D01*
X117133Y109498D01*
X117149Y109476D01*
X117171Y109443D01*
X117198Y109405D01*
X117231Y109361D01*
X117258Y109301D01*
X117296Y109241D01*
X117329Y109170D01*
X117356Y109094D01*
X117389Y109006D01*
X117417Y108913D01*
X117438Y108815D01*
X117455Y108706D01*
X117466Y108591D01*
X117471Y108471D01*
Y108089D01*
X115544D01*
Y108083D01*
X115549Y108062D01*
X115555Y108029D01*
X115566Y107991D01*
X115577Y107941D01*
X115598Y107887D01*
X115626Y107827D01*
X115664Y107767D01*
X115708Y107707D01*
X115762Y107647D01*
X115828Y107592D01*
X115910Y107543D01*
X115997Y107505D01*
X116101Y107472D01*
X116221Y107450D01*
X116357Y107445D01*
X116406D01*
X116439Y107450D01*
X116483D01*
X116532Y107456D01*
X116587Y107466D01*
X116647Y107472D01*
X116778Y107499D01*
X116925Y107543D01*
X117072Y107597D01*
X117215Y107674D01*
Y107013D01*
X117209D01*
X117198Y107002D01*
X117171Y106992D01*
X117138Y106981D01*
X117100Y106964D01*
X117051Y106948D01*
X116991Y106926D01*
X116930Y106910D01*
X116854Y106888D01*
X116772Y106866D01*
X116685Y106850D01*
X116592Y106833D01*
X116494Y106822D01*
X116384Y106811D01*
X116270Y106800D01*
X116117D01*
X116079Y106806D01*
X116030D01*
X115970Y106811D01*
X115899Y106822D01*
X115822Y106833D01*
X115740Y106850D01*
X115653Y106871D01*
X115560Y106899D01*
X115467Y106926D01*
X115375Y106964D01*
X115287Y107013D01*
X115194Y107062D01*
X115112Y107123D01*
X115036Y107194D01*
X115031Y107199D01*
X115020Y107210D01*
X114998Y107237D01*
X114976Y107264D01*
X114943Y107308D01*
X114910Y107357D01*
X114878Y107417D01*
X114839Y107483D01*
X114801Y107554D01*
X114768Y107641D01*
X114736Y107729D01*
X114703Y107827D01*
X114681Y107936D01*
X114659Y108051D01*
X114648Y108171D01*
X114643Y108302D01*
Y108313D01*
Y108335D01*
X114648Y108373D01*
Y108422D01*
X114654Y108487D01*
X114665Y108558D01*
X114681Y108635D01*
X114697Y108722D01*
X114719Y108815D01*
X114747Y108908D01*
X114779Y109006D01*
X114823Y109105D01*
X114872Y109197D01*
X114927Y109290D01*
X114992Y109383D01*
X115069Y109465D01*
X115074Y109470D01*
X115091Y109481D01*
X115112Y109503D01*
X115145Y109530D01*
X115189Y109563D01*
X115238Y109601D01*
X115293Y109640D01*
X115358Y109683D01*
X115435Y109722D01*
X115511Y109760D01*
X115598Y109798D01*
X115691Y109831D01*
X115789Y109858D01*
X115893Y109880D01*
X116002Y109891D01*
X116117Y109896D01*
X116177D01*
X116226Y109891D01*
D02*
G37*
G36*
X103848D02*
X103914Y109885D01*
X103985Y109874D01*
X104061Y109863D01*
X104149Y109847D01*
X104242Y109825D01*
X104334Y109792D01*
X104433Y109760D01*
X104525Y109722D01*
X104624Y109672D01*
X104717Y109618D01*
X104804Y109552D01*
X104886Y109481D01*
X104891Y109476D01*
X104902Y109465D01*
X104924Y109438D01*
X104951Y109405D01*
X104984Y109367D01*
X105017Y109312D01*
X105055Y109257D01*
X105099Y109192D01*
X105137Y109115D01*
X105175Y109034D01*
X105208Y108941D01*
X105241Y108848D01*
X105268Y108744D01*
X105290Y108630D01*
X105301Y108515D01*
X105306Y108389D01*
Y108378D01*
Y108356D01*
Y108318D01*
X105301Y108269D01*
X105295Y108204D01*
X105284Y108133D01*
X105268Y108056D01*
X105252Y107969D01*
X105230Y107876D01*
X105202Y107783D01*
X105164Y107685D01*
X105121Y107587D01*
X105071Y107494D01*
X105011Y107401D01*
X104946Y107308D01*
X104869Y107226D01*
X104864Y107221D01*
X104848Y107210D01*
X104826Y107188D01*
X104793Y107161D01*
X104749Y107128D01*
X104695Y107090D01*
X104629Y107052D01*
X104558Y107013D01*
X104482Y106975D01*
X104394Y106937D01*
X104296Y106899D01*
X104192Y106866D01*
X104078Y106839D01*
X103958Y106817D01*
X103826Y106806D01*
X103690Y106800D01*
X103657D01*
X103619Y106806D01*
X103570D01*
X103504Y106811D01*
X103433Y106822D01*
X103357Y106833D01*
X103270Y106850D01*
X103177Y106871D01*
X103084Y106899D01*
X102986Y106931D01*
X102887Y106975D01*
X102795Y107019D01*
X102702Y107073D01*
X102609Y107139D01*
X102527Y107210D01*
X102522Y107215D01*
X102511Y107232D01*
X102489Y107254D01*
X102462Y107286D01*
X102429Y107330D01*
X102396Y107379D01*
X102358Y107439D01*
X102320Y107505D01*
X102276Y107581D01*
X102238Y107668D01*
X102205Y107761D01*
X102172Y107860D01*
X102145Y107969D01*
X102123Y108083D01*
X102112Y108204D01*
X102107Y108335D01*
Y108346D01*
Y108367D01*
X102112Y108406D01*
Y108455D01*
X102118Y108515D01*
X102129Y108586D01*
X102145Y108668D01*
X102161Y108755D01*
X102183Y108842D01*
X102216Y108935D01*
X102249Y109034D01*
X102292Y109126D01*
X102341Y109219D01*
X102401Y109312D01*
X102467Y109399D01*
X102543Y109481D01*
X102549Y109487D01*
X102565Y109498D01*
X102587Y109520D01*
X102625Y109547D01*
X102669Y109580D01*
X102724Y109612D01*
X102784Y109651D01*
X102855Y109689D01*
X102937Y109727D01*
X103024Y109765D01*
X103122Y109798D01*
X103226Y109831D01*
X103341Y109858D01*
X103461Y109880D01*
X103592Y109891D01*
X103728Y109896D01*
X103799D01*
X103848Y109891D01*
D02*
G37*
G36*
X80616Y109825D02*
X81277D01*
Y109154D01*
X80616D01*
Y107958D01*
Y107952D01*
Y107936D01*
Y107914D01*
X80622Y107887D01*
X80638Y107810D01*
X80660Y107729D01*
X80703Y107641D01*
X80736Y107603D01*
X80769Y107565D01*
X80813Y107537D01*
X80862Y107516D01*
X80916Y107499D01*
X80982Y107494D01*
X81009D01*
X81037Y107499D01*
X81075Y107505D01*
X81118Y107516D01*
X81168Y107532D01*
X81222Y107554D01*
X81277Y107581D01*
Y106904D01*
X81266Y106899D01*
X81239Y106888D01*
X81189Y106871D01*
X81124Y106855D01*
X81042Y106833D01*
X80938Y106817D01*
X80813Y106806D01*
X80671Y106800D01*
X80627D01*
X80583Y106806D01*
X80518Y106817D01*
X80447Y106833D01*
X80365Y106855D01*
X80278Y106882D01*
X80190Y106926D01*
X80097Y106981D01*
X80010Y107046D01*
X79928Y107123D01*
X79857Y107221D01*
X79792Y107335D01*
X79748Y107472D01*
X79726Y107543D01*
X79715Y107625D01*
X79710Y107707D01*
X79704Y107799D01*
Y109154D01*
X79224D01*
Y109825D01*
X79704D01*
Y110464D01*
X80616Y110721D01*
Y109825D01*
D02*
G37*
G36*
X43592D02*
X44252D01*
Y109154D01*
X43592D01*
Y107958D01*
Y107952D01*
Y107936D01*
Y107914D01*
X43597Y107887D01*
X43614Y107810D01*
X43635Y107729D01*
X43679Y107641D01*
X43712Y107603D01*
X43745Y107565D01*
X43788Y107537D01*
X43837Y107516D01*
X43892Y107499D01*
X43958Y107494D01*
X43985D01*
X44012Y107499D01*
X44050Y107505D01*
X44094Y107516D01*
X44143Y107532D01*
X44198Y107554D01*
X44252Y107581D01*
Y106904D01*
X44242Y106899D01*
X44214Y106888D01*
X44165Y106871D01*
X44100Y106855D01*
X44018Y106833D01*
X43914Y106817D01*
X43788Y106806D01*
X43646Y106800D01*
X43603D01*
X43559Y106806D01*
X43494Y106817D01*
X43423Y106833D01*
X43341Y106855D01*
X43253Y106882D01*
X43166Y106926D01*
X43073Y106981D01*
X42986Y107046D01*
X42904Y107123D01*
X42833Y107221D01*
X42767Y107335D01*
X42724Y107472D01*
X42702Y107543D01*
X42691Y107625D01*
X42685Y107707D01*
X42680Y107799D01*
Y109154D01*
X42200D01*
Y109825D01*
X42680D01*
Y110464D01*
X43592Y110721D01*
Y109825D01*
D02*
G37*
G36*
X37837Y109891D02*
X37892Y109885D01*
X37952Y109874D01*
X38023Y109863D01*
X38099Y109847D01*
X38175Y109831D01*
X38257Y109803D01*
X38339Y109771D01*
X38421Y109738D01*
X38503Y109689D01*
X38585Y109640D01*
X38656Y109580D01*
X38727Y109514D01*
X38732Y109509D01*
X38743Y109498D01*
X38760Y109476D01*
X38782Y109443D01*
X38809Y109405D01*
X38842Y109361D01*
X38869Y109301D01*
X38907Y109241D01*
X38940Y109170D01*
X38967Y109094D01*
X39000Y109006D01*
X39027Y108913D01*
X39049Y108815D01*
X39066Y108706D01*
X39076Y108591D01*
X39082Y108471D01*
Y108089D01*
X37154D01*
Y108083D01*
X37160Y108062D01*
X37165Y108029D01*
X37176Y107991D01*
X37187Y107941D01*
X37209Y107887D01*
X37236Y107827D01*
X37275Y107767D01*
X37318Y107707D01*
X37373Y107647D01*
X37438Y107592D01*
X37520Y107543D01*
X37608Y107505D01*
X37711Y107472D01*
X37832Y107450D01*
X37968Y107445D01*
X38017D01*
X38050Y107450D01*
X38094D01*
X38143Y107456D01*
X38197Y107466D01*
X38257Y107472D01*
X38388Y107499D01*
X38536Y107543D01*
X38683Y107597D01*
X38825Y107674D01*
Y107013D01*
X38820D01*
X38809Y107002D01*
X38782Y106992D01*
X38749Y106981D01*
X38711Y106964D01*
X38662Y106948D01*
X38601Y106926D01*
X38541Y106910D01*
X38465Y106888D01*
X38383Y106866D01*
X38296Y106850D01*
X38203Y106833D01*
X38105Y106822D01*
X37995Y106811D01*
X37881Y106800D01*
X37728D01*
X37690Y106806D01*
X37640D01*
X37580Y106811D01*
X37509Y106822D01*
X37433Y106833D01*
X37351Y106850D01*
X37264Y106871D01*
X37171Y106899D01*
X37078Y106926D01*
X36985Y106964D01*
X36898Y107013D01*
X36805Y107062D01*
X36723Y107123D01*
X36647Y107194D01*
X36641Y107199D01*
X36630Y107210D01*
X36608Y107237D01*
X36587Y107264D01*
X36554Y107308D01*
X36521Y107357D01*
X36488Y107417D01*
X36450Y107483D01*
X36412Y107554D01*
X36379Y107641D01*
X36346Y107729D01*
X36314Y107827D01*
X36292Y107936D01*
X36270Y108051D01*
X36259Y108171D01*
X36254Y108302D01*
Y108313D01*
Y108335D01*
X36259Y108373D01*
Y108422D01*
X36265Y108487D01*
X36275Y108558D01*
X36292Y108635D01*
X36308Y108722D01*
X36330Y108815D01*
X36357Y108908D01*
X36390Y109006D01*
X36434Y109105D01*
X36483Y109197D01*
X36538Y109290D01*
X36603Y109383D01*
X36680Y109465D01*
X36685Y109470D01*
X36701Y109481D01*
X36723Y109503D01*
X36756Y109530D01*
X36800Y109563D01*
X36849Y109601D01*
X36903Y109640D01*
X36969Y109683D01*
X37045Y109722D01*
X37122Y109760D01*
X37209Y109798D01*
X37302Y109831D01*
X37400Y109858D01*
X37504Y109880D01*
X37613Y109891D01*
X37728Y109896D01*
X37788D01*
X37837Y109891D01*
D02*
G37*
G36*
X32956D02*
X33010Y109885D01*
X33070Y109874D01*
X33141Y109863D01*
X33218Y109847D01*
X33294Y109831D01*
X33376Y109803D01*
X33458Y109771D01*
X33540Y109738D01*
X33622Y109689D01*
X33704Y109640D01*
X33775Y109580D01*
X33846Y109514D01*
X33851Y109509D01*
X33862Y109498D01*
X33878Y109476D01*
X33900Y109443D01*
X33928Y109405D01*
X33960Y109361D01*
X33988Y109301D01*
X34026Y109241D01*
X34059Y109170D01*
X34086Y109094D01*
X34119Y109006D01*
X34146Y108913D01*
X34168Y108815D01*
X34184Y108706D01*
X34195Y108591D01*
X34201Y108471D01*
Y108089D01*
X32273D01*
Y108083D01*
X32279Y108062D01*
X32284Y108029D01*
X32295Y107991D01*
X32306Y107941D01*
X32328Y107887D01*
X32355Y107827D01*
X32393Y107767D01*
X32437Y107707D01*
X32492Y107647D01*
X32557Y107592D01*
X32639Y107543D01*
X32726Y107505D01*
X32830Y107472D01*
X32950Y107450D01*
X33087Y107445D01*
X33136D01*
X33169Y107450D01*
X33212D01*
X33261Y107456D01*
X33316Y107466D01*
X33376Y107472D01*
X33507Y107499D01*
X33655Y107543D01*
X33802Y107597D01*
X33944Y107674D01*
Y107013D01*
X33939D01*
X33928Y107002D01*
X33900Y106992D01*
X33868Y106981D01*
X33829Y106964D01*
X33780Y106948D01*
X33720Y106926D01*
X33660Y106910D01*
X33584Y106888D01*
X33502Y106866D01*
X33414Y106850D01*
X33322Y106833D01*
X33223Y106822D01*
X33114Y106811D01*
X32999Y106800D01*
X32847D01*
X32808Y106806D01*
X32759D01*
X32699Y106811D01*
X32628Y106822D01*
X32552Y106833D01*
X32470Y106850D01*
X32383Y106871D01*
X32290Y106899D01*
X32197Y106926D01*
X32104Y106964D01*
X32017Y107013D01*
X31924Y107062D01*
X31842Y107123D01*
X31765Y107194D01*
X31760Y107199D01*
X31749Y107210D01*
X31727Y107237D01*
X31705Y107264D01*
X31673Y107308D01*
X31640Y107357D01*
X31607Y107417D01*
X31569Y107483D01*
X31531Y107554D01*
X31498Y107641D01*
X31465Y107729D01*
X31432Y107827D01*
X31411Y107936D01*
X31389Y108051D01*
X31378Y108171D01*
X31372Y108302D01*
Y108313D01*
Y108335D01*
X31378Y108373D01*
Y108422D01*
X31383Y108487D01*
X31394Y108558D01*
X31411Y108635D01*
X31427Y108722D01*
X31449Y108815D01*
X31476Y108908D01*
X31509Y109006D01*
X31552Y109105D01*
X31602Y109197D01*
X31656Y109290D01*
X31722Y109383D01*
X31798Y109465D01*
X31804Y109470D01*
X31820Y109481D01*
X31842Y109503D01*
X31875Y109530D01*
X31918Y109563D01*
X31967Y109601D01*
X32022Y109640D01*
X32088Y109683D01*
X32164Y109722D01*
X32241Y109760D01*
X32328Y109798D01*
X32421Y109831D01*
X32519Y109858D01*
X32623Y109880D01*
X32732Y109891D01*
X32847Y109896D01*
X32907D01*
X32956Y109891D01*
D02*
G37*
G36*
X28124D02*
X28178Y109885D01*
X28238Y109874D01*
X28309Y109863D01*
X28386Y109847D01*
X28462Y109831D01*
X28544Y109803D01*
X28626Y109771D01*
X28708Y109738D01*
X28790Y109689D01*
X28872Y109640D01*
X28943Y109580D01*
X29014Y109514D01*
X29019Y109509D01*
X29030Y109498D01*
X29046Y109476D01*
X29068Y109443D01*
X29096Y109405D01*
X29128Y109361D01*
X29156Y109301D01*
X29194Y109241D01*
X29227Y109170D01*
X29254Y109094D01*
X29287Y109006D01*
X29314Y108913D01*
X29336Y108815D01*
X29352Y108706D01*
X29363Y108591D01*
X29368Y108471D01*
Y108089D01*
X27441D01*
Y108083D01*
X27447Y108062D01*
X27452Y108029D01*
X27463Y107991D01*
X27474Y107941D01*
X27496Y107887D01*
X27523Y107827D01*
X27561Y107767D01*
X27605Y107707D01*
X27660Y107647D01*
X27725Y107592D01*
X27807Y107543D01*
X27894Y107505D01*
X27998Y107472D01*
X28118Y107450D01*
X28255Y107445D01*
X28304D01*
X28337Y107450D01*
X28380D01*
X28429Y107456D01*
X28484Y107466D01*
X28544Y107472D01*
X28675Y107499D01*
X28822Y107543D01*
X28970Y107597D01*
X29112Y107674D01*
Y107013D01*
X29107D01*
X29096Y107002D01*
X29068Y106992D01*
X29035Y106981D01*
X28997Y106964D01*
X28948Y106948D01*
X28888Y106926D01*
X28828Y106910D01*
X28752Y106888D01*
X28670Y106866D01*
X28582Y106850D01*
X28490Y106833D01*
X28391Y106822D01*
X28282Y106811D01*
X28167Y106800D01*
X28014D01*
X27976Y106806D01*
X27927D01*
X27867Y106811D01*
X27796Y106822D01*
X27720Y106833D01*
X27638Y106850D01*
X27550Y106871D01*
X27457Y106899D01*
X27365Y106926D01*
X27272Y106964D01*
X27185Y107013D01*
X27092Y107062D01*
X27010Y107123D01*
X26933Y107194D01*
X26928Y107199D01*
X26917Y107210D01*
X26895Y107237D01*
X26873Y107264D01*
X26841Y107308D01*
X26808Y107357D01*
X26775Y107417D01*
X26737Y107483D01*
X26699Y107554D01*
X26666Y107641D01*
X26633Y107729D01*
X26600Y107827D01*
X26579Y107936D01*
X26557Y108051D01*
X26546Y108171D01*
X26540Y108302D01*
Y108313D01*
Y108335D01*
X26546Y108373D01*
Y108422D01*
X26551Y108487D01*
X26562Y108558D01*
X26579Y108635D01*
X26595Y108722D01*
X26617Y108815D01*
X26644Y108908D01*
X26677Y109006D01*
X26720Y109105D01*
X26770Y109197D01*
X26824Y109290D01*
X26890Y109383D01*
X26966Y109465D01*
X26972Y109470D01*
X26988Y109481D01*
X27010Y109503D01*
X27043Y109530D01*
X27086Y109563D01*
X27135Y109601D01*
X27190Y109640D01*
X27255Y109683D01*
X27332Y109722D01*
X27408Y109760D01*
X27496Y109798D01*
X27589Y109831D01*
X27687Y109858D01*
X27791Y109880D01*
X27900Y109891D01*
X28014Y109896D01*
X28074D01*
X28124Y109891D01*
D02*
G37*
G36*
X19251D02*
X19317Y109885D01*
X19388Y109874D01*
X19464Y109863D01*
X19551Y109847D01*
X19644Y109825D01*
X19737Y109792D01*
X19835Y109760D01*
X19928Y109722D01*
X20027Y109672D01*
X20119Y109618D01*
X20207Y109552D01*
X20289Y109481D01*
X20294Y109476D01*
X20305Y109465D01*
X20327Y109438D01*
X20354Y109405D01*
X20387Y109367D01*
X20420Y109312D01*
X20458Y109257D01*
X20502Y109192D01*
X20540Y109115D01*
X20578Y109034D01*
X20611Y108941D01*
X20643Y108848D01*
X20671Y108744D01*
X20693Y108630D01*
X20704Y108515D01*
X20709Y108389D01*
Y108378D01*
Y108356D01*
Y108318D01*
X20704Y108269D01*
X20698Y108204D01*
X20687Y108133D01*
X20671Y108056D01*
X20654Y107969D01*
X20632Y107876D01*
X20605Y107783D01*
X20567Y107685D01*
X20523Y107587D01*
X20474Y107494D01*
X20414Y107401D01*
X20349Y107308D01*
X20272Y107226D01*
X20267Y107221D01*
X20250Y107210D01*
X20229Y107188D01*
X20196Y107161D01*
X20152Y107128D01*
X20098Y107090D01*
X20032Y107052D01*
X19961Y107013D01*
X19884Y106975D01*
X19797Y106937D01*
X19699Y106899D01*
X19595Y106866D01*
X19480Y106839D01*
X19360Y106817D01*
X19229Y106806D01*
X19093Y106800D01*
X19060D01*
X19022Y106806D01*
X18973D01*
X18907Y106811D01*
X18836Y106822D01*
X18760Y106833D01*
X18672Y106850D01*
X18580Y106871D01*
X18487Y106899D01*
X18388Y106931D01*
X18290Y106975D01*
X18197Y107019D01*
X18105Y107073D01*
X18012Y107139D01*
X17930Y107210D01*
X17924Y107215D01*
X17913Y107232D01*
X17892Y107254D01*
X17864Y107286D01*
X17831Y107330D01*
X17799Y107379D01*
X17761Y107439D01*
X17722Y107505D01*
X17679Y107581D01*
X17640Y107668D01*
X17608Y107761D01*
X17575Y107860D01*
X17548Y107969D01*
X17526Y108083D01*
X17515Y108204D01*
X17509Y108335D01*
Y108346D01*
Y108367D01*
X17515Y108406D01*
Y108455D01*
X17520Y108515D01*
X17531Y108586D01*
X17548Y108668D01*
X17564Y108755D01*
X17586Y108842D01*
X17619Y108935D01*
X17651Y109034D01*
X17695Y109126D01*
X17744Y109219D01*
X17804Y109312D01*
X17870Y109399D01*
X17946Y109481D01*
X17952Y109487D01*
X17968Y109498D01*
X17990Y109520D01*
X18028Y109547D01*
X18072Y109580D01*
X18126Y109612D01*
X18186Y109651D01*
X18257Y109689D01*
X18339Y109727D01*
X18427Y109765D01*
X18525Y109798D01*
X18629Y109831D01*
X18743Y109858D01*
X18864Y109880D01*
X18994Y109891D01*
X19131Y109896D01*
X19202D01*
X19251Y109891D01*
D02*
G37*
G36*
X50794Y111075D02*
X50854Y111070D01*
X50930Y111065D01*
X51017Y111048D01*
X51110Y111032D01*
X51219Y111010D01*
X51329Y110977D01*
X51443Y110939D01*
X51563Y110890D01*
X51684Y110835D01*
X51804Y110770D01*
X51918Y110688D01*
X52033Y110600D01*
X52137Y110497D01*
X52142Y110491D01*
X52159Y110469D01*
X52186Y110437D01*
X52224Y110393D01*
X52262Y110333D01*
X52311Y110262D01*
X52361Y110180D01*
X52415Y110087D01*
X52464Y109984D01*
X52513Y109869D01*
X52563Y109743D01*
X52601Y109607D01*
X52639Y109459D01*
X52666Y109307D01*
X52683Y109143D01*
X52688Y108968D01*
Y108957D01*
Y108924D01*
X52683Y108875D01*
X52677Y108810D01*
X52672Y108722D01*
X52655Y108630D01*
X52639Y108520D01*
X52617Y108406D01*
X52584Y108285D01*
X52546Y108154D01*
X52503Y108029D01*
X52448Y107892D01*
X52382Y107761D01*
X52306Y107636D01*
X52219Y107510D01*
X52115Y107396D01*
Y107390D01*
X52104Y107385D01*
X52077Y107352D01*
X52066Y107341D01*
X52044Y107319D01*
X53092Y106314D01*
X51787D01*
X51236Y106871D01*
X51230D01*
X51225Y106866D01*
X51209D01*
X51187Y106860D01*
X51132Y106850D01*
X51061Y106839D01*
X50968Y106822D01*
X50870Y106811D01*
X50761Y106806D01*
X50641Y106800D01*
X50603D01*
X50553Y106806D01*
X50493Y106811D01*
X50417Y106817D01*
X50330Y106833D01*
X50231Y106850D01*
X50127Y106871D01*
X50013Y106904D01*
X49893Y106942D01*
X49773Y106986D01*
X49652Y107041D01*
X49532Y107106D01*
X49412Y107183D01*
X49297Y107275D01*
X49188Y107374D01*
X49183Y107379D01*
X49167Y107401D01*
X49139Y107434D01*
X49101Y107477D01*
X49057Y107537D01*
X49014Y107608D01*
X48965Y107690D01*
X48910Y107783D01*
X48861Y107887D01*
X48806Y108002D01*
X48763Y108122D01*
X48719Y108258D01*
X48680Y108400D01*
X48653Y108553D01*
X48637Y108717D01*
X48631Y108886D01*
Y108892D01*
Y108897D01*
Y108930D01*
X48637Y108979D01*
X48642Y109050D01*
X48648Y109132D01*
X48664Y109230D01*
X48680Y109334D01*
X48702Y109449D01*
X48735Y109574D01*
X48768Y109700D01*
X48817Y109836D01*
X48872Y109967D01*
X48937Y110098D01*
X49014Y110229D01*
X49101Y110349D01*
X49199Y110469D01*
X49205Y110475D01*
X49226Y110497D01*
X49259Y110524D01*
X49303Y110568D01*
X49358Y110611D01*
X49429Y110661D01*
X49505Y110721D01*
X49598Y110775D01*
X49702Y110830D01*
X49816Y110890D01*
X49936Y110939D01*
X50073Y110988D01*
X50215Y111026D01*
X50373Y111054D01*
X50532Y111075D01*
X50706Y111081D01*
X50744D01*
X50794Y111075D01*
D02*
G37*
G36*
X30343Y7432D02*
Y7421D01*
Y7394D01*
Y7350D01*
X30337Y7295D01*
X30332Y7224D01*
X30321Y7148D01*
X30310Y7055D01*
X30294Y6962D01*
X30272Y6859D01*
X30250Y6755D01*
X30217Y6651D01*
X30179Y6547D01*
X30135Y6443D01*
X30081Y6340D01*
X30026Y6247D01*
X29955Y6160D01*
X29950Y6154D01*
X29939Y6143D01*
X29917Y6121D01*
X29884Y6094D01*
X29846Y6056D01*
X29797Y6023D01*
X29737Y5979D01*
X29671Y5941D01*
X29600Y5903D01*
X29513Y5859D01*
X29426Y5827D01*
X29322Y5794D01*
X29218Y5761D01*
X29098Y5739D01*
X28972Y5728D01*
X28841Y5723D01*
X28787D01*
X28727Y5728D01*
X28645Y5739D01*
X28552Y5750D01*
X28454Y5767D01*
X28345Y5794D01*
X28241Y5832D01*
Y6706D01*
X28246D01*
X28252Y6700D01*
X28284Y6678D01*
X28334Y6651D01*
X28399Y6618D01*
X28475Y6580D01*
X28568Y6553D01*
X28667Y6531D01*
X28776Y6525D01*
X28803D01*
X28836Y6531D01*
X28874Y6542D01*
X28923Y6553D01*
X28978Y6575D01*
X29038Y6607D01*
X29098Y6645D01*
X29153Y6695D01*
X29213Y6755D01*
X29267Y6831D01*
X29316Y6924D01*
X29355Y7033D01*
X29387Y7159D01*
X29409Y7306D01*
X29415Y7383D01*
Y7470D01*
Y9932D01*
X30343D01*
Y7432D01*
D02*
G37*
G36*
X33177Y5794D02*
X32270D01*
Y8993D01*
X32265Y8988D01*
X32259Y8982D01*
X32243Y8971D01*
X32221Y8955D01*
X32161Y8911D01*
X32090Y8868D01*
X32085D01*
X32074Y8857D01*
X32052Y8846D01*
X32024Y8835D01*
X31992Y8819D01*
X31959Y8802D01*
X31872Y8764D01*
X31866D01*
X31850Y8759D01*
X31828Y8748D01*
X31801Y8737D01*
X31762Y8720D01*
X31724Y8709D01*
X31631Y8682D01*
X31626D01*
X31610Y8677D01*
X31588Y8671D01*
X31555Y8666D01*
X31522Y8655D01*
X31479Y8649D01*
X31391Y8633D01*
Y9403D01*
X31397D01*
X31407Y9408D01*
X31424Y9414D01*
X31451Y9419D01*
X31484Y9430D01*
X31522Y9447D01*
X31610Y9474D01*
X31708Y9512D01*
X31822Y9556D01*
X31937Y9610D01*
X32057Y9665D01*
X32063D01*
X32074Y9670D01*
X32090Y9681D01*
X32112Y9692D01*
X32172Y9725D01*
X32248Y9774D01*
X32336Y9823D01*
X32429Y9889D01*
X32527Y9954D01*
X32625Y10025D01*
X33177D01*
Y5794D01*
D02*
G37*
G36*
X67366Y43323D02*
X67442Y43317D01*
X67530Y43306D01*
X67622Y43290D01*
X67721Y43268D01*
X67813Y43241D01*
X67819D01*
X67824Y43235D01*
X67857Y43224D01*
X67901Y43208D01*
X67961Y43181D01*
X68026Y43148D01*
X68097Y43110D01*
X68168Y43061D01*
X68239Y43006D01*
X68245Y43001D01*
X68267Y42979D01*
X68299Y42946D01*
X68338Y42902D01*
X68381Y42848D01*
X68425Y42788D01*
X68463Y42711D01*
X68501Y42635D01*
X68507Y42624D01*
X68518Y42597D01*
X68529Y42553D01*
X68551Y42493D01*
X68567Y42422D01*
X68578Y42340D01*
X68589Y42247D01*
X68594Y42149D01*
Y42143D01*
Y42138D01*
Y42121D01*
Y42100D01*
X68589Y42045D01*
X68583Y41980D01*
X68572Y41898D01*
X68556Y41816D01*
X68534Y41728D01*
X68507Y41641D01*
X68501Y41630D01*
X68490Y41603D01*
X68474Y41559D01*
X68447Y41504D01*
X68414Y41445D01*
X68370Y41379D01*
X68327Y41308D01*
X68272Y41237D01*
X68267Y41232D01*
X68245Y41204D01*
X68217Y41172D01*
X68174Y41128D01*
X68125Y41079D01*
X68065Y41019D01*
X68005Y40964D01*
X67934Y40904D01*
X67923Y40898D01*
X67901Y40877D01*
X67863Y40849D01*
X67813Y40811D01*
X67753Y40767D01*
X67688Y40713D01*
X67541Y40609D01*
X67535Y40604D01*
X67519Y40593D01*
X67491Y40571D01*
X67459Y40549D01*
X67415Y40516D01*
X67371Y40483D01*
X67273Y40413D01*
X67268Y40407D01*
X67251Y40396D01*
X67224Y40380D01*
X67197Y40352D01*
X67120Y40298D01*
X67044Y40227D01*
X67038Y40221D01*
X67027Y40211D01*
X67011Y40194D01*
X66989Y40167D01*
X66940Y40112D01*
X66891Y40041D01*
Y40036D01*
X66880Y40025D01*
X66874Y40009D01*
X66863Y39987D01*
X66842Y39932D01*
X66836Y39905D01*
X66831Y39872D01*
X68589D01*
Y39118D01*
X65832D01*
Y39430D01*
Y39435D01*
Y39446D01*
Y39463D01*
Y39484D01*
X65837Y39544D01*
X65848Y39621D01*
X65859Y39708D01*
X65875Y39801D01*
X65903Y39899D01*
X65941Y39998D01*
Y40003D01*
X65946Y40009D01*
X65962Y40041D01*
X65984Y40090D01*
X66017Y40150D01*
X66055Y40221D01*
X66099Y40292D01*
X66154Y40374D01*
X66208Y40451D01*
X66214Y40462D01*
X66236Y40483D01*
X66268Y40522D01*
X66312Y40571D01*
X66367Y40626D01*
X66427Y40685D01*
X66492Y40746D01*
X66563Y40806D01*
X66574Y40811D01*
X66596Y40833D01*
X66634Y40860D01*
X66683Y40898D01*
X66738Y40942D01*
X66798Y40986D01*
X66929Y41084D01*
X66934Y41090D01*
X66962Y41106D01*
X66995Y41133D01*
X67038Y41166D01*
X67087Y41204D01*
X67136Y41243D01*
X67246Y41330D01*
X67251Y41335D01*
X67268Y41352D01*
X67295Y41374D01*
X67327Y41406D01*
X67399Y41477D01*
X67475Y41565D01*
X67480Y41570D01*
X67491Y41586D01*
X67508Y41608D01*
X67530Y41641D01*
X67551Y41674D01*
X67579Y41717D01*
X67617Y41805D01*
Y41810D01*
X67622Y41827D01*
X67633Y41848D01*
X67644Y41881D01*
X67650Y41919D01*
X67661Y41963D01*
X67666Y42061D01*
Y42067D01*
Y42072D01*
Y42105D01*
X67661Y42154D01*
X67650Y42214D01*
X67628Y42274D01*
X67601Y42345D01*
X67562Y42405D01*
X67513Y42460D01*
X67508Y42465D01*
X67486Y42482D01*
X67448Y42504D01*
X67399Y42531D01*
X67339Y42553D01*
X67257Y42575D01*
X67164Y42591D01*
X67054Y42597D01*
X67000D01*
X66962Y42591D01*
X66918Y42586D01*
X66858Y42575D01*
X66798Y42564D01*
X66727Y42542D01*
X66650Y42520D01*
X66569Y42493D01*
X66487Y42460D01*
X66399Y42422D01*
X66307Y42373D01*
X66219Y42313D01*
X66126Y42253D01*
X66034Y42176D01*
Y42979D01*
X66039Y42984D01*
X66061Y42995D01*
X66088Y43012D01*
X66126Y43033D01*
X66181Y43061D01*
X66241Y43088D01*
X66312Y43121D01*
X66388Y43153D01*
X66476Y43186D01*
X66569Y43219D01*
X66667Y43246D01*
X66776Y43274D01*
X66885Y43295D01*
X67005Y43312D01*
X67125Y43323D01*
X67251Y43328D01*
X67306D01*
X67366Y43323D01*
D02*
G37*
G36*
X63489D02*
X63549Y43317D01*
X63626Y43312D01*
X63713Y43295D01*
X63806Y43279D01*
X63915Y43257D01*
X64024Y43224D01*
X64139Y43186D01*
X64259Y43137D01*
X64379Y43082D01*
X64499Y43017D01*
X64614Y42935D01*
X64729Y42848D01*
X64832Y42744D01*
X64838Y42739D01*
X64854Y42717D01*
X64881Y42684D01*
X64920Y42640D01*
X64958Y42580D01*
X65007Y42509D01*
X65056Y42427D01*
X65111Y42334D01*
X65160Y42231D01*
X65209Y42116D01*
X65258Y41991D01*
X65296Y41854D01*
X65335Y41706D01*
X65362Y41554D01*
X65378Y41390D01*
X65384Y41215D01*
Y41204D01*
Y41172D01*
X65378Y41122D01*
X65373Y41057D01*
X65367Y40969D01*
X65351Y40877D01*
X65335Y40767D01*
X65313Y40653D01*
X65280Y40533D01*
X65242Y40402D01*
X65198Y40276D01*
X65144Y40139D01*
X65078Y40009D01*
X65002Y39883D01*
X64914Y39757D01*
X64811Y39643D01*
Y39637D01*
X64800Y39632D01*
X64772Y39599D01*
X64761Y39588D01*
X64740Y39566D01*
X65788Y38562D01*
X64483D01*
X63931Y39118D01*
X63926D01*
X63920Y39113D01*
X63904D01*
X63882Y39108D01*
X63828Y39097D01*
X63757Y39086D01*
X63664Y39069D01*
X63566Y39058D01*
X63456Y39053D01*
X63336Y39048D01*
X63298D01*
X63249Y39053D01*
X63189Y39058D01*
X63112Y39064D01*
X63025Y39080D01*
X62927Y39097D01*
X62823Y39118D01*
X62708Y39151D01*
X62588Y39189D01*
X62468Y39233D01*
X62348Y39288D01*
X62228Y39353D01*
X62108Y39430D01*
X61993Y39523D01*
X61884Y39621D01*
X61879Y39626D01*
X61862Y39648D01*
X61835Y39681D01*
X61797Y39725D01*
X61753Y39785D01*
X61709Y39856D01*
X61660Y39937D01*
X61606Y40030D01*
X61556Y40134D01*
X61502Y40249D01*
X61458Y40369D01*
X61414Y40505D01*
X61376Y40647D01*
X61349Y40800D01*
X61332Y40964D01*
X61327Y41133D01*
Y41139D01*
Y41144D01*
Y41177D01*
X61332Y41226D01*
X61338Y41297D01*
X61343Y41379D01*
X61360Y41477D01*
X61376Y41581D01*
X61398Y41696D01*
X61431Y41821D01*
X61463Y41947D01*
X61513Y42083D01*
X61567Y42214D01*
X61633Y42345D01*
X61709Y42476D01*
X61797Y42597D01*
X61895Y42717D01*
X61900Y42722D01*
X61922Y42744D01*
X61955Y42771D01*
X61999Y42815D01*
X62053Y42859D01*
X62124Y42908D01*
X62201Y42968D01*
X62293Y43022D01*
X62397Y43077D01*
X62512Y43137D01*
X62632Y43186D01*
X62768Y43235D01*
X62910Y43274D01*
X63069Y43301D01*
X63227Y43323D01*
X63402Y43328D01*
X63440D01*
X63489Y43323D01*
D02*
G37*
G36*
X99510Y96561D02*
Y96556D01*
Y96539D01*
Y96517D01*
X99505Y96479D01*
Y96441D01*
X99499Y96392D01*
X99494Y96332D01*
X99483Y96272D01*
X99456Y96130D01*
X99417Y95971D01*
X99363Y95802D01*
X99292Y95633D01*
X99248Y95546D01*
X99199Y95458D01*
X99144Y95371D01*
X99084Y95289D01*
X99019Y95207D01*
X98948Y95130D01*
X98866Y95060D01*
X98778Y94989D01*
X98680Y94928D01*
X98576Y94874D01*
X98467Y94819D01*
X98347Y94781D01*
X98216Y94743D01*
X98080Y94721D01*
X97932Y94705D01*
X97774Y94699D01*
X97730D01*
X97703Y94705D01*
X97665D01*
X97621Y94710D01*
X97566Y94721D01*
X97512Y94726D01*
X97381Y94754D01*
X97239Y94797D01*
X97086Y94852D01*
X96933Y94928D01*
X96851Y94972D01*
X96775Y95021D01*
X96698Y95081D01*
X96622Y95141D01*
X96545Y95212D01*
X96480Y95289D01*
X96414Y95376D01*
X96349Y95469D01*
X96294Y95567D01*
X96245Y95676D01*
X96196Y95791D01*
X96158Y95917D01*
X96130Y96053D01*
X96109Y96195D01*
X96092Y96354D01*
X96087Y96517D01*
Y98909D01*
X97026D01*
Y96506D01*
Y96495D01*
Y96463D01*
X97031Y96414D01*
X97037Y96348D01*
X97048Y96272D01*
X97070Y96190D01*
X97091Y96097D01*
X97124Y96004D01*
X97162Y95911D01*
X97217Y95818D01*
X97277Y95736D01*
X97354Y95660D01*
X97446Y95595D01*
X97550Y95546D01*
X97670Y95513D01*
X97736Y95507D01*
X97807Y95502D01*
X97839D01*
X97878Y95507D01*
X97927Y95518D01*
X97987Y95529D01*
X98052Y95551D01*
X98123Y95584D01*
X98194Y95622D01*
X98265Y95676D01*
X98336Y95736D01*
X98402Y95818D01*
X98462Y95911D01*
X98511Y96026D01*
X98549Y96152D01*
X98571Y96304D01*
X98582Y96386D01*
Y96474D01*
Y98909D01*
X99510D01*
Y96561D01*
D02*
G37*
G36*
X102339Y94770D02*
X101432D01*
Y97970D01*
X101427Y97964D01*
X101421Y97959D01*
X101405Y97948D01*
X101383Y97931D01*
X101323Y97888D01*
X101252Y97844D01*
X101247D01*
X101235Y97833D01*
X101214Y97822D01*
X101186Y97811D01*
X101154Y97795D01*
X101121Y97779D01*
X101033Y97740D01*
X101028D01*
X101012Y97735D01*
X100990Y97724D01*
X100962Y97713D01*
X100924Y97697D01*
X100886Y97686D01*
X100793Y97658D01*
X100788D01*
X100771Y97653D01*
X100750Y97648D01*
X100717Y97642D01*
X100684Y97631D01*
X100640Y97626D01*
X100553Y97609D01*
Y98379D01*
X100558D01*
X100569Y98385D01*
X100586Y98390D01*
X100613Y98396D01*
X100646Y98406D01*
X100684Y98423D01*
X100771Y98450D01*
X100870Y98488D01*
X100984Y98532D01*
X101099Y98587D01*
X101219Y98641D01*
X101225D01*
X101235Y98647D01*
X101252Y98658D01*
X101274Y98669D01*
X101334Y98701D01*
X101410Y98751D01*
X101498Y98800D01*
X101590Y98865D01*
X101689Y98931D01*
X101787Y99002D01*
X102339D01*
Y94770D01*
D02*
G37*
G36*
X67339Y29694D02*
X67382D01*
X67491Y29683D01*
X67611Y29672D01*
X67737Y29650D01*
X67857Y29623D01*
X67966Y29585D01*
Y28820D01*
X67961D01*
X67950Y28826D01*
X67934Y28837D01*
X67912Y28848D01*
X67884Y28864D01*
X67846Y28875D01*
X67764Y28913D01*
X67661Y28946D01*
X67541Y28973D01*
X67415Y28995D01*
X67278Y29000D01*
X67240D01*
X67197Y28995D01*
X67136Y28990D01*
X67071Y28979D01*
X67000Y28962D01*
X66929Y28940D01*
X66858Y28908D01*
X66852Y28902D01*
X66825Y28891D01*
X66793Y28870D01*
X66749Y28842D01*
X66700Y28809D01*
X66645Y28766D01*
X66590Y28717D01*
X66536Y28657D01*
X66530Y28651D01*
X66514Y28629D01*
X66487Y28591D01*
X66459Y28547D01*
X66427Y28487D01*
X66388Y28422D01*
X66356Y28345D01*
X66323Y28258D01*
X66317Y28247D01*
X66312Y28220D01*
X66301Y28171D01*
X66285Y28111D01*
X66268Y28034D01*
X66257Y27947D01*
X66246Y27848D01*
X66241Y27745D01*
X66263D01*
X66268Y27750D01*
X66279Y27761D01*
X66296Y27783D01*
X66317Y27810D01*
X66350Y27837D01*
X66383Y27870D01*
X66427Y27909D01*
X66481Y27947D01*
X66536Y27985D01*
X66601Y28023D01*
X66672Y28056D01*
X66749Y28083D01*
X66836Y28111D01*
X66929Y28132D01*
X67027Y28143D01*
X67131Y28149D01*
X67175D01*
X67224Y28143D01*
X67284Y28138D01*
X67355Y28127D01*
X67437Y28111D01*
X67513Y28089D01*
X67595Y28056D01*
X67606Y28051D01*
X67628Y28040D01*
X67666Y28018D01*
X67715Y27990D01*
X67775Y27952D01*
X67830Y27909D01*
X67890Y27854D01*
X67950Y27794D01*
X67955Y27788D01*
X67972Y27766D01*
X67999Y27728D01*
X68032Y27679D01*
X68070Y27619D01*
X68108Y27554D01*
X68141Y27477D01*
X68174Y27390D01*
X68179Y27379D01*
X68185Y27346D01*
X68201Y27302D01*
X68217Y27237D01*
X68228Y27161D01*
X68245Y27068D01*
X68250Y26969D01*
X68256Y26866D01*
Y26860D01*
Y26855D01*
Y26838D01*
Y26816D01*
X68250Y26756D01*
X68245Y26680D01*
X68228Y26593D01*
X68212Y26494D01*
X68185Y26396D01*
X68147Y26292D01*
Y26287D01*
X68141Y26281D01*
X68130Y26249D01*
X68103Y26199D01*
X68070Y26134D01*
X68026Y26063D01*
X67977Y25987D01*
X67917Y25905D01*
X67852Y25828D01*
X67841Y25817D01*
X67819Y25796D01*
X67781Y25763D01*
X67726Y25719D01*
X67661Y25670D01*
X67584Y25621D01*
X67497Y25572D01*
X67399Y25528D01*
X67393D01*
X67388Y25523D01*
X67371Y25517D01*
X67355Y25512D01*
X67300Y25495D01*
X67229Y25473D01*
X67142Y25451D01*
X67044Y25435D01*
X66940Y25424D01*
X66825Y25419D01*
X66765D01*
X66738Y25424D01*
X66700D01*
X66618Y25435D01*
X66519Y25451D01*
X66416Y25473D01*
X66307Y25501D01*
X66197Y25544D01*
X66192D01*
X66186Y25550D01*
X66154Y25566D01*
X66099Y25599D01*
X66039Y25643D01*
X65962Y25692D01*
X65886Y25757D01*
X65810Y25834D01*
X65733Y25921D01*
Y25927D01*
X65722Y25932D01*
X65701Y25965D01*
X65668Y26019D01*
X65624Y26090D01*
X65575Y26178D01*
X65526Y26276D01*
X65482Y26396D01*
X65438Y26522D01*
Y26527D01*
X65433Y26538D01*
X65428Y26560D01*
X65422Y26587D01*
X65417Y26620D01*
X65406Y26658D01*
X65400Y26707D01*
X65389Y26756D01*
X65373Y26877D01*
X65356Y27018D01*
X65346Y27171D01*
X65340Y27335D01*
Y27341D01*
Y27357D01*
Y27390D01*
Y27428D01*
X65346Y27472D01*
Y27526D01*
X65351Y27592D01*
X65356Y27657D01*
X65373Y27805D01*
X65395Y27969D01*
X65428Y28138D01*
X65471Y28302D01*
Y28307D01*
X65477Y28324D01*
X65487Y28345D01*
X65498Y28373D01*
X65509Y28411D01*
X65526Y28455D01*
X65569Y28558D01*
X65624Y28678D01*
X65689Y28804D01*
X65760Y28929D01*
X65848Y29050D01*
X65853Y29055D01*
X65859Y29066D01*
X65875Y29077D01*
X65892Y29099D01*
X65946Y29159D01*
X66012Y29224D01*
X66099Y29306D01*
X66203Y29383D01*
X66312Y29459D01*
X66438Y29530D01*
X66443D01*
X66454Y29536D01*
X66470Y29546D01*
X66498Y29557D01*
X66530Y29568D01*
X66569Y29585D01*
X66618Y29601D01*
X66667Y29618D01*
X66782Y29645D01*
X66913Y29672D01*
X67060Y29694D01*
X67218Y29699D01*
X67300D01*
X67339Y29694D01*
D02*
G37*
G36*
X63244Y29623D02*
X63287D01*
X63331Y29618D01*
X63380Y29612D01*
X63495Y29596D01*
X63620Y29568D01*
X63757Y29536D01*
X63899Y29486D01*
X64041Y29426D01*
X64177Y29355D01*
X64303Y29263D01*
X64417Y29153D01*
X64467Y29093D01*
X64516Y29028D01*
X64554Y28951D01*
X64587Y28875D01*
X64614Y28793D01*
X64636Y28700D01*
X64647Y28607D01*
X64652Y28504D01*
Y28493D01*
Y28465D01*
X64647Y28427D01*
Y28373D01*
X64636Y28307D01*
X64625Y28242D01*
X64609Y28171D01*
X64587Y28100D01*
X64581Y28094D01*
X64576Y28067D01*
X64559Y28034D01*
X64538Y27990D01*
X64510Y27941D01*
X64477Y27887D01*
X64439Y27827D01*
X64395Y27772D01*
X64390Y27766D01*
X64374Y27750D01*
X64346Y27717D01*
X64314Y27685D01*
X64270Y27646D01*
X64221Y27603D01*
X64166Y27559D01*
X64101Y27515D01*
X64095Y27510D01*
X64073Y27499D01*
X64035Y27477D01*
X63991Y27455D01*
X63937Y27428D01*
X63871Y27401D01*
X63800Y27373D01*
X63724Y27352D01*
Y27335D01*
X63729D01*
X63740Y27330D01*
X63757Y27324D01*
X63779Y27313D01*
X63839Y27286D01*
X63899Y27242D01*
X63904Y27237D01*
X63915Y27231D01*
X63931Y27215D01*
X63953Y27199D01*
X64008Y27150D01*
X64068Y27090D01*
X64073Y27084D01*
X64084Y27073D01*
X64095Y27057D01*
X64117Y27035D01*
X64166Y26975D01*
X64221Y26904D01*
X64226Y26898D01*
X64232Y26888D01*
X64248Y26866D01*
X64265Y26844D01*
X64308Y26784D01*
X64357Y26713D01*
X65138Y25490D01*
X64068D01*
X63424Y26554D01*
X63418Y26560D01*
X63413Y26576D01*
X63396Y26598D01*
X63380Y26625D01*
X63336Y26696D01*
X63287Y26767D01*
X63282Y26773D01*
X63276Y26784D01*
X63265Y26800D01*
X63244Y26827D01*
X63200Y26877D01*
X63151Y26931D01*
X63145Y26937D01*
X63140Y26942D01*
X63107Y26969D01*
X63063Y27008D01*
X63009Y27035D01*
X63003D01*
X62998Y27040D01*
X62965Y27057D01*
X62910Y27068D01*
X62850Y27073D01*
X62599D01*
Y25490D01*
X61665D01*
Y29628D01*
X63211D01*
X63244Y29623D01*
D02*
G37*
G36*
X67969Y21042D02*
X66473D01*
X66418Y20217D01*
X66429D01*
X66457Y20223D01*
X66495D01*
X66549Y20228D01*
X66610D01*
X66670Y20234D01*
X66861D01*
X66904Y20228D01*
X66959Y20223D01*
X67024Y20217D01*
X67090Y20207D01*
X67167Y20190D01*
X67325Y20152D01*
X67407Y20125D01*
X67494Y20092D01*
X67576Y20054D01*
X67652Y20004D01*
X67729Y19955D01*
X67800Y19895D01*
X67805Y19890D01*
X67816Y19879D01*
X67833Y19862D01*
X67854Y19835D01*
X67882Y19802D01*
X67914Y19759D01*
X67947Y19715D01*
X67980Y19660D01*
X68013Y19595D01*
X68046Y19529D01*
X68078Y19453D01*
X68106Y19377D01*
X68127Y19289D01*
X68144Y19196D01*
X68155Y19098D01*
X68160Y18994D01*
Y18989D01*
Y18967D01*
Y18934D01*
X68155Y18891D01*
X68149Y18836D01*
X68138Y18776D01*
X68122Y18710D01*
X68106Y18634D01*
X68084Y18552D01*
X68056Y18470D01*
X68018Y18388D01*
X67980Y18301D01*
X67931Y18214D01*
X67871Y18132D01*
X67805Y18050D01*
X67729Y17973D01*
X67723Y17968D01*
X67707Y17957D01*
X67685Y17935D01*
X67652Y17913D01*
X67609Y17880D01*
X67554Y17848D01*
X67494Y17815D01*
X67423Y17777D01*
X67341Y17739D01*
X67254Y17706D01*
X67161Y17673D01*
X67057Y17640D01*
X66943Y17618D01*
X66828Y17597D01*
X66702Y17586D01*
X66566Y17580D01*
X66506D01*
X66468Y17586D01*
X66413D01*
X66353Y17591D01*
X66287Y17597D01*
X66216Y17602D01*
X66058Y17624D01*
X65889Y17657D01*
X65720Y17695D01*
X65561Y17755D01*
Y18536D01*
X65567Y18530D01*
X65583Y18525D01*
X65605Y18514D01*
X65632Y18497D01*
X65676Y18476D01*
X65720Y18454D01*
X65774Y18432D01*
X65834Y18405D01*
X65894Y18383D01*
X65965Y18356D01*
X66118Y18317D01*
X66287Y18284D01*
X66375Y18279D01*
X66462Y18274D01*
X66495D01*
X66522Y18279D01*
X66588Y18284D01*
X66670Y18295D01*
X66757Y18317D01*
X66850Y18345D01*
X66943Y18388D01*
X67024Y18443D01*
X67035Y18454D01*
X67057Y18476D01*
X67090Y18514D01*
X67128Y18568D01*
X67167Y18634D01*
X67199Y18716D01*
X67221Y18809D01*
X67232Y18913D01*
Y18918D01*
Y18940D01*
X67226Y18967D01*
X67221Y19011D01*
X67205Y19054D01*
X67188Y19109D01*
X67161Y19164D01*
X67123Y19224D01*
X67079Y19278D01*
X67019Y19333D01*
X66948Y19387D01*
X66866Y19431D01*
X66768Y19475D01*
X66653Y19502D01*
X66517Y19524D01*
X66364Y19529D01*
X66238D01*
X66200Y19524D01*
X66151D01*
X66042Y19519D01*
X65916Y19508D01*
X65774Y19497D01*
X65621Y19480D01*
X65780Y21790D01*
X67969D01*
Y21042D01*
D02*
G37*
G36*
X63339Y21784D02*
X63383D01*
X63426Y21779D01*
X63476Y21774D01*
X63590Y21757D01*
X63716Y21730D01*
X63852Y21697D01*
X63994Y21648D01*
X64136Y21588D01*
X64273Y21517D01*
X64398Y21424D01*
X64513Y21315D01*
X64562Y21255D01*
X64611Y21189D01*
X64649Y21113D01*
X64682Y21036D01*
X64710Y20955D01*
X64731Y20862D01*
X64742Y20769D01*
X64748Y20665D01*
Y20654D01*
Y20627D01*
X64742Y20589D01*
Y20534D01*
X64731Y20469D01*
X64720Y20403D01*
X64704Y20332D01*
X64682Y20261D01*
X64677Y20256D01*
X64671Y20228D01*
X64655Y20196D01*
X64633Y20152D01*
X64606Y20103D01*
X64573Y20048D01*
X64535Y19988D01*
X64491Y19933D01*
X64486Y19928D01*
X64469Y19912D01*
X64442Y19879D01*
X64409Y19846D01*
X64366Y19808D01*
X64316Y19764D01*
X64262Y19721D01*
X64196Y19677D01*
X64191Y19671D01*
X64169Y19660D01*
X64131Y19639D01*
X64087Y19617D01*
X64032Y19590D01*
X63967Y19562D01*
X63896Y19535D01*
X63819Y19513D01*
Y19497D01*
X63825D01*
X63836Y19491D01*
X63852Y19486D01*
X63874Y19475D01*
X63934Y19447D01*
X63994Y19404D01*
X64000Y19398D01*
X64011Y19393D01*
X64027Y19377D01*
X64049Y19360D01*
X64103Y19311D01*
X64164Y19251D01*
X64169Y19245D01*
X64180Y19235D01*
X64191Y19218D01*
X64213Y19196D01*
X64262Y19136D01*
X64316Y19065D01*
X64322Y19060D01*
X64327Y19049D01*
X64344Y19027D01*
X64360Y19005D01*
X64404Y18945D01*
X64453Y18874D01*
X65234Y17651D01*
X64164D01*
X63519Y18716D01*
X63514Y18721D01*
X63508Y18738D01*
X63492Y18760D01*
X63476Y18787D01*
X63432Y18858D01*
X63383Y18929D01*
X63377Y18934D01*
X63372Y18945D01*
X63361Y18962D01*
X63339Y18989D01*
X63295Y19038D01*
X63246Y19093D01*
X63241Y19098D01*
X63235Y19104D01*
X63203Y19131D01*
X63159Y19169D01*
X63104Y19196D01*
X63099D01*
X63093Y19202D01*
X63061Y19218D01*
X63006Y19229D01*
X62946Y19235D01*
X62695D01*
Y17651D01*
X61761D01*
Y21790D01*
X63306D01*
X63339Y21784D01*
D02*
G37*
G36*
X67781Y51822D02*
X68278D01*
Y51139D01*
X67781D01*
Y50293D01*
X66951D01*
Y51139D01*
X65144D01*
Y51854D01*
X65149Y51860D01*
X65154Y51865D01*
X65165Y51882D01*
X65187Y51904D01*
X65231Y51958D01*
X65296Y52029D01*
X65373Y52117D01*
X65455Y52215D01*
X65548Y52324D01*
X65640Y52439D01*
X65646Y52444D01*
X65651Y52455D01*
X65668Y52471D01*
X65684Y52493D01*
X65706Y52526D01*
X65733Y52559D01*
X65799Y52641D01*
X65875Y52739D01*
X65957Y52854D01*
X66044Y52968D01*
X66137Y53094D01*
X66143Y53099D01*
X66148Y53110D01*
X66159Y53127D01*
X66181Y53154D01*
X66197Y53181D01*
X66225Y53219D01*
X66285Y53307D01*
X66350Y53411D01*
X66427Y53525D01*
X66509Y53651D01*
X66585Y53776D01*
Y53782D01*
X66596Y53793D01*
X66607Y53809D01*
X66618Y53836D01*
X66640Y53864D01*
X66656Y53902D01*
X66705Y53989D01*
X66760Y54088D01*
X66820Y54197D01*
X66880Y54317D01*
X66934Y54431D01*
X67781D01*
Y51822D01*
D02*
G37*
G36*
X63222Y54426D02*
X63265D01*
X63309Y54421D01*
X63358Y54415D01*
X63473Y54399D01*
X63598Y54372D01*
X63735Y54339D01*
X63877Y54290D01*
X64019Y54229D01*
X64155Y54159D01*
X64281Y54066D01*
X64395Y53957D01*
X64445Y53896D01*
X64494Y53831D01*
X64532Y53755D01*
X64565Y53678D01*
X64592Y53596D01*
X64614Y53503D01*
X64625Y53411D01*
X64630Y53307D01*
Y53296D01*
Y53269D01*
X64625Y53230D01*
Y53176D01*
X64614Y53110D01*
X64603Y53045D01*
X64587Y52974D01*
X64565Y52903D01*
X64559Y52897D01*
X64554Y52870D01*
X64538Y52837D01*
X64516Y52794D01*
X64488Y52744D01*
X64456Y52690D01*
X64417Y52630D01*
X64374Y52575D01*
X64368Y52570D01*
X64352Y52553D01*
X64324Y52521D01*
X64292Y52488D01*
X64248Y52450D01*
X64199Y52406D01*
X64144Y52362D01*
X64079Y52319D01*
X64073Y52313D01*
X64052Y52302D01*
X64013Y52280D01*
X63970Y52258D01*
X63915Y52231D01*
X63850Y52204D01*
X63779Y52177D01*
X63702Y52155D01*
Y52138D01*
X63708D01*
X63718Y52133D01*
X63735Y52127D01*
X63757Y52117D01*
X63817Y52089D01*
X63877Y52046D01*
X63882Y52040D01*
X63893Y52035D01*
X63910Y52018D01*
X63931Y52002D01*
X63986Y51953D01*
X64046Y51893D01*
X64052Y51887D01*
X64062Y51876D01*
X64073Y51860D01*
X64095Y51838D01*
X64144Y51778D01*
X64199Y51707D01*
X64204Y51701D01*
X64210Y51691D01*
X64226Y51669D01*
X64243Y51647D01*
X64286Y51587D01*
X64336Y51516D01*
X65116Y50293D01*
X64046D01*
X63402Y51358D01*
X63396Y51363D01*
X63391Y51379D01*
X63375Y51401D01*
X63358Y51429D01*
X63314Y51499D01*
X63265Y51570D01*
X63260Y51576D01*
X63254Y51587D01*
X63244Y51603D01*
X63222Y51631D01*
X63178Y51680D01*
X63129Y51734D01*
X63123Y51740D01*
X63118Y51745D01*
X63085Y51772D01*
X63041Y51811D01*
X62987Y51838D01*
X62981D01*
X62976Y51844D01*
X62943Y51860D01*
X62889Y51871D01*
X62828Y51876D01*
X62577D01*
Y50293D01*
X61644D01*
Y54431D01*
X63189D01*
X63222Y54426D01*
D02*
G37*
G36*
X66779Y92292D02*
X66833Y92287D01*
X66894Y92281D01*
X66964Y92276D01*
X67035Y92260D01*
X67194Y92227D01*
X67358Y92178D01*
X67440Y92145D01*
X67521Y92107D01*
X67592Y92058D01*
X67663Y92008D01*
X67669Y92003D01*
X67680Y91997D01*
X67696Y91981D01*
X67718Y91959D01*
X67745Y91926D01*
X67778Y91894D01*
X67805Y91856D01*
X67844Y91812D01*
X67904Y91703D01*
X67964Y91577D01*
X67985Y91506D01*
X68002Y91430D01*
X68013Y91348D01*
X68018Y91266D01*
Y91255D01*
Y91233D01*
X68013Y91189D01*
X68007Y91135D01*
X67991Y91075D01*
X67975Y90998D01*
X67947Y90922D01*
X67914Y90834D01*
X67871Y90747D01*
X67816Y90665D01*
X67751Y90578D01*
X67669Y90496D01*
X67576Y90420D01*
X67467Y90354D01*
X67341Y90294D01*
X67194Y90250D01*
Y90234D01*
X67216D01*
X67238Y90228D01*
X67265Y90223D01*
X67303Y90212D01*
X67347Y90201D01*
X67445Y90174D01*
X67560Y90130D01*
X67674Y90076D01*
X67783Y90005D01*
X67887Y89917D01*
X67893Y89912D01*
X67898Y89906D01*
X67909Y89890D01*
X67925Y89868D01*
X67969Y89814D01*
X68018Y89737D01*
X68062Y89644D01*
X68106Y89535D01*
X68133Y89410D01*
X68144Y89338D01*
Y89267D01*
Y89262D01*
Y89240D01*
Y89213D01*
X68138Y89175D01*
X68133Y89126D01*
X68122Y89065D01*
X68106Y89005D01*
X68089Y88934D01*
X68067Y88863D01*
X68040Y88787D01*
X68007Y88711D01*
X67964Y88634D01*
X67914Y88563D01*
X67860Y88487D01*
X67794Y88416D01*
X67718Y88350D01*
X67712Y88345D01*
X67696Y88334D01*
X67674Y88318D01*
X67642Y88301D01*
X67598Y88274D01*
X67543Y88247D01*
X67483Y88214D01*
X67412Y88186D01*
X67330Y88154D01*
X67243Y88121D01*
X67150Y88094D01*
X67041Y88072D01*
X66932Y88050D01*
X66812Y88033D01*
X66681Y88023D01*
X66544Y88017D01*
X66484D01*
X66440Y88023D01*
X66386D01*
X66320Y88028D01*
X66249Y88033D01*
X66173Y88045D01*
X66009Y88066D01*
X65834Y88104D01*
X65659Y88154D01*
X65578Y88186D01*
X65501Y88219D01*
Y89016D01*
X65507Y89011D01*
X65523Y89005D01*
X65545Y88989D01*
X65578Y88967D01*
X65616Y88945D01*
X65665Y88918D01*
X65720Y88891D01*
X65780Y88863D01*
X65851Y88836D01*
X65922Y88809D01*
X66004Y88782D01*
X66091Y88760D01*
X66271Y88722D01*
X66369Y88716D01*
X66473Y88711D01*
X66533D01*
X66593Y88716D01*
X66670Y88727D01*
X66757Y88749D01*
X66850Y88771D01*
X66937Y88809D01*
X67014Y88858D01*
X67024Y88863D01*
X67046Y88885D01*
X67074Y88918D01*
X67112Y88967D01*
X67150Y89027D01*
X67177Y89098D01*
X67199Y89186D01*
X67210Y89278D01*
Y89284D01*
Y89289D01*
X67205Y89322D01*
X67199Y89377D01*
X67183Y89437D01*
X67150Y89502D01*
X67106Y89573D01*
X67052Y89644D01*
X67014Y89677D01*
X66970Y89704D01*
X66959Y89710D01*
X66926Y89726D01*
X66872Y89753D01*
X66795Y89781D01*
X66702Y89808D01*
X66588Y89835D01*
X66457Y89852D01*
X66309Y89857D01*
X65927D01*
Y90556D01*
X66315D01*
X66358Y90561D01*
X66408Y90567D01*
X66468Y90572D01*
X66539Y90583D01*
X66610Y90600D01*
X66686Y90622D01*
X66762Y90654D01*
X66833Y90687D01*
X66904Y90731D01*
X66964Y90785D01*
X67014Y90845D01*
X67057Y90916D01*
X67079Y91004D01*
X67090Y91097D01*
Y91102D01*
Y91118D01*
X67085Y91146D01*
X67079Y91173D01*
X67074Y91211D01*
X67057Y91255D01*
X67035Y91299D01*
X67014Y91348D01*
X66981Y91397D01*
X66937Y91441D01*
X66888Y91484D01*
X66828Y91523D01*
X66757Y91555D01*
X66675Y91577D01*
X66577Y91593D01*
X66468Y91599D01*
X66429D01*
X66397Y91593D01*
X66358D01*
X66315Y91583D01*
X66266Y91577D01*
X66211Y91566D01*
X66091Y91533D01*
X65954Y91484D01*
X65878Y91457D01*
X65807Y91419D01*
X65736Y91381D01*
X65659Y91331D01*
Y92074D01*
X65665D01*
X65681Y92085D01*
X65703Y92096D01*
X65736Y92107D01*
X65780Y92128D01*
X65829Y92145D01*
X65883Y92167D01*
X65949Y92189D01*
X66020Y92205D01*
X66102Y92227D01*
X66184Y92249D01*
X66271Y92265D01*
X66468Y92287D01*
X66675Y92298D01*
X66735D01*
X66779Y92292D01*
D02*
G37*
G36*
X63355Y92221D02*
X63399D01*
X63443Y92216D01*
X63492Y92210D01*
X63607Y92194D01*
X63732Y92167D01*
X63869Y92134D01*
X64011Y92085D01*
X64152Y92025D01*
X64289Y91954D01*
X64415Y91861D01*
X64529Y91752D01*
X64578Y91692D01*
X64628Y91626D01*
X64666Y91550D01*
X64699Y91473D01*
X64726Y91391D01*
X64748Y91299D01*
X64759Y91206D01*
X64764Y91102D01*
Y91091D01*
Y91064D01*
X64759Y91026D01*
Y90971D01*
X64748Y90905D01*
X64737Y90840D01*
X64720Y90769D01*
X64699Y90698D01*
X64693Y90693D01*
X64688Y90665D01*
X64671Y90632D01*
X64649Y90589D01*
X64622Y90540D01*
X64589Y90485D01*
X64551Y90425D01*
X64507Y90370D01*
X64502Y90365D01*
X64486Y90349D01*
X64458Y90316D01*
X64425Y90283D01*
X64382Y90245D01*
X64333Y90201D01*
X64278Y90158D01*
X64213Y90114D01*
X64207Y90108D01*
X64185Y90097D01*
X64147Y90076D01*
X64103Y90054D01*
X64049Y90026D01*
X63983Y89999D01*
X63912Y89972D01*
X63836Y89950D01*
Y89934D01*
X63841D01*
X63852Y89928D01*
X63869Y89923D01*
X63890Y89912D01*
X63951Y89885D01*
X64011Y89841D01*
X64016Y89835D01*
X64027Y89830D01*
X64043Y89814D01*
X64065Y89797D01*
X64120Y89748D01*
X64180Y89688D01*
X64185Y89683D01*
X64196Y89671D01*
X64207Y89655D01*
X64229Y89633D01*
X64278Y89573D01*
X64333Y89502D01*
X64338Y89497D01*
X64344Y89486D01*
X64360Y89464D01*
X64376Y89442D01*
X64420Y89382D01*
X64469Y89311D01*
X65250Y88088D01*
X64180D01*
X63536Y89153D01*
X63530Y89158D01*
X63525Y89175D01*
X63508Y89196D01*
X63492Y89224D01*
X63448Y89295D01*
X63399Y89366D01*
X63394Y89371D01*
X63388Y89382D01*
X63377Y89398D01*
X63355Y89426D01*
X63312Y89475D01*
X63263Y89530D01*
X63257Y89535D01*
X63252Y89540D01*
X63219Y89568D01*
X63175Y89606D01*
X63121Y89633D01*
X63115D01*
X63110Y89639D01*
X63077Y89655D01*
X63022Y89666D01*
X62962Y89671D01*
X62711D01*
Y88088D01*
X61777D01*
Y92227D01*
X63323D01*
X63355Y92221D01*
D02*
G37*
G36*
X66926Y85170D02*
X67003Y85165D01*
X67090Y85154D01*
X67183Y85137D01*
X67281Y85116D01*
X67374Y85088D01*
X67379D01*
X67385Y85083D01*
X67418Y85072D01*
X67461Y85056D01*
X67521Y85028D01*
X67587Y84996D01*
X67658Y84957D01*
X67729Y84908D01*
X67800Y84854D01*
X67805Y84848D01*
X67827Y84826D01*
X67860Y84794D01*
X67898Y84750D01*
X67942Y84695D01*
X67985Y84635D01*
X68024Y84559D01*
X68062Y84482D01*
X68067Y84471D01*
X68078Y84444D01*
X68089Y84400D01*
X68111Y84340D01*
X68127Y84269D01*
X68138Y84187D01*
X68149Y84095D01*
X68155Y83996D01*
Y83991D01*
Y83985D01*
Y83969D01*
Y83947D01*
X68149Y83893D01*
X68144Y83827D01*
X68133Y83745D01*
X68116Y83663D01*
X68095Y83576D01*
X68067Y83489D01*
X68062Y83478D01*
X68051Y83450D01*
X68035Y83407D01*
X68007Y83352D01*
X67975Y83292D01*
X67931Y83227D01*
X67887Y83156D01*
X67833Y83084D01*
X67827Y83079D01*
X67805Y83052D01*
X67778Y83019D01*
X67734Y82975D01*
X67685Y82926D01*
X67625Y82866D01*
X67565Y82811D01*
X67494Y82752D01*
X67483Y82746D01*
X67461Y82724D01*
X67423Y82697D01*
X67374Y82659D01*
X67314Y82615D01*
X67248Y82560D01*
X67101Y82457D01*
X67096Y82451D01*
X67079Y82440D01*
X67052Y82418D01*
X67019Y82397D01*
X66975Y82364D01*
X66932Y82331D01*
X66833Y82260D01*
X66828Y82255D01*
X66812Y82244D01*
X66784Y82227D01*
X66757Y82200D01*
X66681Y82145D01*
X66604Y82074D01*
X66599Y82069D01*
X66588Y82058D01*
X66571Y82042D01*
X66549Y82014D01*
X66500Y81960D01*
X66451Y81889D01*
Y81883D01*
X66440Y81872D01*
X66435Y81856D01*
X66424Y81834D01*
X66402Y81780D01*
X66397Y81752D01*
X66391Y81719D01*
X68149D01*
Y80966D01*
X65392D01*
Y81277D01*
Y81283D01*
Y81294D01*
Y81310D01*
Y81332D01*
X65397Y81392D01*
X65408Y81468D01*
X65419Y81556D01*
X65436Y81648D01*
X65463Y81747D01*
X65501Y81845D01*
Y81851D01*
X65507Y81856D01*
X65523Y81889D01*
X65545Y81938D01*
X65578Y81998D01*
X65616Y82069D01*
X65659Y82140D01*
X65714Y82222D01*
X65769Y82298D01*
X65774Y82309D01*
X65796Y82331D01*
X65829Y82369D01*
X65873Y82418D01*
X65927Y82473D01*
X65987Y82533D01*
X66053Y82593D01*
X66124Y82653D01*
X66135Y82659D01*
X66156Y82680D01*
X66195Y82708D01*
X66244Y82746D01*
X66298Y82790D01*
X66358Y82833D01*
X66489Y82932D01*
X66495Y82937D01*
X66522Y82954D01*
X66555Y82981D01*
X66599Y83013D01*
X66648Y83052D01*
X66697Y83090D01*
X66806Y83177D01*
X66812Y83183D01*
X66828Y83199D01*
X66855Y83221D01*
X66888Y83254D01*
X66959Y83325D01*
X67035Y83412D01*
X67041Y83418D01*
X67052Y83434D01*
X67068Y83456D01*
X67090Y83489D01*
X67112Y83521D01*
X67139Y83565D01*
X67177Y83652D01*
Y83658D01*
X67183Y83674D01*
X67194Y83696D01*
X67205Y83729D01*
X67210Y83767D01*
X67221Y83811D01*
X67226Y83909D01*
Y83914D01*
Y83920D01*
Y83953D01*
X67221Y84002D01*
X67210Y84062D01*
X67188Y84122D01*
X67161Y84193D01*
X67123Y84253D01*
X67074Y84308D01*
X67068Y84313D01*
X67046Y84329D01*
X67008Y84351D01*
X66959Y84378D01*
X66899Y84400D01*
X66817Y84422D01*
X66724Y84439D01*
X66615Y84444D01*
X66560D01*
X66522Y84439D01*
X66479Y84433D01*
X66418Y84422D01*
X66358Y84411D01*
X66287Y84390D01*
X66211Y84368D01*
X66129Y84340D01*
X66047Y84308D01*
X65960Y84269D01*
X65867Y84220D01*
X65780Y84160D01*
X65687Y84100D01*
X65594Y84024D01*
Y84826D01*
X65600Y84832D01*
X65621Y84843D01*
X65649Y84859D01*
X65687Y84881D01*
X65741Y84908D01*
X65802Y84935D01*
X65873Y84968D01*
X65949Y85001D01*
X66036Y85034D01*
X66129Y85066D01*
X66227Y85094D01*
X66337Y85121D01*
X66446Y85143D01*
X66566Y85159D01*
X66686Y85170D01*
X66812Y85176D01*
X66866D01*
X66926Y85170D01*
D02*
G37*
G36*
X63345Y85099D02*
X63388D01*
X63432Y85094D01*
X63481Y85088D01*
X63596Y85072D01*
X63721Y85045D01*
X63858Y85012D01*
X64000Y84963D01*
X64142Y84903D01*
X64278Y84832D01*
X64404Y84739D01*
X64518Y84630D01*
X64568Y84570D01*
X64617Y84504D01*
X64655Y84428D01*
X64688Y84351D01*
X64715Y84269D01*
X64737Y84176D01*
X64748Y84084D01*
X64753Y83980D01*
Y83969D01*
Y83942D01*
X64748Y83903D01*
Y83849D01*
X64737Y83783D01*
X64726Y83718D01*
X64710Y83647D01*
X64688Y83576D01*
X64682Y83570D01*
X64677Y83543D01*
X64660Y83510D01*
X64639Y83467D01*
X64611Y83418D01*
X64578Y83363D01*
X64540Y83303D01*
X64496Y83248D01*
X64491Y83243D01*
X64475Y83227D01*
X64447Y83194D01*
X64415Y83161D01*
X64371Y83123D01*
X64322Y83079D01*
X64267Y83035D01*
X64202Y82992D01*
X64196Y82986D01*
X64174Y82975D01*
X64136Y82954D01*
X64092Y82932D01*
X64038Y82904D01*
X63972Y82877D01*
X63901Y82850D01*
X63825Y82828D01*
Y82811D01*
X63830D01*
X63841Y82806D01*
X63858Y82801D01*
X63880Y82790D01*
X63940Y82762D01*
X64000Y82719D01*
X64005Y82713D01*
X64016Y82708D01*
X64032Y82691D01*
X64054Y82675D01*
X64109Y82626D01*
X64169Y82566D01*
X64174Y82560D01*
X64185Y82549D01*
X64196Y82533D01*
X64218Y82511D01*
X64267Y82451D01*
X64322Y82380D01*
X64327Y82375D01*
X64333Y82364D01*
X64349Y82342D01*
X64366Y82320D01*
X64409Y82260D01*
X64458Y82189D01*
X65239Y80966D01*
X64169D01*
X63525Y82031D01*
X63519Y82036D01*
X63514Y82053D01*
X63497Y82074D01*
X63481Y82102D01*
X63437Y82173D01*
X63388Y82244D01*
X63383Y82249D01*
X63377Y82260D01*
X63366Y82276D01*
X63345Y82304D01*
X63301Y82353D01*
X63252Y82407D01*
X63246Y82413D01*
X63241Y82418D01*
X63208Y82446D01*
X63164Y82484D01*
X63110Y82511D01*
X63104D01*
X63099Y82517D01*
X63066Y82533D01*
X63011Y82544D01*
X62951Y82549D01*
X62700D01*
Y80966D01*
X61766D01*
Y85105D01*
X63312D01*
X63345Y85099D01*
D02*
G37*
G36*
X40689Y62845D02*
X39783D01*
Y66044D01*
X39777Y66039D01*
X39772Y66034D01*
X39755Y66023D01*
X39734Y66006D01*
X39674Y65962D01*
X39603Y65919D01*
X39597D01*
X39586Y65908D01*
X39564Y65897D01*
X39537Y65886D01*
X39504Y65870D01*
X39472Y65853D01*
X39384Y65815D01*
X39379D01*
X39362Y65810D01*
X39340Y65799D01*
X39313Y65788D01*
X39275Y65771D01*
X39237Y65760D01*
X39144Y65733D01*
X39138D01*
X39122Y65728D01*
X39100Y65722D01*
X39068Y65717D01*
X39035Y65706D01*
X38991Y65701D01*
X38904Y65684D01*
Y66454D01*
X38909D01*
X38920Y66459D01*
X38936Y66465D01*
X38964Y66470D01*
X38996Y66481D01*
X39035Y66498D01*
X39122Y66525D01*
X39220Y66563D01*
X39335Y66607D01*
X39450Y66661D01*
X39570Y66716D01*
X39575D01*
X39586Y66721D01*
X39603Y66732D01*
X39624Y66743D01*
X39684Y66776D01*
X39761Y66825D01*
X39848Y66874D01*
X39941Y66940D01*
X40039Y67005D01*
X40138Y67076D01*
X40689D01*
Y62845D01*
D02*
G37*
G36*
X36479Y66978D02*
X36523D01*
X36567Y66973D01*
X36616Y66967D01*
X36731Y66951D01*
X36856Y66923D01*
X36993Y66891D01*
X37135Y66842D01*
X37277Y66782D01*
X37413Y66711D01*
X37539Y66618D01*
X37653Y66509D01*
X37703Y66448D01*
X37752Y66383D01*
X37790Y66307D01*
X37823Y66230D01*
X37850Y66148D01*
X37872Y66055D01*
X37883Y65962D01*
X37888Y65859D01*
Y65848D01*
Y65821D01*
X37883Y65782D01*
Y65728D01*
X37872Y65662D01*
X37861Y65597D01*
X37844Y65526D01*
X37823Y65455D01*
X37817Y65449D01*
X37812Y65422D01*
X37795Y65389D01*
X37773Y65346D01*
X37746Y65296D01*
X37713Y65242D01*
X37675Y65182D01*
X37631Y65127D01*
X37626Y65122D01*
X37610Y65105D01*
X37582Y65073D01*
X37550Y65040D01*
X37506Y65002D01*
X37457Y64958D01*
X37402Y64914D01*
X37337Y64871D01*
X37331Y64865D01*
X37309Y64854D01*
X37271Y64832D01*
X37227Y64811D01*
X37173Y64783D01*
X37107Y64756D01*
X37036Y64729D01*
X36960Y64707D01*
Y64690D01*
X36965D01*
X36976Y64685D01*
X36993Y64679D01*
X37014Y64669D01*
X37075Y64641D01*
X37135Y64597D01*
X37140Y64592D01*
X37151Y64587D01*
X37167Y64570D01*
X37189Y64554D01*
X37244Y64505D01*
X37304Y64445D01*
X37309Y64439D01*
X37320Y64428D01*
X37331Y64412D01*
X37353Y64390D01*
X37402Y64330D01*
X37457Y64259D01*
X37462Y64254D01*
X37468Y64243D01*
X37484Y64221D01*
X37500Y64199D01*
X37544Y64139D01*
X37593Y64068D01*
X38374Y62845D01*
X37304D01*
X36660Y63910D01*
X36654Y63915D01*
X36649Y63931D01*
X36632Y63953D01*
X36616Y63981D01*
X36572Y64052D01*
X36523Y64122D01*
X36518Y64128D01*
X36512Y64139D01*
X36501Y64155D01*
X36479Y64183D01*
X36436Y64232D01*
X36387Y64286D01*
X36381Y64292D01*
X36376Y64297D01*
X36343Y64324D01*
X36299Y64363D01*
X36245Y64390D01*
X36239D01*
X36234Y64395D01*
X36201Y64412D01*
X36146Y64423D01*
X36086Y64428D01*
X35835D01*
Y62845D01*
X34901D01*
Y66984D01*
X36447D01*
X36479Y66978D01*
D02*
G37*
G36*
X68294Y69423D02*
X67388D01*
Y72622D01*
X67382Y72617D01*
X67377Y72611D01*
X67360Y72600D01*
X67339Y72584D01*
X67278Y72540D01*
X67207Y72496D01*
X67202D01*
X67191Y72486D01*
X67169Y72475D01*
X67142Y72464D01*
X67109Y72447D01*
X67076Y72431D01*
X66989Y72393D01*
X66984D01*
X66967Y72387D01*
X66945Y72376D01*
X66918Y72365D01*
X66880Y72349D01*
X66842Y72338D01*
X66749Y72311D01*
X66743D01*
X66727Y72305D01*
X66705Y72300D01*
X66672Y72294D01*
X66640Y72284D01*
X66596Y72278D01*
X66509Y72262D01*
Y73032D01*
X66514D01*
X66525Y73037D01*
X66541Y73043D01*
X66569Y73048D01*
X66601Y73059D01*
X66640Y73075D01*
X66727Y73103D01*
X66825Y73141D01*
X66940Y73185D01*
X67054Y73239D01*
X67175Y73294D01*
X67180D01*
X67191Y73299D01*
X67207Y73310D01*
X67229Y73321D01*
X67289Y73354D01*
X67366Y73403D01*
X67453Y73452D01*
X67546Y73518D01*
X67644Y73583D01*
X67743Y73654D01*
X68294D01*
Y69423D01*
D02*
G37*
G36*
X63789Y73627D02*
X63850Y73621D01*
X63926Y73616D01*
X64013Y73599D01*
X64106Y73583D01*
X64215Y73561D01*
X64324Y73528D01*
X64439Y73490D01*
X64559Y73441D01*
X64679Y73387D01*
X64800Y73321D01*
X64914Y73239D01*
X65029Y73152D01*
X65133Y73048D01*
X65138Y73043D01*
X65154Y73021D01*
X65182Y72988D01*
X65220Y72944D01*
X65258Y72884D01*
X65307Y72813D01*
X65356Y72731D01*
X65411Y72638D01*
X65460Y72535D01*
X65509Y72420D01*
X65558Y72294D01*
X65597Y72158D01*
X65635Y72011D01*
X65662Y71858D01*
X65679Y71694D01*
X65684Y71519D01*
Y71508D01*
Y71475D01*
X65679Y71426D01*
X65673Y71361D01*
X65668Y71273D01*
X65651Y71181D01*
X65635Y71071D01*
X65613Y70957D01*
X65580Y70837D01*
X65542Y70706D01*
X65498Y70580D01*
X65444Y70444D01*
X65378Y70312D01*
X65302Y70187D01*
X65215Y70061D01*
X65111Y69947D01*
Y69941D01*
X65100Y69936D01*
X65073Y69903D01*
X65062Y69892D01*
X65040Y69870D01*
X66088Y68866D01*
X64783D01*
X64232Y69423D01*
X64226D01*
X64221Y69417D01*
X64204D01*
X64183Y69412D01*
X64128Y69401D01*
X64057Y69390D01*
X63964Y69373D01*
X63866Y69362D01*
X63757Y69357D01*
X63637Y69352D01*
X63598D01*
X63549Y69357D01*
X63489Y69362D01*
X63413Y69368D01*
X63325Y69384D01*
X63227Y69401D01*
X63123Y69423D01*
X63009Y69455D01*
X62889Y69494D01*
X62768Y69537D01*
X62648Y69592D01*
X62528Y69657D01*
X62408Y69734D01*
X62293Y69827D01*
X62184Y69925D01*
X62179Y69930D01*
X62162Y69952D01*
X62135Y69985D01*
X62097Y70029D01*
X62053Y70089D01*
X62010Y70160D01*
X61960Y70241D01*
X61906Y70334D01*
X61857Y70438D01*
X61802Y70553D01*
X61758Y70673D01*
X61715Y70809D01*
X61676Y70951D01*
X61649Y71104D01*
X61633Y71268D01*
X61627Y71437D01*
Y71443D01*
Y71448D01*
Y71481D01*
X61633Y71530D01*
X61638Y71601D01*
X61644Y71683D01*
X61660Y71781D01*
X61676Y71885D01*
X61698Y72000D01*
X61731Y72125D01*
X61764Y72251D01*
X61813Y72387D01*
X61867Y72518D01*
X61933Y72649D01*
X62010Y72780D01*
X62097Y72901D01*
X62195Y73021D01*
X62201Y73026D01*
X62222Y73048D01*
X62255Y73075D01*
X62299Y73119D01*
X62353Y73163D01*
X62424Y73212D01*
X62501Y73272D01*
X62594Y73326D01*
X62697Y73381D01*
X62812Y73441D01*
X62932Y73490D01*
X63069Y73539D01*
X63211Y73578D01*
X63369Y73605D01*
X63527Y73627D01*
X63702Y73632D01*
X63740D01*
X63789Y73627D01*
D02*
G37*
%LPC*%
G36*
X15015Y99589D02*
X14992D01*
X14973Y99584D01*
X14931Y99579D01*
X14876Y99566D01*
X14811Y99547D01*
X14746Y99514D01*
X14681Y99468D01*
X14620Y99408D01*
X14616Y99398D01*
X14597Y99375D01*
X14574Y99338D01*
X14546Y99282D01*
X14518Y99213D01*
X14495Y99134D01*
X14477Y99041D01*
X14472Y98935D01*
Y98730D01*
Y98726D01*
Y98721D01*
Y98707D01*
X14477Y98689D01*
X14481Y98637D01*
X14491Y98582D01*
X14504Y98512D01*
X14532Y98443D01*
X14565Y98368D01*
X14611Y98303D01*
X14616Y98299D01*
X14634Y98280D01*
X14667Y98252D01*
X14708Y98225D01*
X14760Y98192D01*
X14825Y98169D01*
X14894Y98150D01*
X14973Y98141D01*
X14996D01*
X15015Y98146D01*
X15066Y98150D01*
X15122Y98169D01*
X15191Y98192D01*
X15256Y98229D01*
X15321Y98280D01*
X15353Y98308D01*
X15381Y98345D01*
Y98350D01*
X15386Y98354D01*
X15395Y98368D01*
X15405Y98382D01*
X15428Y98429D01*
X15456Y98498D01*
X15483Y98577D01*
X15507Y98679D01*
X15525Y98795D01*
X15530Y98925D01*
Y98935D01*
Y98953D01*
X15525Y98985D01*
X15521Y99027D01*
X15516Y99078D01*
X15502Y99134D01*
X15488Y99194D01*
X15465Y99259D01*
X15437Y99320D01*
X15405Y99380D01*
X15363Y99436D01*
X15312Y99487D01*
X15251Y99528D01*
X15187Y99561D01*
X15108Y99579D01*
X15015Y99589D01*
D02*
G37*
G36*
X18189Y98800D02*
X17734Y98740D01*
X17729D01*
X17720Y98735D01*
X17701D01*
X17673Y98726D01*
X17613Y98712D01*
X17548Y98679D01*
X17479Y98637D01*
X17418Y98577D01*
X17395Y98540D01*
X17377Y98498D01*
X17363Y98452D01*
X17358Y98401D01*
Y98396D01*
Y98378D01*
X17363Y98354D01*
X17367Y98322D01*
X17381Y98290D01*
X17395Y98252D01*
X17418Y98215D01*
X17446Y98183D01*
X17451Y98178D01*
X17465Y98169D01*
X17483Y98155D01*
X17511Y98141D01*
X17548Y98127D01*
X17590Y98113D01*
X17641Y98104D01*
X17697Y98099D01*
X17706D01*
X17734Y98104D01*
X17771Y98109D01*
X17822Y98118D01*
X17878Y98136D01*
X17938Y98164D01*
X17994Y98197D01*
X18049Y98248D01*
X18054Y98257D01*
X18073Y98276D01*
X18096Y98308D01*
X18119Y98354D01*
X18147Y98410D01*
X18165Y98475D01*
X18184Y98545D01*
X18189Y98628D01*
Y98800D01*
D02*
G37*
G36*
X28564Y99663D02*
X28531D01*
X28499Y99654D01*
X28452Y99644D01*
X28401Y99626D01*
X28350Y99598D01*
X28295Y99556D01*
X28239Y99505D01*
X28234Y99501D01*
X28216Y99477D01*
X28197Y99445D01*
X28169Y99398D01*
X28141Y99343D01*
X28113Y99278D01*
X28090Y99204D01*
X28076Y99120D01*
X29000D01*
Y99125D01*
Y99143D01*
X28995Y99171D01*
Y99204D01*
X28986Y99245D01*
X28977Y99292D01*
X28963Y99343D01*
X28944Y99394D01*
X28921Y99440D01*
X28893Y99491D01*
X28856Y99538D01*
X28814Y99579D01*
X28768Y99612D01*
X28707Y99640D01*
X28642Y99658D01*
X28564Y99663D01*
D02*
G37*
G36*
X24221Y99589D02*
X24211D01*
X24183Y99584D01*
X24137Y99579D01*
X24081Y99566D01*
X24021Y99547D01*
X23956Y99514D01*
X23891Y99473D01*
X23831Y99412D01*
X23826Y99403D01*
X23808Y99380D01*
X23784Y99343D01*
X23756Y99292D01*
X23724Y99227D01*
X23701Y99152D01*
X23682Y99060D01*
X23678Y98962D01*
Y98702D01*
Y98698D01*
Y98693D01*
Y98679D01*
X23682Y98661D01*
X23687Y98619D01*
X23696Y98563D01*
X23710Y98498D01*
X23738Y98429D01*
X23771Y98364D01*
X23817Y98299D01*
X23821Y98294D01*
X23845Y98276D01*
X23873Y98248D01*
X23914Y98220D01*
X23970Y98192D01*
X24030Y98164D01*
X24100Y98146D01*
X24179Y98141D01*
X24202D01*
X24221Y98146D01*
X24272Y98150D01*
X24327Y98169D01*
X24397Y98192D01*
X24462Y98229D01*
X24527Y98280D01*
X24559Y98308D01*
X24587Y98345D01*
Y98350D01*
X24592Y98354D01*
X24601Y98368D01*
X24610Y98382D01*
X24633Y98429D01*
X24661Y98498D01*
X24689Y98577D01*
X24712Y98679D01*
X24731Y98795D01*
X24736Y98925D01*
Y98930D01*
Y98939D01*
Y98958D01*
Y98976D01*
X24731Y99004D01*
Y99032D01*
X24717Y99106D01*
X24703Y99185D01*
X24680Y99264D01*
X24647Y99343D01*
X24601Y99412D01*
X24596Y99422D01*
X24578Y99440D01*
X24545Y99468D01*
X24504Y99501D01*
X24448Y99533D01*
X24383Y99561D01*
X24309Y99579D01*
X24221Y99589D01*
D02*
G37*
G36*
X7252D02*
X7224D01*
X7206Y99584D01*
X7159Y99579D01*
X7094Y99566D01*
X7029Y99542D01*
X6955Y99510D01*
X6886Y99463D01*
X6825Y99398D01*
X6821Y99389D01*
X6802Y99366D01*
X6779Y99320D01*
X6751Y99264D01*
X6718Y99185D01*
X6695Y99097D01*
X6677Y98990D01*
X6672Y98865D01*
Y98856D01*
Y98832D01*
X6677Y98800D01*
X6681Y98753D01*
X6691Y98698D01*
X6705Y98637D01*
X6723Y98572D01*
X6746Y98503D01*
X6774Y98433D01*
X6816Y98368D01*
X6862Y98308D01*
X6918Y98252D01*
X6988Y98206D01*
X7062Y98173D01*
X7155Y98150D01*
X7257Y98141D01*
X7280D01*
X7308Y98146D01*
X7345Y98155D01*
X7387Y98164D01*
X7433Y98178D01*
X7484Y98201D01*
X7535Y98234D01*
X7586Y98276D01*
X7637Y98322D01*
X7684Y98382D01*
X7725Y98457D01*
X7762Y98540D01*
X7790Y98637D01*
X7809Y98753D01*
X7813Y98883D01*
Y98893D01*
Y98916D01*
X7809Y98948D01*
X7804Y98995D01*
X7795Y99046D01*
X7786Y99106D01*
X7767Y99171D01*
X7744Y99236D01*
X7711Y99301D01*
X7674Y99366D01*
X7633Y99426D01*
X7577Y99477D01*
X7512Y99524D01*
X7438Y99561D01*
X7350Y99579D01*
X7252Y99589D01*
D02*
G37*
G36*
X4004Y87170D02*
X3972D01*
X3939Y87161D01*
X3893Y87151D01*
X3842Y87133D01*
X3791Y87105D01*
X3735Y87063D01*
X3679Y87012D01*
X3675Y87007D01*
X3656Y86984D01*
X3638Y86952D01*
X3610Y86905D01*
X3582Y86850D01*
X3554Y86785D01*
X3531Y86711D01*
X3517Y86627D01*
X4440D01*
Y86632D01*
Y86650D01*
X4436Y86678D01*
Y86711D01*
X4426Y86752D01*
X4417Y86799D01*
X4403Y86850D01*
X4385Y86901D01*
X4361Y86947D01*
X4333Y86998D01*
X4296Y87045D01*
X4255Y87086D01*
X4208Y87119D01*
X4148Y87147D01*
X4083Y87165D01*
X4004Y87170D01*
D02*
G37*
G36*
X8649Y88014D02*
X8607D01*
X8579Y88010D01*
X8547Y88005D01*
X8505Y87996D01*
X8412Y87977D01*
X8305Y87935D01*
X8250Y87912D01*
X8194Y87880D01*
X8138Y87847D01*
X8087Y87801D01*
X8036Y87754D01*
X7985Y87699D01*
X7981Y87694D01*
X7976Y87685D01*
X7962Y87666D01*
X7948Y87643D01*
X7930Y87611D01*
X7906Y87573D01*
X7883Y87527D01*
X7864Y87481D01*
X7841Y87425D01*
X7818Y87360D01*
X7795Y87295D01*
X7776Y87221D01*
X7762Y87142D01*
X7749Y87059D01*
X7744Y86966D01*
X7739Y86873D01*
Y86868D01*
Y86850D01*
Y86822D01*
X7744Y86785D01*
X7749Y86743D01*
X7753Y86692D01*
X7758Y86636D01*
X7772Y86571D01*
X7800Y86441D01*
X7841Y86302D01*
X7869Y86233D01*
X7906Y86168D01*
X7943Y86103D01*
X7985Y86042D01*
X7990Y86038D01*
X7994Y86028D01*
X8008Y86014D01*
X8032Y85996D01*
X8055Y85973D01*
X8083Y85945D01*
X8120Y85922D01*
X8157Y85894D01*
X8203Y85861D01*
X8250Y85838D01*
X8361Y85787D01*
X8421Y85769D01*
X8486Y85755D01*
X8556Y85745D01*
X8630Y85741D01*
X8667D01*
X8700Y85745D01*
X8732Y85750D01*
X8774Y85755D01*
X8867Y85778D01*
X8969Y85810D01*
X9025Y85838D01*
X9076Y85866D01*
X9131Y85899D01*
X9182Y85936D01*
X9233Y85982D01*
X9280Y86033D01*
X9284Y86038D01*
X9289Y86047D01*
X9303Y86066D01*
X9317Y86089D01*
X9335Y86121D01*
X9354Y86158D01*
X9377Y86200D01*
X9400Y86251D01*
X9424Y86307D01*
X9447Y86367D01*
X9465Y86432D01*
X9484Y86506D01*
X9498Y86585D01*
X9512Y86669D01*
X9516Y86761D01*
X9521Y86854D01*
Y86859D01*
Y86878D01*
Y86905D01*
X9516Y86947D01*
Y86989D01*
X9507Y87045D01*
X9503Y87105D01*
X9493Y87165D01*
X9465Y87304D01*
X9424Y87444D01*
X9396Y87518D01*
X9368Y87583D01*
X9331Y87648D01*
X9289Y87708D01*
X9284Y87713D01*
X9280Y87722D01*
X9266Y87736D01*
X9247Y87754D01*
X9224Y87778D01*
X9196Y87805D01*
X9159Y87833D01*
X9122Y87861D01*
X9080Y87889D01*
X9029Y87917D01*
X8923Y87968D01*
X8857Y87986D01*
X8793Y88000D01*
X8723Y88010D01*
X8649Y88014D01*
D02*
G37*
G36*
X14017Y94008D02*
X13943D01*
X13920Y94003D01*
X13855Y93989D01*
X13790Y93962D01*
X13785D01*
X13776Y93952D01*
X13762Y93943D01*
X13739Y93929D01*
X13692Y93892D01*
X13646Y93841D01*
X13641Y93836D01*
X13637Y93827D01*
X13623Y93813D01*
X13613Y93790D01*
X13595Y93762D01*
X13581Y93730D01*
X13549Y93655D01*
Y93651D01*
X13544Y93637D01*
X13539Y93614D01*
X13535Y93586D01*
X13525Y93553D01*
X13521Y93511D01*
X13516Y93423D01*
Y93419D01*
Y93400D01*
Y93377D01*
X13521Y93344D01*
X13525Y93307D01*
X13530Y93266D01*
X13549Y93182D01*
Y93177D01*
X13553Y93164D01*
X13563Y93145D01*
X13576Y93122D01*
X13604Y93061D01*
X13646Y93001D01*
X13651Y92997D01*
X13660Y92987D01*
X13669Y92973D01*
X13688Y92959D01*
X13739Y92922D01*
X13799Y92885D01*
X13804D01*
X13813Y92880D01*
X13832Y92876D01*
X13855Y92866D01*
X13887Y92862D01*
X13920Y92853D01*
X13994Y92848D01*
X14013D01*
X14031Y92853D01*
X14054D01*
X14115Y92866D01*
X14180Y92890D01*
X14184D01*
X14194Y92899D01*
X14207Y92908D01*
X14231Y92918D01*
X14277Y92955D01*
X14323Y93001D01*
X14328Y93006D01*
X14333Y93015D01*
X14347Y93029D01*
X14356Y93047D01*
X14388Y93098D01*
X14416Y93164D01*
Y93168D01*
X14421Y93182D01*
X14430Y93201D01*
X14435Y93224D01*
X14444Y93252D01*
X14449Y93289D01*
X14453Y93363D01*
Y93368D01*
Y93386D01*
Y93414D01*
X14449Y93446D01*
X14444Y93484D01*
X14439Y93525D01*
X14416Y93614D01*
Y93618D01*
X14412Y93632D01*
X14402Y93655D01*
X14393Y93683D01*
X14361Y93753D01*
X14319Y93818D01*
X14314Y93822D01*
X14310Y93832D01*
X14296Y93850D01*
X14277Y93869D01*
X14231Y93915D01*
X14170Y93957D01*
X14166Y93962D01*
X14156Y93966D01*
X14138Y93976D01*
X14115Y93985D01*
X14087Y93994D01*
X14054Y93999D01*
X14017Y94008D01*
D02*
G37*
G36*
X4004Y93075D02*
X3972D01*
X3939Y93066D01*
X3893Y93057D01*
X3842Y93038D01*
X3791Y93010D01*
X3735Y92969D01*
X3679Y92918D01*
X3675Y92913D01*
X3656Y92890D01*
X3638Y92857D01*
X3610Y92811D01*
X3582Y92755D01*
X3554Y92690D01*
X3531Y92616D01*
X3517Y92532D01*
X4440D01*
Y92537D01*
Y92556D01*
X4436Y92584D01*
Y92616D01*
X4426Y92658D01*
X4417Y92704D01*
X4403Y92755D01*
X4385Y92806D01*
X4361Y92853D01*
X4333Y92904D01*
X4296Y92950D01*
X4255Y92992D01*
X4208Y93024D01*
X4148Y93052D01*
X4083Y93071D01*
X4004Y93075D01*
D02*
G37*
G36*
X8649Y93920D02*
X8607D01*
X8579Y93915D01*
X8547Y93910D01*
X8505Y93901D01*
X8412Y93883D01*
X8305Y93841D01*
X8250Y93818D01*
X8194Y93785D01*
X8138Y93753D01*
X8087Y93706D01*
X8036Y93660D01*
X7985Y93604D01*
X7981Y93600D01*
X7976Y93590D01*
X7962Y93572D01*
X7948Y93549D01*
X7930Y93516D01*
X7906Y93479D01*
X7883Y93433D01*
X7864Y93386D01*
X7841Y93331D01*
X7818Y93266D01*
X7795Y93201D01*
X7776Y93126D01*
X7762Y93047D01*
X7749Y92964D01*
X7744Y92871D01*
X7739Y92778D01*
Y92774D01*
Y92755D01*
Y92727D01*
X7744Y92690D01*
X7749Y92649D01*
X7753Y92597D01*
X7758Y92542D01*
X7772Y92477D01*
X7800Y92347D01*
X7841Y92208D01*
X7869Y92138D01*
X7906Y92073D01*
X7943Y92008D01*
X7985Y91948D01*
X7990Y91943D01*
X7994Y91934D01*
X8008Y91920D01*
X8032Y91901D01*
X8055Y91878D01*
X8083Y91850D01*
X8120Y91827D01*
X8157Y91799D01*
X8203Y91767D01*
X8250Y91744D01*
X8361Y91693D01*
X8421Y91674D01*
X8486Y91660D01*
X8556Y91651D01*
X8630Y91646D01*
X8667D01*
X8700Y91651D01*
X8732Y91655D01*
X8774Y91660D01*
X8867Y91683D01*
X8969Y91716D01*
X9025Y91744D01*
X9076Y91772D01*
X9131Y91804D01*
X9182Y91841D01*
X9233Y91887D01*
X9280Y91939D01*
X9284Y91943D01*
X9289Y91953D01*
X9303Y91971D01*
X9317Y91994D01*
X9335Y92027D01*
X9354Y92064D01*
X9377Y92106D01*
X9400Y92157D01*
X9424Y92212D01*
X9447Y92273D01*
X9465Y92338D01*
X9484Y92412D01*
X9498Y92491D01*
X9512Y92574D01*
X9516Y92667D01*
X9521Y92760D01*
Y92765D01*
Y92783D01*
Y92811D01*
X9516Y92853D01*
Y92894D01*
X9507Y92950D01*
X9503Y93010D01*
X9493Y93071D01*
X9465Y93210D01*
X9424Y93349D01*
X9396Y93423D01*
X9368Y93488D01*
X9331Y93553D01*
X9289Y93614D01*
X9284Y93618D01*
X9280Y93628D01*
X9266Y93641D01*
X9247Y93660D01*
X9224Y93683D01*
X9196Y93711D01*
X9159Y93739D01*
X9122Y93767D01*
X9080Y93795D01*
X9029Y93822D01*
X8923Y93873D01*
X8857Y93892D01*
X8793Y93906D01*
X8723Y93915D01*
X8649Y93920D01*
D02*
G37*
G36*
X107288Y109197D02*
X107261D01*
X107239Y109192D01*
X107184Y109186D01*
X107119Y109170D01*
X107043Y109137D01*
X106961Y109094D01*
X106884Y109039D01*
X106846Y109001D01*
X106813Y108957D01*
X106808Y108946D01*
X106786Y108913D01*
X106759Y108859D01*
X106731Y108788D01*
X106699Y108695D01*
X106671Y108586D01*
X106649Y108455D01*
X106644Y108307D01*
Y108302D01*
Y108291D01*
Y108269D01*
X106649Y108242D01*
Y108209D01*
X106655Y108171D01*
X106666Y108083D01*
X106682Y107985D01*
X106715Y107887D01*
X106753Y107789D01*
X106808Y107701D01*
X106813Y107690D01*
X106841Y107668D01*
X106879Y107636D01*
X106928Y107597D01*
X106993Y107559D01*
X107075Y107527D01*
X107163Y107505D01*
X107266Y107494D01*
X107277D01*
X107316Y107499D01*
X107365Y107505D01*
X107430Y107521D01*
X107501Y107548D01*
X107578Y107587D01*
X107649Y107641D01*
X107720Y107718D01*
X107725Y107729D01*
X107747Y107756D01*
X107774Y107810D01*
X107807Y107876D01*
X107840Y107958D01*
X107867Y108062D01*
X107889Y108176D01*
X107894Y108307D01*
Y108531D01*
Y108537D01*
Y108542D01*
Y108558D01*
Y108580D01*
X107883Y108630D01*
X107872Y108695D01*
X107851Y108771D01*
X107823Y108853D01*
X107780Y108930D01*
X107725Y109006D01*
X107720Y109017D01*
X107692Y109039D01*
X107659Y109066D01*
X107605Y109105D01*
X107545Y109137D01*
X107468Y109170D01*
X107387Y109192D01*
X107288Y109197D01*
D02*
G37*
G36*
X73993D02*
X73966D01*
X73944Y109192D01*
X73895Y109186D01*
X73829Y109170D01*
X73753Y109148D01*
X73676Y109110D01*
X73600Y109055D01*
X73529Y108984D01*
X73524Y108974D01*
X73502Y108946D01*
X73474Y108903D01*
X73442Y108837D01*
X73409Y108755D01*
X73382Y108662D01*
X73360Y108553D01*
X73354Y108427D01*
Y108187D01*
Y108182D01*
Y108176D01*
Y108160D01*
X73360Y108138D01*
X73365Y108078D01*
X73376Y108012D01*
X73392Y107931D01*
X73425Y107849D01*
X73463Y107761D01*
X73518Y107685D01*
X73524Y107679D01*
X73545Y107658D01*
X73584Y107625D01*
X73633Y107592D01*
X73693Y107554D01*
X73769Y107527D01*
X73851Y107505D01*
X73944Y107494D01*
X73971D01*
X73993Y107499D01*
X74053Y107505D01*
X74119Y107527D01*
X74201Y107554D01*
X74277Y107597D01*
X74353Y107658D01*
X74392Y107690D01*
X74424Y107734D01*
Y107739D01*
X74430Y107745D01*
X74441Y107761D01*
X74452Y107778D01*
X74479Y107832D01*
X74512Y107914D01*
X74545Y108007D01*
X74572Y108127D01*
X74594Y108264D01*
X74599Y108416D01*
Y108427D01*
Y108449D01*
X74594Y108487D01*
X74588Y108537D01*
X74583Y108597D01*
X74566Y108662D01*
X74550Y108733D01*
X74523Y108810D01*
X74490Y108881D01*
X74452Y108952D01*
X74403Y109017D01*
X74343Y109077D01*
X74272Y109126D01*
X74195Y109165D01*
X74102Y109186D01*
X73993Y109197D01*
D02*
G37*
G36*
X10908Y110295D02*
X10542D01*
Y109001D01*
X10941D01*
X10979Y109006D01*
X11023Y109012D01*
X11083Y109023D01*
X11143Y109034D01*
X11214Y109055D01*
X11285Y109083D01*
X11350Y109115D01*
X11422Y109159D01*
X11482Y109214D01*
X11542Y109279D01*
X11585Y109350D01*
X11624Y109438D01*
X11645Y109541D01*
X11656Y109656D01*
Y109661D01*
Y109683D01*
X11651Y109716D01*
X11645Y109754D01*
X11634Y109803D01*
X11618Y109858D01*
X11596Y109918D01*
X11564Y109978D01*
X11525Y110033D01*
X11476Y110093D01*
X11416Y110147D01*
X11340Y110196D01*
X11258Y110235D01*
X11154Y110267D01*
X11039Y110289D01*
X10908Y110295D01*
D02*
G37*
G36*
X116112Y109285D02*
X116073D01*
X116035Y109274D01*
X115981Y109263D01*
X115920Y109241D01*
X115860Y109208D01*
X115795Y109159D01*
X115729Y109099D01*
X115724Y109094D01*
X115702Y109066D01*
X115680Y109028D01*
X115647Y108974D01*
X115615Y108908D01*
X115582Y108832D01*
X115555Y108744D01*
X115538Y108646D01*
X116625D01*
Y108651D01*
Y108673D01*
X116619Y108706D01*
Y108744D01*
X116608Y108793D01*
X116597Y108848D01*
X116581Y108908D01*
X116559Y108968D01*
X116532Y109023D01*
X116499Y109083D01*
X116455Y109137D01*
X116406Y109186D01*
X116352Y109225D01*
X116281Y109257D01*
X116204Y109279D01*
X116112Y109285D01*
D02*
G37*
G36*
X103712Y109197D02*
X103679D01*
X103657Y109192D01*
X103603Y109186D01*
X103526Y109170D01*
X103450Y109143D01*
X103362Y109105D01*
X103280Y109050D01*
X103210Y108974D01*
X103204Y108963D01*
X103182Y108935D01*
X103155Y108881D01*
X103122Y108815D01*
X103084Y108722D01*
X103057Y108619D01*
X103035Y108493D01*
X103029Y108346D01*
Y108335D01*
Y108307D01*
X103035Y108269D01*
X103040Y108214D01*
X103051Y108149D01*
X103068Y108078D01*
X103089Y108002D01*
X103117Y107920D01*
X103149Y107838D01*
X103199Y107761D01*
X103253Y107690D01*
X103319Y107625D01*
X103401Y107570D01*
X103488Y107532D01*
X103597Y107505D01*
X103717Y107494D01*
X103745D01*
X103777Y107499D01*
X103821Y107510D01*
X103870Y107521D01*
X103925Y107537D01*
X103985Y107565D01*
X104045Y107603D01*
X104105Y107652D01*
X104165Y107707D01*
X104220Y107778D01*
X104269Y107865D01*
X104313Y107963D01*
X104345Y108078D01*
X104367Y108214D01*
X104373Y108367D01*
Y108378D01*
Y108406D01*
X104367Y108444D01*
X104362Y108498D01*
X104351Y108558D01*
X104340Y108630D01*
X104318Y108706D01*
X104291Y108782D01*
X104252Y108859D01*
X104209Y108935D01*
X104160Y109006D01*
X104094Y109066D01*
X104018Y109121D01*
X103930Y109165D01*
X103826Y109186D01*
X103712Y109197D01*
D02*
G37*
G36*
X37722Y109285D02*
X37684D01*
X37646Y109274D01*
X37591Y109263D01*
X37531Y109241D01*
X37471Y109208D01*
X37406Y109159D01*
X37340Y109099D01*
X37335Y109094D01*
X37313Y109066D01*
X37291Y109028D01*
X37258Y108974D01*
X37225Y108908D01*
X37193Y108832D01*
X37165Y108744D01*
X37149Y108646D01*
X38236D01*
Y108651D01*
Y108673D01*
X38230Y108706D01*
Y108744D01*
X38219Y108793D01*
X38208Y108848D01*
X38192Y108908D01*
X38170Y108968D01*
X38143Y109023D01*
X38110Y109083D01*
X38066Y109137D01*
X38017Y109186D01*
X37963Y109225D01*
X37892Y109257D01*
X37815Y109279D01*
X37722Y109285D01*
D02*
G37*
G36*
X32841D02*
X32803D01*
X32765Y109274D01*
X32710Y109263D01*
X32650Y109241D01*
X32590Y109208D01*
X32524Y109159D01*
X32459Y109099D01*
X32453Y109094D01*
X32432Y109066D01*
X32410Y109028D01*
X32377Y108974D01*
X32344Y108908D01*
X32311Y108832D01*
X32284Y108744D01*
X32268Y108646D01*
X33354D01*
Y108651D01*
Y108673D01*
X33349Y108706D01*
Y108744D01*
X33338Y108793D01*
X33327Y108848D01*
X33311Y108908D01*
X33289Y108968D01*
X33261Y109023D01*
X33229Y109083D01*
X33185Y109137D01*
X33136Y109186D01*
X33081Y109225D01*
X33010Y109257D01*
X32934Y109279D01*
X32841Y109285D01*
D02*
G37*
G36*
X28009D02*
X27971D01*
X27933Y109274D01*
X27878Y109263D01*
X27818Y109241D01*
X27758Y109208D01*
X27692Y109159D01*
X27627Y109099D01*
X27621Y109094D01*
X27599Y109066D01*
X27578Y109028D01*
X27545Y108974D01*
X27512Y108908D01*
X27479Y108832D01*
X27452Y108744D01*
X27436Y108646D01*
X28522D01*
Y108651D01*
Y108673D01*
X28517Y108706D01*
Y108744D01*
X28506Y108793D01*
X28495Y108848D01*
X28479Y108908D01*
X28457Y108968D01*
X28429Y109023D01*
X28397Y109083D01*
X28353Y109137D01*
X28304Y109186D01*
X28249Y109225D01*
X28178Y109257D01*
X28102Y109279D01*
X28009Y109285D01*
D02*
G37*
G36*
X19115Y109197D02*
X19082D01*
X19060Y109192D01*
X19005Y109186D01*
X18929Y109170D01*
X18853Y109143D01*
X18765Y109105D01*
X18683Y109050D01*
X18612Y108974D01*
X18607Y108963D01*
X18585Y108935D01*
X18558Y108881D01*
X18525Y108815D01*
X18487Y108722D01*
X18460Y108619D01*
X18438Y108493D01*
X18432Y108346D01*
Y108335D01*
Y108307D01*
X18438Y108269D01*
X18443Y108214D01*
X18454Y108149D01*
X18470Y108078D01*
X18492Y108002D01*
X18519Y107920D01*
X18552Y107838D01*
X18601Y107761D01*
X18656Y107690D01*
X18722Y107625D01*
X18803Y107570D01*
X18891Y107532D01*
X19000Y107505D01*
X19120Y107494D01*
X19147D01*
X19180Y107499D01*
X19224Y107510D01*
X19273Y107521D01*
X19328Y107537D01*
X19388Y107565D01*
X19448Y107603D01*
X19508Y107652D01*
X19568Y107707D01*
X19622Y107778D01*
X19672Y107865D01*
X19715Y107963D01*
X19748Y108078D01*
X19770Y108214D01*
X19775Y108367D01*
Y108378D01*
Y108406D01*
X19770Y108444D01*
X19764Y108498D01*
X19753Y108558D01*
X19742Y108630D01*
X19721Y108706D01*
X19693Y108782D01*
X19655Y108859D01*
X19612Y108935D01*
X19562Y109006D01*
X19497Y109066D01*
X19420Y109121D01*
X19333Y109165D01*
X19229Y109186D01*
X19115Y109197D01*
D02*
G37*
G36*
X50679Y110278D02*
X50630D01*
X50597Y110273D01*
X50559Y110267D01*
X50510Y110257D01*
X50401Y110235D01*
X50275Y110186D01*
X50209Y110158D01*
X50144Y110120D01*
X50078Y110082D01*
X50018Y110027D01*
X49958Y109973D01*
X49898Y109907D01*
X49893Y109902D01*
X49887Y109891D01*
X49871Y109869D01*
X49854Y109842D01*
X49833Y109803D01*
X49805Y109760D01*
X49778Y109705D01*
X49756Y109651D01*
X49729Y109585D01*
X49702Y109509D01*
X49674Y109432D01*
X49652Y109345D01*
X49636Y109252D01*
X49620Y109154D01*
X49614Y109044D01*
X49609Y108935D01*
Y108930D01*
Y108908D01*
Y108875D01*
X49614Y108832D01*
X49620Y108782D01*
X49625Y108722D01*
X49631Y108657D01*
X49647Y108580D01*
X49680Y108427D01*
X49729Y108264D01*
X49762Y108182D01*
X49805Y108105D01*
X49849Y108029D01*
X49898Y107958D01*
X49904Y107952D01*
X49909Y107941D01*
X49925Y107925D01*
X49953Y107903D01*
X49980Y107876D01*
X50013Y107843D01*
X50056Y107816D01*
X50100Y107783D01*
X50155Y107745D01*
X50209Y107718D01*
X50340Y107658D01*
X50411Y107636D01*
X50488Y107619D01*
X50570Y107608D01*
X50657Y107603D01*
X50701D01*
X50739Y107608D01*
X50777Y107614D01*
X50826Y107619D01*
X50936Y107647D01*
X51056Y107685D01*
X51121Y107718D01*
X51181Y107750D01*
X51247Y107789D01*
X51307Y107832D01*
X51367Y107887D01*
X51421Y107947D01*
X51427Y107952D01*
X51432Y107963D01*
X51449Y107985D01*
X51465Y108012D01*
X51487Y108051D01*
X51509Y108094D01*
X51536Y108143D01*
X51563Y108204D01*
X51591Y108269D01*
X51618Y108340D01*
X51640Y108416D01*
X51662Y108504D01*
X51678Y108597D01*
X51695Y108695D01*
X51700Y108804D01*
X51705Y108913D01*
Y108919D01*
Y108941D01*
Y108974D01*
X51700Y109023D01*
Y109072D01*
X51689Y109137D01*
X51684Y109208D01*
X51673Y109279D01*
X51640Y109443D01*
X51591Y109607D01*
X51558Y109694D01*
X51525Y109771D01*
X51481Y109847D01*
X51432Y109918D01*
X51427Y109924D01*
X51421Y109934D01*
X51405Y109951D01*
X51383Y109973D01*
X51356Y110000D01*
X51323Y110033D01*
X51279Y110065D01*
X51236Y110098D01*
X51187Y110131D01*
X51127Y110164D01*
X51001Y110224D01*
X50925Y110246D01*
X50848Y110262D01*
X50766Y110273D01*
X50679Y110278D01*
D02*
G37*
G36*
X63375Y42526D02*
X63325D01*
X63293Y42520D01*
X63254Y42515D01*
X63205Y42504D01*
X63096Y42482D01*
X62971Y42433D01*
X62905Y42405D01*
X62839Y42367D01*
X62774Y42329D01*
X62714Y42274D01*
X62654Y42220D01*
X62594Y42154D01*
X62588Y42149D01*
X62583Y42138D01*
X62566Y42116D01*
X62550Y42089D01*
X62528Y42050D01*
X62501Y42007D01*
X62474Y41952D01*
X62452Y41898D01*
X62424Y41832D01*
X62397Y41756D01*
X62370Y41679D01*
X62348Y41592D01*
X62332Y41499D01*
X62315Y41401D01*
X62310Y41292D01*
X62304Y41182D01*
Y41177D01*
Y41155D01*
Y41122D01*
X62310Y41079D01*
X62315Y41030D01*
X62321Y40969D01*
X62326Y40904D01*
X62343Y40828D01*
X62375Y40675D01*
X62424Y40511D01*
X62457Y40429D01*
X62501Y40352D01*
X62545Y40276D01*
X62594Y40205D01*
X62599Y40200D01*
X62605Y40189D01*
X62621Y40172D01*
X62648Y40150D01*
X62676Y40123D01*
X62708Y40090D01*
X62752Y40063D01*
X62796Y40030D01*
X62850Y39992D01*
X62905Y39965D01*
X63036Y39905D01*
X63107Y39883D01*
X63183Y39867D01*
X63265Y39856D01*
X63353Y39850D01*
X63396D01*
X63435Y39856D01*
X63473Y39861D01*
X63522Y39867D01*
X63631Y39894D01*
X63751Y39932D01*
X63817Y39965D01*
X63877Y39998D01*
X63942Y40036D01*
X64002Y40080D01*
X64062Y40134D01*
X64117Y40194D01*
X64122Y40200D01*
X64128Y40211D01*
X64144Y40232D01*
X64161Y40260D01*
X64183Y40298D01*
X64204Y40342D01*
X64232Y40391D01*
X64259Y40451D01*
X64286Y40516D01*
X64314Y40587D01*
X64336Y40664D01*
X64357Y40751D01*
X64374Y40844D01*
X64390Y40942D01*
X64395Y41051D01*
X64401Y41161D01*
Y41166D01*
Y41188D01*
Y41221D01*
X64395Y41270D01*
Y41319D01*
X64385Y41384D01*
X64379Y41455D01*
X64368Y41526D01*
X64336Y41690D01*
X64286Y41854D01*
X64254Y41941D01*
X64221Y42018D01*
X64177Y42094D01*
X64128Y42165D01*
X64122Y42171D01*
X64117Y42182D01*
X64101Y42198D01*
X64079Y42220D01*
X64052Y42247D01*
X64019Y42280D01*
X63975Y42313D01*
X63931Y42345D01*
X63882Y42378D01*
X63822Y42411D01*
X63697Y42471D01*
X63620Y42493D01*
X63544Y42509D01*
X63462Y42520D01*
X63375Y42526D01*
D02*
G37*
G36*
X66820Y27472D02*
X66776D01*
X66743Y27466D01*
X66672Y27450D01*
X66590Y27423D01*
X66585D01*
X66574Y27417D01*
X66558Y27406D01*
X66530Y27390D01*
X66476Y27352D01*
X66421Y27297D01*
X66416Y27292D01*
X66410Y27281D01*
X66399Y27264D01*
X66383Y27242D01*
X66345Y27182D01*
X66312Y27100D01*
Y27095D01*
X66307Y27079D01*
X66301Y27057D01*
X66296Y27024D01*
X66285Y26991D01*
X66279Y26948D01*
X66274Y26849D01*
Y26844D01*
Y26822D01*
Y26795D01*
X66279Y26756D01*
X66285Y26713D01*
X66290Y26664D01*
X66312Y26560D01*
Y26554D01*
X66317Y26538D01*
X66328Y26511D01*
X66339Y26483D01*
X66372Y26407D01*
X66421Y26325D01*
X66427Y26320D01*
X66438Y26309D01*
X66448Y26292D01*
X66470Y26270D01*
X66525Y26216D01*
X66596Y26167D01*
X66601D01*
X66612Y26156D01*
X66634Y26150D01*
X66661Y26140D01*
X66700Y26129D01*
X66738Y26123D01*
X66825Y26112D01*
X66847D01*
X66869Y26118D01*
X66902D01*
X66973Y26134D01*
X67049Y26161D01*
X67054D01*
X67066Y26172D01*
X67082Y26183D01*
X67109Y26199D01*
X67164Y26243D01*
X67218Y26303D01*
X67224Y26309D01*
X67229Y26320D01*
X67246Y26342D01*
X67257Y26363D01*
X67278Y26396D01*
X67295Y26434D01*
X67327Y26522D01*
Y26527D01*
X67333Y26544D01*
X67339Y26571D01*
X67349Y26609D01*
X67355Y26647D01*
X67360Y26696D01*
X67366Y26806D01*
Y26811D01*
Y26833D01*
X67360Y26866D01*
X67355Y26909D01*
X67349Y26959D01*
X67339Y27018D01*
X67322Y27079D01*
X67300Y27139D01*
X67268Y27199D01*
X67235Y27259D01*
X67191Y27319D01*
X67136Y27368D01*
X67071Y27412D01*
X67000Y27444D01*
X66918Y27466D01*
X66820Y27472D01*
D02*
G37*
G36*
X63020Y28929D02*
X62599D01*
Y27777D01*
X63030D01*
X63052Y27783D01*
X63107Y27788D01*
X63178Y27799D01*
X63254Y27821D01*
X63331Y27854D01*
X63413Y27892D01*
X63484Y27952D01*
X63489Y27958D01*
X63511Y27985D01*
X63544Y28023D01*
X63577Y28072D01*
X63609Y28132D01*
X63642Y28209D01*
X63664Y28291D01*
X63669Y28383D01*
Y28389D01*
Y28405D01*
X63664Y28433D01*
X63658Y28471D01*
X63648Y28509D01*
X63637Y28558D01*
X63615Y28607D01*
X63587Y28657D01*
X63555Y28706D01*
X63511Y28755D01*
X63456Y28804D01*
X63396Y28842D01*
X63320Y28880D01*
X63232Y28908D01*
X63134Y28924D01*
X63020Y28929D01*
D02*
G37*
G36*
X63115Y21091D02*
X62695D01*
Y19939D01*
X63126D01*
X63148Y19944D01*
X63203Y19950D01*
X63274Y19961D01*
X63350Y19983D01*
X63426Y20015D01*
X63508Y20054D01*
X63579Y20114D01*
X63585Y20119D01*
X63607Y20146D01*
X63639Y20185D01*
X63672Y20234D01*
X63705Y20294D01*
X63738Y20370D01*
X63759Y20452D01*
X63765Y20545D01*
Y20550D01*
Y20567D01*
X63759Y20594D01*
X63754Y20632D01*
X63743Y20671D01*
X63732Y20720D01*
X63710Y20769D01*
X63683Y20818D01*
X63650Y20867D01*
X63607Y20916D01*
X63552Y20965D01*
X63492Y21004D01*
X63415Y21042D01*
X63328Y21069D01*
X63230Y21086D01*
X63115Y21091D01*
D02*
G37*
G36*
X66951Y53269D02*
X66945Y53258D01*
X66934Y53236D01*
X66913Y53198D01*
X66885Y53148D01*
X66852Y53094D01*
X66814Y53028D01*
X66727Y52886D01*
X66721Y52875D01*
X66705Y52854D01*
X66683Y52815D01*
X66656Y52766D01*
X66618Y52712D01*
X66574Y52646D01*
X66481Y52510D01*
X66476Y52504D01*
X66459Y52477D01*
X66432Y52444D01*
X66399Y52395D01*
X66361Y52340D01*
X66317Y52280D01*
X66219Y52149D01*
X66214Y52144D01*
X66197Y52122D01*
X66170Y52084D01*
X66137Y52046D01*
X66099Y51991D01*
X66055Y51936D01*
X65962Y51822D01*
X66951D01*
Y53269D01*
D02*
G37*
G36*
X62998Y53733D02*
X62577D01*
Y52581D01*
X63009D01*
X63030Y52586D01*
X63085Y52592D01*
X63156Y52602D01*
X63232Y52624D01*
X63309Y52657D01*
X63391Y52695D01*
X63462Y52755D01*
X63467Y52761D01*
X63489Y52788D01*
X63522Y52826D01*
X63555Y52875D01*
X63587Y52935D01*
X63620Y53012D01*
X63642Y53094D01*
X63648Y53187D01*
Y53192D01*
Y53209D01*
X63642Y53236D01*
X63637Y53274D01*
X63626Y53312D01*
X63615Y53361D01*
X63593Y53411D01*
X63566Y53460D01*
X63533Y53509D01*
X63489Y53558D01*
X63435Y53607D01*
X63375Y53645D01*
X63298Y53684D01*
X63211Y53711D01*
X63112Y53727D01*
X62998Y53733D01*
D02*
G37*
G36*
X63131Y91528D02*
X62711D01*
Y90376D01*
X63142D01*
X63164Y90381D01*
X63219Y90387D01*
X63290Y90398D01*
X63366Y90420D01*
X63443Y90452D01*
X63525Y90491D01*
X63596Y90551D01*
X63601Y90556D01*
X63623Y90583D01*
X63656Y90622D01*
X63688Y90671D01*
X63721Y90731D01*
X63754Y90807D01*
X63776Y90889D01*
X63781Y90982D01*
Y90987D01*
Y91004D01*
X63776Y91031D01*
X63770Y91069D01*
X63759Y91107D01*
X63749Y91157D01*
X63727Y91206D01*
X63699Y91255D01*
X63667Y91304D01*
X63623Y91353D01*
X63568Y91402D01*
X63508Y91441D01*
X63432Y91479D01*
X63345Y91506D01*
X63246Y91523D01*
X63131Y91528D01*
D02*
G37*
G36*
X63121Y84406D02*
X62700D01*
Y83254D01*
X63131D01*
X63153Y83259D01*
X63208Y83265D01*
X63279Y83276D01*
X63355Y83297D01*
X63432Y83330D01*
X63514Y83368D01*
X63585Y83429D01*
X63590Y83434D01*
X63612Y83461D01*
X63645Y83499D01*
X63678Y83549D01*
X63710Y83609D01*
X63743Y83685D01*
X63765Y83767D01*
X63770Y83860D01*
Y83865D01*
Y83882D01*
X63765Y83909D01*
X63759Y83947D01*
X63749Y83985D01*
X63738Y84035D01*
X63716Y84084D01*
X63688Y84133D01*
X63656Y84182D01*
X63612Y84231D01*
X63557Y84280D01*
X63497Y84319D01*
X63421Y84357D01*
X63334Y84384D01*
X63235Y84400D01*
X63121Y84406D01*
D02*
G37*
G36*
X36256Y66285D02*
X35835D01*
Y65133D01*
X36266D01*
X36288Y65138D01*
X36343Y65144D01*
X36414Y65154D01*
X36490Y65176D01*
X36567Y65209D01*
X36649Y65247D01*
X36720Y65307D01*
X36725Y65313D01*
X36747Y65340D01*
X36780Y65378D01*
X36812Y65428D01*
X36845Y65487D01*
X36878Y65564D01*
X36900Y65646D01*
X36905Y65739D01*
Y65744D01*
Y65760D01*
X36900Y65788D01*
X36894Y65826D01*
X36884Y65864D01*
X36873Y65913D01*
X36851Y65962D01*
X36823Y66012D01*
X36791Y66061D01*
X36747Y66110D01*
X36692Y66159D01*
X36632Y66197D01*
X36556Y66236D01*
X36468Y66263D01*
X36370Y66279D01*
X36256Y66285D01*
D02*
G37*
G36*
X63675Y72830D02*
X63626D01*
X63593Y72824D01*
X63555Y72819D01*
X63506Y72808D01*
X63396Y72786D01*
X63271Y72737D01*
X63205Y72710D01*
X63140Y72671D01*
X63074Y72633D01*
X63014Y72578D01*
X62954Y72524D01*
X62894Y72458D01*
X62889Y72453D01*
X62883Y72442D01*
X62867Y72420D01*
X62850Y72393D01*
X62828Y72355D01*
X62801Y72311D01*
X62774Y72256D01*
X62752Y72202D01*
X62725Y72136D01*
X62697Y72060D01*
X62670Y71983D01*
X62648Y71896D01*
X62632Y71803D01*
X62616Y71705D01*
X62610Y71596D01*
X62605Y71486D01*
Y71481D01*
Y71459D01*
Y71426D01*
X62610Y71383D01*
X62616Y71334D01*
X62621Y71273D01*
X62626Y71208D01*
X62643Y71131D01*
X62676Y70979D01*
X62725Y70815D01*
X62757Y70733D01*
X62801Y70657D01*
X62845Y70580D01*
X62894Y70509D01*
X62900Y70504D01*
X62905Y70493D01*
X62921Y70476D01*
X62949Y70455D01*
X62976Y70427D01*
X63009Y70394D01*
X63052Y70367D01*
X63096Y70334D01*
X63151Y70296D01*
X63205Y70269D01*
X63336Y70209D01*
X63407Y70187D01*
X63484Y70171D01*
X63566Y70160D01*
X63653Y70154D01*
X63697D01*
X63735Y70160D01*
X63773Y70165D01*
X63822Y70171D01*
X63931Y70198D01*
X64052Y70236D01*
X64117Y70269D01*
X64177Y70302D01*
X64243Y70340D01*
X64303Y70384D01*
X64363Y70438D01*
X64417Y70498D01*
X64423Y70504D01*
X64428Y70515D01*
X64445Y70536D01*
X64461Y70564D01*
X64483Y70602D01*
X64505Y70646D01*
X64532Y70695D01*
X64559Y70755D01*
X64587Y70820D01*
X64614Y70891D01*
X64636Y70968D01*
X64658Y71055D01*
X64674Y71148D01*
X64690Y71246D01*
X64696Y71355D01*
X64701Y71465D01*
Y71470D01*
Y71492D01*
Y71525D01*
X64696Y71574D01*
Y71623D01*
X64685Y71688D01*
X64679Y71759D01*
X64669Y71830D01*
X64636Y71994D01*
X64587Y72158D01*
X64554Y72245D01*
X64521Y72322D01*
X64477Y72398D01*
X64428Y72469D01*
X64423Y72475D01*
X64417Y72486D01*
X64401Y72502D01*
X64379Y72524D01*
X64352Y72551D01*
X64319Y72584D01*
X64275Y72617D01*
X64232Y72649D01*
X64183Y72682D01*
X64122Y72715D01*
X63997Y72775D01*
X63920Y72797D01*
X63844Y72813D01*
X63762Y72824D01*
X63675Y72830D01*
D02*
G37*
%LPD*%
D10*
X55217Y62205D02*
G03*
X55217Y62205I-492J0D01*
G01*
Y32283D02*
G03*
X55217Y32283I-492J0D01*
G01*
D11*
X59842Y66240D02*
Y72047D01*
X49606Y66240D02*
Y72047D01*
X58071Y66240D02*
X59842D01*
X49606D02*
X51378D01*
X59842Y36319D02*
Y42126D01*
X49606Y36319D02*
Y42126D01*
X58071Y36319D02*
X59842D01*
X49606D02*
X51378D01*
M02*
