G04*
G04 #@! TF.GenerationSoftware,Altium Limited,Altium Designer,23.6.0 (18)*
G04*
G04 Layer_Color=8388736*
%FSLAX25Y25*%
%MOIN*%
G70*
G04*
G04 #@! TF.SameCoordinates,6FA12667-0DF0-4BCD-80CE-5BD958C659C7*
G04*
G04*
G04 #@! TF.FilePolarity,Negative*
G04*
G01*
G75*
%ADD12R,0.04540X0.04737*%
%ADD13R,0.07099X0.12611*%
%ADD14R,0.04343X0.04540*%
%ADD15R,0.04343X0.04540*%
%ADD16C,0.06706*%
D12*
X57874Y52362D02*
D03*
X51575D02*
D03*
X57874Y90158D02*
D03*
X51575D02*
D03*
X57874Y83071D02*
D03*
X51575D02*
D03*
X40551Y59055D02*
D03*
X34252D02*
D03*
X57874Y19685D02*
D03*
X51575D02*
D03*
Y27559D02*
D03*
X57874D02*
D03*
D13*
X180236Y90551D02*
D03*
X170236D02*
D03*
X160236D02*
D03*
X150236D02*
D03*
X140236D02*
D03*
X120236D02*
D03*
X130236D02*
D03*
X110236D02*
D03*
X140236Y23622D02*
D03*
X180236D02*
D03*
X170236D02*
D03*
X160236D02*
D03*
X150236D02*
D03*
X120236D02*
D03*
X130236D02*
D03*
X110236D02*
D03*
D14*
X58465Y75492D02*
D03*
X54724Y66240D02*
D03*
X58465Y45571D02*
D03*
X54724Y36319D02*
D03*
D15*
X50984Y75492D02*
D03*
Y45571D02*
D03*
D16*
X40945Y19685D02*
D03*
Y27559D02*
D03*
Y35433D02*
D03*
Y43307D02*
D03*
M02*
